<svg xmlns="http://www.w3.org/2000/svg" xmlns:xlink="http://www.w3.org/1999/xlink" width="500" zoomAndPan="magnify" viewBox="0 0 375 374.999991" height="500" preserveAspectRatio="xMidYMid meet" version="1.0"><defs><clipPath id="a39def9bd8"><path d="M 8.886719 8.886719 L 365.886719 8.886719 L 365.886719 365.886719 L 8.886719 365.886719 Z M 8.886719 8.886719 " clip-rule="nonzero"/></clipPath><clipPath id="af40746b2f"><path d="M 172 8.886719 L 365.886719 8.886719 L 365.886719 365.886719 L 172 365.886719 Z M 172 8.886719 " clip-rule="nonzero"/></clipPath></defs><g clip-path="url(#a39def9bd8)"><path fill="#bbadc3" d="M 365.886719 187.386719 C 365.886719 190.308594 365.816406 193.226562 365.671875 196.144531 C 365.527344 199.0625 365.3125 201.976562 365.027344 204.882812 C 364.742188 207.789062 364.382812 210.6875 363.953125 213.578125 C 363.527344 216.46875 363.027344 219.34375 362.457031 222.210938 C 361.886719 225.074219 361.246094 227.925781 360.535156 230.757812 C 359.828125 233.59375 359.046875 236.40625 358.199219 239.203125 C 357.351562 241.996094 356.4375 244.769531 355.453125 247.519531 C 354.46875 250.273438 353.417969 252.996094 352.296875 255.695312 C 351.179688 258.394531 349.996094 261.0625 348.75 263.703125 C 347.5 266.34375 346.1875 268.953125 344.808594 271.53125 C 343.433594 274.105469 341.992188 276.648438 340.492188 279.152344 C 338.988281 281.660156 337.425781 284.125 335.804688 286.554688 C 334.179688 288.984375 332.5 291.371094 330.757812 293.71875 C 329.019531 296.066406 327.222656 298.367188 325.367188 300.625 C 323.515625 302.882812 321.609375 305.09375 319.644531 307.257812 C 317.683594 309.425781 315.671875 311.539062 313.605469 313.605469 C 311.539062 315.671875 309.425781 317.683594 307.257812 319.644531 C 305.09375 321.609375 302.882812 323.515625 300.625 325.367188 C 298.367188 327.222656 296.066406 329.019531 293.71875 330.757812 C 291.371094 332.5 288.984375 334.179688 286.554688 335.804688 C 284.125 337.425781 281.660156 338.988281 279.152344 340.492188 C 276.648438 341.992188 274.105469 343.433594 271.53125 344.808594 C 268.953125 346.1875 266.34375 347.5 263.703125 348.75 C 261.0625 349.996094 258.394531 351.179688 255.695312 352.296875 C 252.996094 353.417969 250.273438 354.46875 247.519531 355.453125 C 244.769531 356.4375 241.996094 357.351562 239.203125 358.199219 C 236.40625 359.046875 233.59375 359.828125 230.757812 360.535156 C 227.925781 361.246094 225.074219 361.886719 222.210938 362.457031 C 219.34375 363.027344 216.46875 363.527344 213.578125 363.953125 C 210.6875 364.382812 207.789062 364.742188 204.882812 365.027344 C 201.976562 365.3125 199.0625 365.527344 196.144531 365.671875 C 193.226562 365.816406 190.308594 365.886719 187.386719 365.886719 C 184.464844 365.886719 181.546875 365.816406 178.628906 365.671875 C 175.710938 365.527344 172.796875 365.3125 169.890625 365.027344 C 166.984375 364.742188 164.085938 364.382812 161.195312 363.953125 C 158.304688 363.527344 155.429688 363.027344 152.5625 362.457031 C 149.699219 361.886719 146.847656 361.246094 144.015625 360.535156 C 141.179688 359.828125 138.367188 359.046875 135.570312 358.199219 C 132.773438 357.351562 130 356.4375 127.25 355.453125 C 124.5 354.46875 121.777344 353.417969 119.078125 352.296875 C 116.378906 351.179688 113.707031 349.996094 111.066406 348.75 C 108.425781 347.5 105.816406 346.1875 103.242188 344.808594 C 100.664062 343.433594 98.125 341.992188 95.617188 340.492188 C 93.113281 338.988281 90.644531 337.425781 88.21875 335.804688 C 85.789062 334.179688 83.398438 332.5 81.054688 330.757812 C 78.707031 329.019531 76.40625 327.222656 74.148438 325.367188 C 71.890625 323.515625 69.675781 321.609375 67.511719 319.644531 C 65.347656 317.683594 63.234375 315.671875 61.167969 313.605469 C 59.101562 311.539062 57.089844 309.425781 55.125 307.257812 C 53.164062 305.09375 51.257812 302.882812 49.402344 300.625 C 47.550781 298.367188 45.753906 296.066406 44.015625 293.71875 C 42.273438 291.371094 40.59375 288.984375 38.96875 286.554688 C 37.347656 284.125 35.785156 281.660156 34.28125 279.152344 C 32.78125 276.648438 31.339844 274.105469 29.964844 271.53125 C 28.585938 268.953125 27.273438 266.34375 26.023438 263.703125 C 24.773438 261.0625 23.589844 258.394531 22.472656 255.695312 C 21.355469 252.996094 20.304688 250.273438 19.320312 247.519531 C 18.335938 244.769531 17.421875 241.996094 16.574219 239.203125 C 15.722656 236.40625 14.945312 233.59375 14.234375 230.757812 C 13.527344 227.925781 12.886719 225.074219 12.316406 222.210938 C 11.746094 219.34375 11.246094 216.46875 10.816406 213.578125 C 10.390625 210.6875 10.03125 207.789062 9.746094 204.882812 C 9.460938 201.976562 9.246094 199.0625 9.101562 196.144531 C 8.957031 193.226562 8.886719 190.308594 8.886719 187.386719 C 8.886719 184.464844 8.957031 181.546875 9.101562 178.628906 C 9.246094 175.710938 9.460938 172.796875 9.746094 169.890625 C 10.03125 166.984375 10.390625 164.085938 10.816406 161.195312 C 11.246094 158.304688 11.746094 155.429688 12.316406 152.5625 C 12.886719 149.699219 13.527344 146.847656 14.234375 144.015625 C 14.945312 141.179688 15.722656 138.367188 16.574219 135.570312 C 17.421875 132.773438 18.335938 130 19.320312 127.25 C 20.304688 124.5 21.355469 121.777344 22.472656 119.078125 C 23.589844 116.378906 24.773438 113.707031 26.023438 111.066406 C 27.273438 108.425781 28.585938 105.816406 29.964844 103.242188 C 31.339844 100.664062 32.78125 98.125 34.28125 95.617188 C 35.785156 93.113281 37.347656 90.644531 38.96875 88.21875 C 40.59375 85.789062 42.273438 83.398438 44.015625 81.054688 C 45.753906 78.707031 47.550781 76.40625 49.402344 74.148438 C 51.257812 71.890625 53.164062 69.675781 55.125 67.511719 C 57.089844 65.347656 59.101562 63.234375 61.167969 61.167969 C 63.234375 59.101562 65.347656 57.089844 67.511719 55.125 C 69.675781 53.164062 71.890625 51.257812 74.148438 49.402344 C 76.40625 47.550781 78.707031 45.753906 81.054688 44.015625 C 83.398438 42.273438 85.789062 40.59375 88.21875 38.96875 C 90.644531 37.347656 93.113281 35.785156 95.617188 34.28125 C 98.125 32.78125 100.664062 31.339844 103.242188 29.964844 C 105.816406 28.585938 108.425781 27.273438 111.066406 26.023438 C 113.707031 24.773438 116.378906 23.589844 119.078125 22.472656 C 121.777344 21.355469 124.5 20.304688 127.25 19.320312 C 130 18.335938 132.773438 17.421875 135.570312 16.574219 C 138.367188 15.722656 141.179688 14.945312 144.015625 14.234375 C 146.847656 13.527344 149.699219 12.886719 152.5625 12.316406 C 155.429688 11.746094 158.304688 11.246094 161.195312 10.816406 C 164.085938 10.390625 166.984375 10.03125 169.890625 9.746094 C 172.796875 9.460938 175.710938 9.246094 178.628906 9.101562 C 181.546875 8.957031 184.464844 8.886719 187.386719 8.886719 C 190.308594 8.886719 193.226562 8.957031 196.144531 9.101562 C 199.0625 9.246094 201.976562 9.460938 204.882812 9.746094 C 207.789062 10.03125 210.6875 10.390625 213.578125 10.816406 C 216.46875 11.246094 219.34375 11.746094 222.210938 12.316406 C 225.074219 12.886719 227.925781 13.527344 230.757812 14.234375 C 233.59375 14.945312 236.40625 15.722656 239.203125 16.574219 C 241.996094 17.421875 244.769531 18.335938 247.519531 19.320312 C 250.273438 20.304688 252.996094 21.355469 255.695312 22.472656 C 258.394531 23.589844 261.0625 24.773438 263.703125 26.023438 C 266.34375 27.273438 268.953125 28.585938 271.53125 29.964844 C 274.105469 31.339844 276.648438 32.78125 279.152344 34.28125 C 281.660156 35.785156 284.125 37.347656 286.554688 38.96875 C 288.984375 40.59375 291.371094 42.273438 293.71875 44.015625 C 296.066406 45.753906 298.367188 47.550781 300.625 49.402344 C 302.882812 51.257812 305.09375 53.164062 307.257812 55.125 C 309.425781 57.089844 311.539062 59.101562 313.605469 61.167969 C 315.671875 63.234375 317.683594 65.347656 319.644531 67.511719 C 321.609375 69.675781 323.515625 71.890625 325.367188 74.148438 C 327.222656 76.40625 329.019531 78.707031 330.757812 81.054688 C 332.5 83.398438 334.179688 85.789062 335.804688 88.21875 C 337.425781 90.644531 338.988281 93.113281 340.492188 95.617188 C 341.992188 98.125 343.433594 100.664062 344.808594 103.242188 C 346.1875 105.816406 347.5 108.425781 348.75 111.066406 C 349.996094 113.707031 351.179688 116.378906 352.296875 119.078125 C 353.417969 121.777344 354.46875 124.5 355.453125 127.25 C 356.4375 130 357.351562 132.773438 358.199219 135.570312 C 359.046875 138.367188 359.828125 141.179688 360.535156 144.015625 C 361.246094 146.847656 361.886719 149.699219 362.457031 152.5625 C 363.027344 155.429688 363.527344 158.304688 363.953125 161.195312 C 364.382812 164.085938 364.742188 166.984375 365.027344 169.890625 C 365.3125 172.796875 365.527344 175.710938 365.671875 178.628906 C 365.816406 181.546875 365.886719 184.464844 365.886719 187.386719 Z M 365.886719 187.386719 " fill-opacity="1" fill-rule="nonzero"/></g><g clip-path="url(#af40746b2f)"><path fill="#a496ac" d="M 365.886719 187.386719 C 365.886719 285.980469 285.980469 365.886719 187.386719 365.886719 C 182.503906 365.886719 177.695312 365.675781 172.882812 365.328125 C 271.128906 357.308594 344.339844 271.199219 336.320312 172.882812 C 329.210938 85.726562 260.042969 16.554688 172.882812 9.445312 C 177.695312 9.09375 182.503906 8.886719 187.386719 8.886719 C 285.980469 8.886719 365.886719 88.792969 365.886719 187.386719 Z M 365.886719 187.386719 " fill-opacity="1" fill-rule="nonzero"/></g><path fill="#897395" d="M 90.605469 239.613281 C 90.605469 240.1875 90.578125 240.761719 90.519531 241.332031 C 90.464844 241.90625 90.378906 242.476562 90.269531 243.039062 C 90.15625 243.605469 90.015625 244.160156 89.847656 244.710938 C 89.683594 245.261719 89.488281 245.804688 89.269531 246.335938 C 89.046875 246.867188 88.800781 247.386719 88.53125 247.894531 C 88.257812 248.402344 87.964844 248.894531 87.644531 249.375 C 87.324219 249.851562 86.980469 250.3125 86.617188 250.757812 C 86.253906 251.203125 85.867188 251.628906 85.460938 252.035156 C 85.050781 252.441406 84.625 252.828125 84.183594 253.195312 C 83.738281 253.558594 83.273438 253.902344 82.796875 254.222656 C 82.316406 254.539062 81.824219 254.835938 81.316406 255.109375 C 80.808594 255.378906 80.289062 255.625 79.757812 255.84375 C 79.226562 256.066406 78.6875 256.257812 78.136719 256.425781 C 77.585938 256.59375 77.027344 256.734375 76.460938 256.84375 C 75.898438 256.957031 75.328125 257.042969 74.757812 257.097656 C 74.183594 257.15625 73.609375 257.183594 73.035156 257.183594 C 72.460938 257.183594 71.886719 257.15625 71.3125 257.097656 C 70.738281 257.042969 70.171875 256.957031 69.605469 256.84375 C 69.042969 256.734375 68.484375 256.59375 67.933594 256.425781 C 67.382812 256.257812 66.84375 256.066406 66.308594 255.84375 C 65.777344 255.625 65.257812 255.378906 64.75 255.109375 C 64.246094 254.835938 63.75 254.539062 63.273438 254.222656 C 62.792969 253.902344 62.332031 253.558594 61.886719 253.195312 C 61.441406 252.828125 61.015625 252.441406 60.609375 252.035156 C 60.203125 251.628906 59.816406 251.203125 59.453125 250.757812 C 59.085938 250.3125 58.746094 249.851562 58.425781 249.375 C 58.105469 248.894531 57.808594 248.402344 57.539062 247.894531 C 57.265625 247.386719 57.019531 246.867188 56.800781 246.335938 C 56.582031 245.804688 56.386719 245.261719 56.21875 244.710938 C 56.054688 244.160156 55.914062 243.605469 55.800781 243.039062 C 55.6875 242.476562 55.605469 241.90625 55.546875 241.332031 C 55.492188 240.761719 55.464844 240.1875 55.464844 239.613281 C 55.464844 239.035156 55.492188 238.460938 55.546875 237.890625 C 55.605469 237.316406 55.6875 236.746094 55.800781 236.183594 C 55.914062 235.617188 56.054688 235.0625 56.21875 234.511719 C 56.386719 233.960938 56.582031 233.417969 56.800781 232.886719 C 57.019531 232.355469 57.265625 231.835938 57.539062 231.328125 C 57.808594 230.820312 58.105469 230.328125 58.425781 229.847656 C 58.746094 229.371094 59.085938 228.910156 59.453125 228.464844 C 59.816406 228.019531 60.203125 227.59375 60.609375 227.1875 C 61.015625 226.78125 61.441406 226.394531 61.886719 226.027344 C 62.332031 225.664062 62.792969 225.320312 63.273438 225 C 63.75 224.683594 64.246094 224.386719 64.75 224.113281 C 65.257812 223.84375 65.777344 223.597656 66.308594 223.378906 C 66.84375 223.15625 67.382812 222.964844 67.933594 222.796875 C 68.484375 222.628906 69.042969 222.492188 69.605469 222.378906 C 70.171875 222.265625 70.738281 222.179688 71.3125 222.125 C 71.886719 222.070312 72.460938 222.039062 73.035156 222.039062 C 73.609375 222.039062 74.183594 222.070312 74.757812 222.125 C 75.328125 222.179688 75.898438 222.265625 76.460938 222.378906 C 77.027344 222.492188 77.585938 222.628906 78.136719 222.796875 C 78.6875 222.964844 79.226562 223.15625 79.757812 223.378906 C 80.289062 223.597656 80.808594 223.84375 81.316406 224.113281 C 81.824219 224.386719 82.316406 224.683594 82.796875 225 C 83.273438 225.320312 83.738281 225.664062 84.183594 226.027344 C 84.625 226.394531 85.050781 226.78125 85.460938 227.1875 C 85.867188 227.59375 86.253906 228.019531 86.617188 228.464844 C 86.980469 228.910156 87.324219 229.371094 87.644531 229.847656 C 87.964844 230.328125 88.257812 230.820312 88.53125 231.328125 C 88.800781 231.835938 89.046875 232.355469 89.269531 232.886719 C 89.488281 233.417969 89.683594 233.960938 89.847656 234.511719 C 90.015625 235.0625 90.15625 235.617188 90.269531 236.183594 C 90.378906 236.746094 90.464844 237.316406 90.519531 237.890625 C 90.578125 238.460938 90.605469 239.035156 90.605469 239.613281 Z M 90.605469 239.613281 " fill-opacity="1" fill-rule="nonzero"/><path fill="#897395" d="M 270.640625 253.070312 C 270.640625 253.746094 270.574219 254.417969 270.441406 255.082031 C 270.308594 255.746094 270.113281 256.390625 269.855469 257.019531 C 269.59375 257.644531 269.277344 258.238281 268.902344 258.800781 C 268.523438 259.367188 268.097656 259.886719 267.617188 260.367188 C 267.136719 260.84375 266.617188 261.273438 266.054688 261.648438 C 265.488281 262.027344 264.894531 262.34375 264.269531 262.601562 C 263.644531 262.863281 263 263.058594 262.332031 263.191406 C 261.667969 263.320312 260.996094 263.386719 260.320312 263.386719 C 259.644531 263.386719 258.972656 263.320312 258.308594 263.191406 C 257.640625 263.058594 256.996094 262.863281 256.371094 262.601562 C 255.746094 262.34375 255.148438 262.027344 254.585938 261.648438 C 254.023438 261.273438 253.503906 260.84375 253.023438 260.367188 C 252.542969 259.886719 252.117188 259.367188 251.738281 258.800781 C 251.363281 258.238281 251.046875 257.644531 250.785156 257.019531 C 250.527344 256.390625 250.332031 255.746094 250.199219 255.082031 C 250.066406 254.417969 250 253.746094 250 253.070312 C 250 252.390625 250.066406 251.71875 250.199219 251.054688 C 250.332031 250.390625 250.527344 249.746094 250.785156 249.121094 C 251.046875 248.492188 251.363281 247.898438 251.738281 247.335938 C 252.117188 246.773438 252.542969 246.25 253.023438 245.773438 C 253.503906 245.292969 254.023438 244.863281 254.585938 244.488281 C 255.148438 244.113281 255.746094 243.792969 256.371094 243.535156 C 256.996094 243.273438 257.640625 243.078125 258.308594 242.949219 C 258.972656 242.816406 259.644531 242.75 260.320312 242.75 C 260.996094 242.75 261.667969 242.816406 262.332031 242.949219 C 262.996094 243.078125 263.644531 243.273438 264.269531 243.535156 C 264.894531 243.792969 265.488281 244.113281 266.054688 244.488281 C 266.617188 244.863281 267.136719 245.292969 267.617188 245.773438 C 268.097656 246.25 268.523438 246.773438 268.902344 247.335938 C 269.277344 247.898438 269.59375 248.492188 269.855469 249.121094 C 270.113281 249.746094 270.308594 250.390625 270.441406 251.054688 C 270.574219 251.71875 270.640625 252.390625 270.640625 253.070312 Z M 270.640625 253.070312 " fill-opacity="1" fill-rule="nonzero"/><path fill="#897395" d="M 174.417969 336.878906 C 174.417969 337.148438 174.390625 337.417969 174.339844 337.683594 C 174.285156 337.949219 174.207031 338.203125 174.105469 338.453125 C 174 338.703125 173.875 338.941406 173.722656 339.164062 C 173.574219 339.390625 173.402344 339.597656 173.210938 339.789062 C 173.019531 339.980469 172.8125 340.152344 172.589844 340.300781 C 172.363281 340.449219 172.128906 340.578125 171.878906 340.679688 C 171.628906 340.785156 171.371094 340.863281 171.105469 340.914062 C 170.839844 340.96875 170.574219 340.992188 170.304688 340.992188 C 170.03125 340.992188 169.765625 340.96875 169.5 340.914062 C 169.234375 340.863281 168.976562 340.785156 168.730469 340.679688 C 168.480469 340.578125 168.242188 340.449219 168.019531 340.300781 C 167.792969 340.152344 167.585938 339.980469 167.394531 339.789062 C 167.203125 339.597656 167.03125 339.390625 166.882812 339.164062 C 166.734375 338.941406 166.605469 338.703125 166.503906 338.453125 C 166.398438 338.203125 166.320312 337.949219 166.269531 337.683594 C 166.214844 337.417969 166.1875 337.148438 166.1875 336.878906 C 166.1875 336.609375 166.214844 336.34375 166.269531 336.078125 C 166.320312 335.8125 166.398438 335.554688 166.503906 335.304688 C 166.605469 335.054688 166.734375 334.820312 166.882812 334.59375 C 167.03125 334.371094 167.203125 334.160156 167.394531 333.972656 C 167.585938 333.78125 167.792969 333.609375 168.019531 333.460938 C 168.242188 333.308594 168.480469 333.183594 168.730469 333.078125 C 168.976562 332.976562 169.234375 332.898438 169.5 332.84375 C 169.765625 332.792969 170.03125 332.765625 170.304688 332.765625 C 170.574219 332.765625 170.839844 332.792969 171.105469 332.84375 C 171.371094 332.898438 171.628906 332.976562 171.878906 333.078125 C 172.128906 333.183594 172.363281 333.308594 172.589844 333.460938 C 172.8125 333.609375 173.019531 333.78125 173.210938 333.972656 C 173.402344 334.160156 173.574219 334.371094 173.722656 334.59375 C 173.875 334.820312 174 335.054688 174.105469 335.304688 C 174.207031 335.554688 174.285156 335.8125 174.339844 336.078125 C 174.390625 336.34375 174.417969 336.609375 174.417969 336.878906 Z M 174.417969 336.878906 " fill-opacity="1" fill-rule="nonzero"/><path fill="#897395" d="M 230.335938 153.777344 C 230.335938 154.046875 230.3125 154.316406 230.257812 154.582031 C 230.207031 154.84375 230.128906 155.101562 230.023438 155.351562 C 229.921875 155.601562 229.792969 155.839844 229.644531 156.0625 C 229.496094 156.289062 229.324219 156.496094 229.132812 156.6875 C 228.941406 156.878906 228.734375 157.046875 228.507812 157.199219 C 228.285156 157.347656 228.046875 157.476562 227.796875 157.578125 C 227.546875 157.683594 227.292969 157.761719 227.027344 157.8125 C 226.761719 157.867188 226.492188 157.890625 226.222656 157.890625 C 225.953125 157.890625 225.6875 157.867188 225.421875 157.8125 C 225.15625 157.761719 224.898438 157.683594 224.648438 157.578125 C 224.398438 157.476562 224.164062 157.347656 223.9375 157.199219 C 223.714844 157.046875 223.507812 156.878906 223.316406 156.6875 C 223.125 156.496094 222.953125 156.289062 222.804688 156.0625 C 222.652344 155.839844 222.527344 155.601562 222.421875 155.351562 C 222.320312 155.101562 222.242188 154.84375 222.1875 154.582031 C 222.136719 154.316406 222.109375 154.046875 222.109375 153.777344 C 222.109375 153.507812 222.136719 153.242188 222.1875 152.976562 C 222.242188 152.710938 222.320312 152.453125 222.421875 152.203125 C 222.527344 151.953125 222.652344 151.71875 222.804688 151.492188 C 222.953125 151.269531 223.125 151.058594 223.316406 150.867188 C 223.507812 150.679688 223.714844 150.507812 223.9375 150.359375 C 224.164062 150.207031 224.398438 150.082031 224.648438 149.976562 C 224.898438 149.875 225.15625 149.796875 225.421875 149.742188 C 225.6875 149.691406 225.953125 149.664062 226.222656 149.664062 C 226.492188 149.664062 226.761719 149.691406 227.027344 149.742188 C 227.292969 149.796875 227.546875 149.875 227.796875 149.976562 C 228.046875 150.082031 228.285156 150.207031 228.507812 150.359375 C 228.734375 150.507812 228.941406 150.679688 229.132812 150.867188 C 229.324219 151.058594 229.496094 151.269531 229.644531 151.492188 C 229.792969 151.71875 229.921875 151.953125 230.023438 152.203125 C 230.128906 152.453125 230.207031 152.710938 230.257812 152.976562 C 230.3125 153.242188 230.335938 153.507812 230.335938 153.777344 Z M 230.335938 153.777344 " fill-opacity="1" fill-rule="nonzero"/><path fill="#897395" d="M 111.316406 86.492188 C 111.316406 87.035156 111.261719 87.578125 111.15625 88.109375 C 111.050781 88.644531 110.890625 89.164062 110.683594 89.667969 C 110.472656 90.171875 110.21875 90.648438 109.917969 91.101562 C 109.613281 91.554688 109.269531 91.972656 108.882812 92.359375 C 108.5 92.746094 108.078125 93.089844 107.625 93.390625 C 107.175781 93.695312 106.695312 93.949219 106.191406 94.15625 C 105.6875 94.367188 105.171875 94.523438 104.636719 94.628906 C 104.101562 94.734375 103.5625 94.789062 103.015625 94.789062 C 102.472656 94.789062 101.933594 94.734375 101.398438 94.628906 C 100.863281 94.523438 100.34375 94.367188 99.839844 94.15625 C 99.339844 93.949219 98.859375 93.695312 98.40625 93.390625 C 97.953125 93.089844 97.535156 92.746094 97.148438 92.359375 C 96.765625 91.972656 96.421875 91.554688 96.117188 91.101562 C 95.816406 90.648438 95.558594 90.171875 95.351562 89.667969 C 95.144531 89.164062 94.984375 88.644531 94.878906 88.109375 C 94.773438 87.578125 94.71875 87.035156 94.71875 86.492188 C 94.71875 85.945312 94.773438 85.40625 94.878906 84.875 C 94.984375 84.339844 95.144531 83.820312 95.351562 83.316406 C 95.558594 82.8125 95.816406 82.335938 96.117188 81.882812 C 96.421875 81.429688 96.765625 81.011719 97.148438 80.625 C 97.535156 80.238281 97.953125 79.894531 98.40625 79.59375 C 98.859375 79.289062 99.339844 79.035156 99.839844 78.824219 C 100.34375 78.617188 100.863281 78.460938 101.398438 78.355469 C 101.933594 78.246094 102.472656 78.195312 103.015625 78.195312 C 103.5625 78.195312 104.101562 78.246094 104.636719 78.355469 C 105.171875 78.460938 105.6875 78.617188 106.191406 78.824219 C 106.695312 79.035156 107.175781 79.289062 107.625 79.59375 C 108.078125 79.894531 108.5 80.238281 108.882812 80.625 C 109.269531 81.011719 109.613281 81.429688 109.917969 81.882812 C 110.21875 82.335938 110.472656 82.8125 110.683594 83.316406 C 110.890625 83.820312 111.050781 84.339844 111.15625 84.875 C 111.261719 85.40625 111.316406 85.945312 111.316406 86.492188 Z M 111.316406 86.492188 " fill-opacity="1" fill-rule="nonzero"/><path fill="#897395" d="M 284.167969 100.4375 C 284.167969 101.164062 284.132812 101.890625 284.058594 102.617188 C 283.988281 103.34375 283.882812 104.0625 283.738281 104.777344 C 283.597656 105.492188 283.421875 106.195312 283.207031 106.894531 C 282.996094 107.589844 282.753906 108.277344 282.472656 108.949219 C 282.195312 109.621094 281.882812 110.28125 281.539062 110.921875 C 281.195312 111.566406 280.824219 112.1875 280.417969 112.792969 C 280.011719 113.398438 279.578125 113.984375 279.117188 114.546875 C 278.65625 115.109375 278.167969 115.648438 277.652344 116.164062 C 277.136719 116.679688 276.597656 117.167969 276.035156 117.632812 C 275.472656 118.09375 274.886719 118.527344 274.28125 118.929688 C 273.675781 119.335938 273.050781 119.710938 272.410156 120.054688 C 271.765625 120.398438 271.109375 120.707031 270.4375 120.988281 C 269.761719 121.265625 269.078125 121.511719 268.378906 121.722656 C 267.683594 121.933594 266.976562 122.109375 266.261719 122.253906 C 265.546875 122.394531 264.828125 122.5 264.105469 122.574219 C 263.378906 122.644531 262.652344 122.679688 261.925781 122.679688 C 261.195312 122.679688 260.46875 122.644531 259.742188 122.574219 C 259.019531 122.5 258.300781 122.394531 257.585938 122.253906 C 256.871094 122.109375 256.164062 121.933594 255.46875 121.722656 C 254.769531 121.511719 254.085938 121.265625 253.410156 120.988281 C 252.738281 120.707031 252.082031 120.398438 251.4375 120.054688 C 250.796875 119.710938 250.171875 119.335938 249.566406 118.929688 C 248.960938 118.527344 248.375 118.09375 247.8125 117.632812 C 247.25 117.167969 246.710938 116.679688 246.195312 116.164062 C 245.679688 115.648438 245.191406 115.109375 244.730469 114.546875 C 244.269531 113.984375 243.835938 113.398438 243.429688 112.792969 C 243.023438 112.1875 242.652344 111.566406 242.308594 110.921875 C 241.964844 110.28125 241.652344 109.621094 241.375 108.949219 C 241.09375 108.277344 240.851562 107.589844 240.640625 106.894531 C 240.425781 106.195312 240.25 105.492188 240.109375 104.777344 C 239.964844 104.0625 239.859375 103.34375 239.789062 102.617188 C 239.71875 101.890625 239.679688 101.164062 239.679688 100.4375 C 239.679688 99.707031 239.71875 98.980469 239.789062 98.257812 C 239.859375 97.53125 239.964844 96.8125 240.109375 96.097656 C 240.25 95.382812 240.425781 94.675781 240.640625 93.980469 C 240.851562 93.285156 241.09375 92.597656 241.375 91.925781 C 241.652344 91.253906 241.964844 90.59375 242.308594 89.953125 C 242.652344 89.308594 243.023438 88.683594 243.429688 88.078125 C 243.835938 87.472656 244.269531 86.890625 244.730469 86.328125 C 245.191406 85.761719 245.679688 85.222656 246.195312 84.710938 C 246.710938 84.195312 247.25 83.707031 247.8125 83.242188 C 248.375 82.78125 248.960938 82.347656 249.566406 81.941406 C 250.171875 81.539062 250.796875 81.164062 251.4375 80.820312 C 252.082031 80.476562 252.738281 80.167969 253.410156 79.886719 C 254.085938 79.609375 254.769531 79.363281 255.46875 79.152344 C 256.164062 78.941406 256.871094 78.765625 257.585938 78.621094 C 258.300781 78.480469 259.019531 78.371094 259.742188 78.300781 C 260.46875 78.230469 261.195312 78.195312 261.925781 78.195312 C 262.652344 78.195312 263.378906 78.230469 264.105469 78.300781 C 264.828125 78.371094 265.546875 78.480469 266.261719 78.621094 C 266.976562 78.765625 267.683594 78.941406 268.378906 79.152344 C 269.078125 79.363281 269.761719 79.609375 270.4375 79.886719 C 271.109375 80.167969 271.765625 80.476562 272.410156 80.820312 C 273.050781 81.164062 273.675781 81.539062 274.28125 81.941406 C 274.886719 82.347656 275.472656 82.78125 276.035156 83.242188 C 276.597656 83.707031 277.136719 84.195312 277.652344 84.710938 C 278.167969 85.222656 278.65625 85.761719 279.117188 86.328125 C 279.578125 86.890625 280.011719 87.472656 280.417969 88.078125 C 280.824219 88.683594 281.195312 89.308594 281.539062 89.953125 C 281.882812 90.59375 282.195312 91.253906 282.472656 91.925781 C 282.753906 92.597656 282.996094 93.285156 283.207031 93.980469 C 283.421875 94.675781 283.597656 95.382812 283.738281 96.097656 C 283.882812 96.8125 283.988281 97.53125 284.058594 98.257812 C 284.132812 98.980469 284.167969 99.707031 284.167969 100.4375 Z M 284.167969 100.4375 " fill-opacity="1" fill-rule="nonzero"/><path fill="#7a13bc" d="M 134.882812 111.871094 L 218.972656 111.871094 C 254.394531 111.871094 259.902344 134.183594 259.902344 152.800781 C 259.902344 176.71875 250.976562 205.167969 208.792969 205.167969 C 176.019531 205.167969 157.402344 180.203125 150.640625 152.105469 C 148.410156 142.761719 145.691406 115.078125 156.21875 112.152344 " fill-opacity="1" fill-rule="nonzero"/><path fill="#6c3a8d" d="M 208.792969 207.1875 C 179.367188 207.1875 156.914062 186.757812 148.6875 152.59375 C 147.433594 147.363281 143.808594 123.378906 150.710938 113.824219 L 134.882812 113.824219 C 133.765625 113.894531 132.859375 113.058594 132.71875 111.941406 C 132.582031 110.828125 133.488281 109.921875 134.601562 109.78125 C 134.671875 109.78125 134.8125 109.78125 134.882812 109.78125 L 218.972656 109.78125 C 247.839844 109.78125 261.925781 123.867188 261.925781 152.730469 C 261.925781 177.625 252.648438 207.1875 208.792969 207.1875 Z M 157.265625 113.894531 C 157.125 113.964844 156.914062 114.035156 156.777344 114.105469 C 148.757812 116.335938 149.804688 140.113281 152.664062 151.6875 C 160.402344 183.96875 181.460938 203.214844 208.863281 203.214844 C 249.441406 203.214844 257.949219 175.8125 257.949219 152.800781 C 257.949219 136.066406 253.90625 113.824219 218.972656 113.824219 L 157.265625 113.824219 Z M 157.265625 113.894531 " fill-opacity="1" fill-rule="nonzero"/><path fill="#7a13bc" d="M 143.039062 111.871094 L 59.019531 111.871094 C 23.597656 111.871094 18.089844 134.183594 18.089844 152.800781 C 18.089844 176.71875 27.015625 205.167969 69.199219 205.167969 C 101.972656 205.167969 120.589844 180.203125 127.351562 152.105469 C 129.582031 142.761719 132.300781 115.078125 121.773438 112.152344 " fill-opacity="1" fill-rule="nonzero"/><path fill="#6c3a8d" d="M 69.128906 207.1875 C 25.273438 207.1875 16.066406 177.625 16.066406 152.800781 C 16.066406 123.933594 30.152344 109.851562 59.019531 109.851562 L 143.109375 109.851562 C 144.226562 109.921875 145.0625 110.894531 144.992188 112.011719 C 144.921875 112.988281 144.15625 113.753906 143.109375 113.894531 L 127.28125 113.894531 C 134.183594 123.445312 130.558594 147.363281 129.375 152.664062 C 121.007812 186.828125 98.554688 207.1875 69.128906 207.1875 Z M 59.019531 113.894531 C 24.085938 113.894531 20.042969 136.136719 20.042969 152.871094 C 20.042969 175.882812 28.550781 203.285156 69.128906 203.285156 C 96.601562 203.285156 117.589844 184.039062 125.328125 151.757812 C 128.117188 140.179688 129.164062 116.40625 121.214844 114.171875 C 121.007812 114.105469 120.867188 114.035156 120.726562 113.964844 Z M 59.019531 113.894531 " fill-opacity="1" fill-rule="nonzero"/><path fill="#6c3a8d" d="M 148.269531 141.574219 L 129.023438 141.574219 C 127.910156 141.644531 127.003906 140.808594 126.863281 139.691406 C 126.722656 138.578125 127.628906 137.671875 128.746094 137.53125 C 128.816406 137.53125 128.957031 137.53125 129.023438 137.53125 L 148.269531 137.53125 C 149.386719 137.460938 150.292969 138.296875 150.429688 139.414062 C 150.5 140.53125 149.664062 141.4375 148.546875 141.574219 C 148.480469 141.644531 148.339844 141.644531 148.269531 141.574219 Z M 148.269531 141.574219 " fill-opacity="1" fill-rule="nonzero"/><path fill="#ffffff" d="M 29.316406 143.738281 C 28.96875 143.738281 28.617188 143.738281 28.269531 143.667969 C 25.621094 143.109375 23.878906 140.460938 24.433594 137.8125 C 26.734375 126.515625 36.011719 118.566406 48.769531 117.03125 C 51.488281 116.613281 54 118.496094 54.417969 121.214844 C 54.835938 123.933594 52.953125 126.445312 50.234375 126.863281 C 50.164062 126.863281 50.09375 126.863281 49.957031 126.863281 C 41.378906 127.910156 35.660156 132.582031 34.195312 139.691406 C 33.707031 141.996094 31.6875 143.738281 29.316406 143.738281 Z M 29.316406 143.738281 " fill-opacity="1" fill-rule="nonzero"/><path fill="#ffffff" d="M 182.574219 126.863281 L 160.820312 126.863281 C 158.101562 126.863281 155.871094 124.632812 155.871094 121.914062 C 155.871094 119.195312 158.101562 116.960938 160.820312 116.960938 L 182.574219 116.960938 C 185.292969 116.960938 187.527344 119.195312 187.527344 121.914062 C 187.527344 124.632812 185.292969 126.863281 182.574219 126.863281 Z M 182.574219 126.863281 " fill-opacity="1" fill-rule="nonzero"/><path fill="#000000" d="M 229.292969 101.832031 C 227.96875 101.832031 226.710938 101.34375 225.804688 100.367188 C 218.832031 93.464844 207.328125 90.257812 197.914062 92.558594 C 195.265625 93.253906 192.546875 91.582031 191.847656 88.933594 C 191.152344 86.28125 192.824219 83.5625 195.472656 82.867188 C 208.304688 79.660156 223.296875 83.910156 232.707031 93.1875 C 234.660156 95.136719 234.730469 98.277344 232.777344 100.226562 C 231.941406 101.273438 230.617188 101.832031 229.292969 101.832031 Z M 229.292969 101.832031 " fill-opacity="1" fill-rule="nonzero"/><path fill="#000000" d="M 48.628906 101.832031 C 45.910156 101.832031 43.679688 99.601562 43.679688 96.882812 C 43.679688 95.554688 44.238281 94.300781 45.144531 93.324219 C 54.625 83.910156 69.617188 79.796875 82.378906 83.003906 C 85.027344 83.703125 86.699219 86.351562 86.003906 89.070312 C 85.304688 91.722656 82.65625 93.394531 79.9375 92.699219 C 70.523438 90.328125 59.089844 93.535156 52.046875 100.507812 C 51.140625 101.273438 49.886719 101.832031 48.628906 101.832031 Z M 48.628906 101.832031 " fill-opacity="1" fill-rule="nonzero"/><path fill="#000000" d="M 138.996094 243.796875 C 126.585938 243.796875 114.171875 241.355469 105.875 236.542969 C 103.503906 235.148438 102.667969 232.152344 104.0625 229.710938 C 105.457031 227.339844 108.457031 226.503906 110.894531 227.898438 C 124.5625 235.777344 153.570312 235.777344 167.234375 227.898438 C 169.605469 226.503906 172.675781 227.339844 174.070312 229.710938 C 175.464844 232.082031 174.625 235.148438 172.253906 236.542969 C 163.75 241.355469 151.335938 243.796875 138.996094 243.796875 Z M 138.996094 243.796875 " fill-opacity="1" fill-rule="nonzero"/></svg>