<svg xmlns="http://www.w3.org/2000/svg" xmlns:xlink="http://www.w3.org/1999/xlink" width="500" zoomAndPan="magnify" viewBox="0 0 375 74.999997" height="100" preserveAspectRatio="xMidYMid meet" version="1.0"><defs><g/></defs><g fill="#f1f1f1" fill-opacity="1"><g transform="translate(0.802819, 67.427396)"><g><path d="M 8.09375 -51.578125 C 9.257812 -52.503906 11.113281 -53.523438 13.65625 -54.640625 C 16.195312 -55.753906 19.453125 -56.347656 23.421875 -56.421875 C 27.398438 -56.503906 30.765625 -56.070312 33.515625 -55.125 C 34.679688 -54.695312 35.710938 -54.375 36.609375 -54.15625 C 37.515625 -53.945312 38.148438 -53.800781 38.515625 -53.71875 C 38.890625 -53.644531 39.378906 -53.460938 39.984375 -53.171875 C 40.597656 -52.878906 41.378906 -52.414062 42.328125 -51.78125 C 43.753906 -50.832031 44.5625 -50.1875 44.75 -49.84375 C 44.9375 -49.5 44.789062 -48.898438 44.3125 -48.046875 C 43.84375 -47.097656 43.113281 -46.117188 42.125 -45.109375 C 41.144531 -44.109375 40.65625 -43.394531 40.65625 -42.96875 C 40.65625 -41.75 39.675781 -41.054688 37.71875 -40.890625 C 35.757812 -40.734375 33.378906 -41.132812 30.578125 -42.09375 C 28.085938 -42.9375 25.785156 -43.359375 23.671875 -43.359375 C 22.398438 -43.359375 21.484375 -43.253906 20.921875 -43.046875 C 20.367188 -42.835938 19.878906 -42.414062 19.453125 -41.78125 C 18.765625 -40.71875 18.554688 -39.972656 18.828125 -39.546875 C 18.984375 -39.285156 19.734375 -39.019531 21.078125 -38.75 C 22.429688 -38.488281 24.65625 -38.015625 27.75 -37.328125 C 30.851562 -36.640625 34.070312 -35.710938 37.40625 -34.546875 C 38.09375 -34.285156 38.117188 -33.863281 37.484375 -33.28125 C 36.953125 -32.851562 36.34375 -32.640625 35.65625 -32.640625 C 35.34375 -32.640625 35.078125 -32.53125 34.859375 -32.3125 C 34.648438 -32.101562 34.546875 -31.867188 34.546875 -31.609375 C 34.546875 -30.921875 35.472656 -30.65625 37.328125 -30.8125 C 38.492188 -30.914062 39.078125 -30.835938 39.078125 -30.578125 C 39.023438 -30.421875 38.921875 -30.234375 38.765625 -30.015625 C 38.015625 -29.117188 37.957031 -28.617188 38.59375 -28.515625 C 39.019531 -28.460938 39.601562 -28.617188 40.34375 -28.984375 C 42.519531 -30.148438 44.210938 -29.566406 45.421875 -27.234375 C 46.804688 -24.691406 46.941406 -21.597656 45.828125 -17.953125 C 45.503906 -16.992188 45.132812 -16.117188 44.71875 -15.328125 C 43.019531 -12.046875 40.53125 -9.648438 37.25 -8.140625 C 33.96875 -6.628906 29.707031 -5.898438 24.46875 -5.953125 C 20.070312 -6.003906 15.925781 -6.597656 12.03125 -7.734375 C 8.132812 -8.878906 5.023438 -10.429688 2.703125 -12.390625 L 0.796875 -13.90625 L 4.53125 -18.578125 C 6.96875 -21.648438 8.367188 -23.1875 8.734375 -23.1875 C 9.109375 -23.1875 10.671875 -22.5 13.421875 -21.125 C 15.328125 -20.175781 16.820312 -19.582031 17.90625 -19.34375 C 18.988281 -19.101562 20.9375 -18.984375 23.75 -18.984375 C 26.65625 -18.984375 28.425781 -19.046875 29.0625 -19.171875 C 29.695312 -19.304688 30.070312 -19.691406 30.1875 -20.328125 C 30.289062 -21.234375 29.929688 -21.960938 29.109375 -22.515625 C 28.285156 -23.066406 26.789062 -23.582031 24.625 -24.0625 C 17.945312 -25.539062 13.019531 -27.101562 9.84375 -28.75 C 6.664062 -30.394531 4.550781 -32.488281 3.5 -35.03125 C 3.175781 -35.820312 3.039062 -36.398438 3.09375 -36.765625 C 3.144531 -37.140625 3.410156 -37.617188 3.890625 -38.203125 C 4.472656 -38.785156 4.765625 -39.15625 4.765625 -39.3125 C 4.765625 -39.46875 4.523438 -39.65625 4.046875 -39.875 C 3.203125 -40.1875 2.859375 -41.082031 3.015625 -42.5625 C 3.171875 -44.050781 3.753906 -45.671875 4.765625 -47.421875 C 5.828125 -49.265625 6.9375 -50.648438 8.09375 -51.578125 Z M 10.046875 -38.59375 C 10.972656 -38.8125 11.4375 -39.117188 11.4375 -39.515625 C 11.4375 -39.910156 10.679688 -40.109375 9.171875 -40.109375 C 7.660156 -40.109375 6.800781 -39.921875 6.59375 -39.546875 C 6.488281 -39.335938 6.523438 -39.15625 6.703125 -39 C 6.890625 -38.84375 7.144531 -38.707031 7.46875 -38.59375 C 8.257812 -38.382812 9.117188 -38.382812 10.046875 -38.59375 Z M 15.28125 -38.84375 C 16.582031 -38.84375 17.234375 -39.050781 17.234375 -39.46875 C 17.234375 -39.894531 16.582031 -40.109375 15.28125 -40.109375 C 13.988281 -40.109375 13.34375 -39.894531 13.34375 -39.46875 C 13.34375 -39.050781 13.988281 -38.84375 15.28125 -38.84375 Z M 32.796875 -33.203125 C 33.273438 -33.515625 33.394531 -33.867188 33.15625 -34.265625 C 32.914062 -34.660156 32.488281 -34.859375 31.875 -34.859375 C 31.269531 -34.859375 30.835938 -34.648438 30.578125 -34.234375 C 30.421875 -33.960938 30.472656 -33.707031 30.734375 -33.46875 C 31.003906 -33.238281 31.335938 -33.09375 31.734375 -33.03125 C 32.128906 -32.976562 32.484375 -33.035156 32.796875 -33.203125 Z M 32.796875 -33.203125 "/></g></g></g><g fill="#f1f1f1" fill-opacity="1"><g transform="translate(48.050548, 67.427396)"><g><path d="M 10.25 -36.53125 C 10.25 -36.582031 10.019531 -37.140625 9.5625 -38.203125 C 9.113281 -39.265625 8.972656 -40.03125 9.140625 -40.5 C 9.296875 -40.875 10.019531 -41.113281 11.3125 -41.21875 C 12.613281 -41.320312 15.117188 -41.375 18.828125 -41.375 C 23.328125 -41.375 26.1875 -41.296875 27.40625 -41.140625 C 28.625 -40.984375 30.078125 -40.476562 31.765625 -39.625 C 34.097656 -38.414062 35.953125 -36.800781 37.328125 -34.78125 L 39.390625 -31.6875 L 39.234375 -3.96875 L 35.34375 -3.8125 C 33.539062 -3.707031 32.347656 -3.742188 31.765625 -3.921875 C 31.179688 -4.109375 30.363281 -4.707031 29.3125 -5.71875 C 28.457031 -6.507812 27.78125 -7.007812 27.28125 -7.21875 C 26.78125 -7.4375 26.421875 -7.453125 26.203125 -7.265625 C 25.992188 -7.078125 25.664062 -6.863281 25.21875 -6.625 C 24.769531 -6.394531 24.253906 -6.28125 23.671875 -6.28125 C 23.085938 -6.28125 22.265625 -5.851562 21.203125 -5 C 20.140625 -4.15625 18.84375 -3.535156 17.3125 -3.140625 C 15.78125 -2.742188 14.191406 -2.570312 12.546875 -2.625 C 10.910156 -2.675781 9.296875 -2.953125 7.703125 -3.453125 C 6.117188 -3.953125 4.753906 -4.742188 3.609375 -5.828125 C 2.472656 -6.921875 1.648438 -8.300781 1.140625 -9.96875 C 0.640625 -11.632812 0.65625 -13.609375 1.1875 -15.890625 C 1.71875 -18.109375 2.273438 -19.707031 2.859375 -20.6875 C 3.441406 -21.664062 4.421875 -22.609375 5.796875 -23.515625 C 6.960938 -24.253906 8.0625 -24.703125 9.09375 -24.859375 C 10.125 -25.015625 12.46875 -25.09375 16.125 -25.09375 C 19.664062 -25.09375 21.847656 -25.160156 22.671875 -25.296875 C 23.492188 -25.429688 23.90625 -25.757812 23.90625 -26.28125 C 23.90625 -27.082031 23.613281 -27.878906 23.03125 -28.671875 C 22.34375 -29.566406 20.445312 -30.171875 17.34375 -30.484375 C 14.25 -30.804688 11.800781 -30.648438 10 -30.015625 C 8.207031 -29.378906 7.097656 -29.300781 6.671875 -29.78125 C 6.296875 -30.15625 5.832031 -31.238281 5.28125 -33.03125 C 4.726562 -34.832031 4.425781 -36.160156 4.375 -37.015625 C 4.375 -37.703125 4.675781 -38.054688 5.28125 -38.078125 C 5.882812 -38.109375 6.453125 -37.804688 6.984375 -37.171875 C 7.253906 -36.898438 7.648438 -36.660156 8.171875 -36.453125 C 8.703125 -36.242188 9.179688 -36.140625 9.609375 -36.140625 C 10.035156 -36.140625 10.25 -36.269531 10.25 -36.53125 Z M 21.046875 -20.484375 C 18.609375 -21.867188 17.207031 -22.5625 16.84375 -22.5625 C 16.257812 -22.5625 15.882812 -22.296875 15.71875 -21.765625 C 15.5625 -21.234375 15.695312 -20.703125 16.125 -20.171875 C 16.65625 -19.535156 16.679688 -18.660156 16.203125 -17.546875 C 15.722656 -16.546875 15.484375 -15.53125 15.484375 -14.5 C 15.484375 -13.46875 15.722656 -12.710938 16.203125 -12.234375 C 16.785156 -11.648438 17.972656 -11.382812 19.765625 -11.4375 C 21.566406 -11.488281 22.707031 -11.804688 23.1875 -12.390625 C 23.769531 -13.023438 24.164062 -14.191406 24.375 -15.890625 C 24.539062 -17.160156 24.476562 -17.992188 24.1875 -18.390625 C 23.894531 -18.785156 22.847656 -19.484375 21.046875 -20.484375 Z M 35.9375 -19.9375 C 36.601562 -19.9375 36.9375 -20.144531 36.9375 -20.5625 C 36.9375 -20.988281 36.601562 -21.203125 35.9375 -21.203125 C 35.28125 -21.203125 34.953125 -20.988281 34.953125 -20.5625 C 34.953125 -20.144531 35.28125 -19.9375 35.9375 -19.9375 Z M 36.296875 -18.1875 C 36.984375 -18.664062 37.222656 -18.929688 37.015625 -18.984375 C 36.910156 -19.035156 36.457031 -19.085938 35.65625 -19.140625 C 34.226562 -19.191406 33.566406 -18.953125 33.671875 -18.421875 C 33.671875 -18.160156 33.882812 -17.894531 34.3125 -17.625 C 34.738281 -17.363281 35.398438 -17.550781 36.296875 -18.1875 Z M 36.296875 -18.1875 "/></g></g></g><g fill="#f1f1f1" fill-opacity="1"><g transform="translate(88.230977, 67.427396)"><g><path d="M 0.875 -18.265625 C 0.769531 -30.441406 0.796875 -36.769531 0.953125 -37.25 C 1.109375 -37.726562 3.648438 -37.941406 8.578125 -37.890625 L 15.96875 -37.71875 L 16.203125 -35.03125 C 16.304688 -33.4375 16.539062 -32.5625 16.90625 -32.40625 C 17.28125 -32.25 17.867188 -32.75 18.671875 -33.90625 C 19.410156 -35.070312 20.570312 -36.078125 22.15625 -36.921875 C 23.75 -37.773438 25.125 -38.148438 26.28125 -38.046875 L 28.359375 -37.8125 L 28.515625 -30.1875 C 28.617188 -26.632812 28.617188 -24.445312 28.515625 -23.625 C 28.410156 -22.800781 28.039062 -22.207031 27.40625 -21.84375 C 26.5 -21.363281 25.835938 -21.253906 25.421875 -21.515625 C 25.046875 -21.785156 24.007812 -21.492188 22.3125 -20.640625 C 20.625 -19.796875 19.460938 -19.003906 18.828125 -18.265625 C 17.128906 -16.203125 16.28125 -12.234375 16.28125 -6.359375 C 16.28125 -2.378906 16.066406 -0.390625 15.640625 -0.390625 C 15.273438 -0.390625 15.035156 -1.328125 14.921875 -3.203125 C 14.816406 -5.085938 14.738281 -7.050781 14.6875 -9.09375 C 14.632812 -11.132812 14.453125 -12.285156 14.140625 -12.546875 C 13.816406 -12.816406 13.65625 -13.425781 13.65625 -14.375 C 13.65625 -15.0625 13.40625 -15.773438 12.90625 -16.515625 C 12.40625 -17.253906 12.128906 -17.890625 12.078125 -18.421875 C 11.960938 -20.171875 11.851562 -21.296875 11.75 -21.796875 C 11.644531 -22.304688 11.460938 -22.5625 11.203125 -22.5625 C 10.722656 -22.5625 10.242188 -22.082031 9.765625 -21.125 C 9.347656 -20.382812 9.347656 -19.507812 9.765625 -18.5 C 10.191406 -17.5 10.628906 -16.492188 11.078125 -15.484375 C 11.523438 -14.484375 11.539062 -13.582031 11.125 -12.78125 C 10.75 -12.257812 10.625 -11.664062 10.75 -11 C 10.882812 -10.332031 11.109375 -9.773438 11.421875 -9.328125 C 11.742188 -8.878906 12.035156 -8.082031 12.296875 -6.9375 C 12.566406 -5.800781 12.648438 -4.519531 12.546875 -3.09375 L 12.234375 0.3125 L 1.03125 -0.078125 Z M 0.875 -18.265625 "/></g></g></g><g fill="#f1f1f1" fill-opacity="1"><g transform="translate(117.611915, 67.427396)"><g><path d="M 10.25 -36.53125 C 10.25 -36.582031 10.019531 -37.140625 9.5625 -38.203125 C 9.113281 -39.265625 8.972656 -40.03125 9.140625 -40.5 C 9.296875 -40.875 10.019531 -41.113281 11.3125 -41.21875 C 12.613281 -41.320312 15.117188 -41.375 18.828125 -41.375 C 23.328125 -41.375 26.1875 -41.296875 27.40625 -41.140625 C 28.625 -40.984375 30.078125 -40.476562 31.765625 -39.625 C 34.097656 -38.414062 35.953125 -36.800781 37.328125 -34.78125 L 39.390625 -31.6875 L 39.234375 -3.96875 L 35.34375 -3.8125 C 33.539062 -3.707031 32.347656 -3.742188 31.765625 -3.921875 C 31.179688 -4.109375 30.363281 -4.707031 29.3125 -5.71875 C 28.457031 -6.507812 27.78125 -7.007812 27.28125 -7.21875 C 26.78125 -7.4375 26.421875 -7.453125 26.203125 -7.265625 C 25.992188 -7.078125 25.664062 -6.863281 25.21875 -6.625 C 24.769531 -6.394531 24.253906 -6.28125 23.671875 -6.28125 C 23.085938 -6.28125 22.265625 -5.851562 21.203125 -5 C 20.140625 -4.15625 18.84375 -3.535156 17.3125 -3.140625 C 15.78125 -2.742188 14.191406 -2.570312 12.546875 -2.625 C 10.910156 -2.675781 9.296875 -2.953125 7.703125 -3.453125 C 6.117188 -3.953125 4.753906 -4.742188 3.609375 -5.828125 C 2.472656 -6.921875 1.648438 -8.300781 1.140625 -9.96875 C 0.640625 -11.632812 0.65625 -13.609375 1.1875 -15.890625 C 1.71875 -18.109375 2.273438 -19.707031 2.859375 -20.6875 C 3.441406 -21.664062 4.421875 -22.609375 5.796875 -23.515625 C 6.960938 -24.253906 8.0625 -24.703125 9.09375 -24.859375 C 10.125 -25.015625 12.46875 -25.09375 16.125 -25.09375 C 19.664062 -25.09375 21.847656 -25.160156 22.671875 -25.296875 C 23.492188 -25.429688 23.90625 -25.757812 23.90625 -26.28125 C 23.90625 -27.082031 23.613281 -27.878906 23.03125 -28.671875 C 22.34375 -29.566406 20.445312 -30.171875 17.34375 -30.484375 C 14.25 -30.804688 11.800781 -30.648438 10 -30.015625 C 8.207031 -29.378906 7.097656 -29.300781 6.671875 -29.78125 C 6.296875 -30.15625 5.832031 -31.238281 5.28125 -33.03125 C 4.726562 -34.832031 4.425781 -36.160156 4.375 -37.015625 C 4.375 -37.703125 4.675781 -38.054688 5.28125 -38.078125 C 5.882812 -38.109375 6.453125 -37.804688 6.984375 -37.171875 C 7.253906 -36.898438 7.648438 -36.660156 8.171875 -36.453125 C 8.703125 -36.242188 9.179688 -36.140625 9.609375 -36.140625 C 10.035156 -36.140625 10.25 -36.269531 10.25 -36.53125 Z M 21.046875 -20.484375 C 18.609375 -21.867188 17.207031 -22.5625 16.84375 -22.5625 C 16.257812 -22.5625 15.882812 -22.296875 15.71875 -21.765625 C 15.5625 -21.234375 15.695312 -20.703125 16.125 -20.171875 C 16.65625 -19.535156 16.679688 -18.660156 16.203125 -17.546875 C 15.722656 -16.546875 15.484375 -15.53125 15.484375 -14.5 C 15.484375 -13.46875 15.722656 -12.710938 16.203125 -12.234375 C 16.785156 -11.648438 17.972656 -11.382812 19.765625 -11.4375 C 21.566406 -11.488281 22.707031 -11.804688 23.1875 -12.390625 C 23.769531 -13.023438 24.164062 -14.191406 24.375 -15.890625 C 24.539062 -17.160156 24.476562 -17.992188 24.1875 -18.390625 C 23.894531 -18.785156 22.847656 -19.484375 21.046875 -20.484375 Z M 35.9375 -19.9375 C 36.601562 -19.9375 36.9375 -20.144531 36.9375 -20.5625 C 36.9375 -20.988281 36.601562 -21.203125 35.9375 -21.203125 C 35.28125 -21.203125 34.953125 -20.988281 34.953125 -20.5625 C 34.953125 -20.144531 35.28125 -19.9375 35.9375 -19.9375 Z M 36.296875 -18.1875 C 36.984375 -18.664062 37.222656 -18.929688 37.015625 -18.984375 C 36.910156 -19.035156 36.457031 -19.085938 35.65625 -19.140625 C 34.226562 -19.191406 33.566406 -18.953125 33.671875 -18.421875 C 33.671875 -18.160156 33.882812 -17.894531 34.3125 -17.625 C 34.738281 -17.363281 35.398438 -17.550781 36.296875 -18.1875 Z M 36.296875 -18.1875 "/></g></g></g><g fill="#f1f1f1" fill-opacity="1"><g transform="translate(157.792345, 67.427396)"><g/></g></g><g fill="#f1f1f1" fill-opacity="1"><g transform="translate(191.143689, 67.427396)"><g><path d="M 23.03125 -7.3125 C 24.300781 -7.945312 25.675781 -8.171875 27.15625 -7.984375 C 28.644531 -7.796875 29.390625 -7.304688 29.390625 -6.515625 C 29.390625 -5.878906 28.09375 -5.5625 25.5 -5.5625 C 22.84375 -5.5625 21.570312 -5.800781 21.6875 -6.28125 C 21.738281 -6.539062 22.1875 -6.882812 23.03125 -7.3125 Z M 32 -8.1875 C 33.21875 -9.132812 34.835938 -9.582031 36.859375 -9.53125 C 37.960938 -9.425781 38.460938 -9.132812 38.359375 -8.65625 C 38.203125 -8.125 37.195312 -7.566406 35.34375 -6.984375 C 33.488281 -6.398438 32.191406 -6.242188 31.453125 -6.515625 C 31.242188 -6.617188 31.082031 -6.707031 30.96875 -6.78125 C 30.863281 -6.863281 30.820312 -6.972656 30.84375 -7.109375 C 30.875 -7.242188 30.984375 -7.390625 31.171875 -7.546875 C 31.359375 -7.703125 31.632812 -7.914062 32 -8.1875 Z M 33.28125 -20.96875 C 32.851562 -21.175781 32.757812 -21.492188 33 -21.921875 C 33.238281 -22.347656 33.570312 -22.425781 34 -22.15625 C 34.207031 -22 34.3125 -21.785156 34.3125 -21.515625 C 34.3125 -21.253906 34.203125 -21.054688 33.984375 -20.921875 C 33.773438 -20.796875 33.539062 -20.8125 33.28125 -20.96875 Z M 21.921875 -55.671875 C 32.515625 -56.835938 40.378906 -54.269531 45.515625 -47.96875 C 46.992188 -46.164062 47.851562 -44.84375 48.09375 -44 C 48.332031 -43.15625 48.023438 -42.570312 47.171875 -42.25 C 46.640625 -42.09375 45.710938 -41.585938 44.390625 -40.734375 C 43.066406 -39.890625 42.195312 -39.46875 41.78125 -39.46875 C 41.300781 -39.46875 40.347656 -38.914062 38.921875 -37.8125 C 37.597656 -36.800781 36.679688 -36.296875 36.171875 -36.296875 C 35.671875 -36.296875 34.914062 -36.828125 33.90625 -37.890625 C 32.164062 -39.734375 30.222656 -40.867188 28.078125 -41.296875 C 25.929688 -41.722656 23.957031 -41.390625 22.15625 -40.296875 C 20.351562 -39.210938 19.03125 -37.507812 18.1875 -35.1875 C 17.394531 -33.007812 17 -31.445312 17 -30.5 C 17 -29.914062 16.914062 -29.539062 16.75 -29.375 C 16.59375 -29.21875 16.25 -29.222656 15.71875 -29.390625 C 15.03125 -29.597656 14.617188 -29.539062 14.484375 -29.21875 C 14.359375 -28.90625 14.585938 -28.484375 15.171875 -27.953125 C 15.648438 -27.472656 15.726562 -27 15.40625 -26.53125 C 15.039062 -25.84375 14.539062 -25.613281 13.90625 -25.84375 C 13.269531 -26.082031 12.6875 -26.679688 12.15625 -27.640625 C 11.625 -28.703125 11 -29.5625 10.28125 -30.21875 C 9.570312 -30.882812 9.054688 -31.054688 8.734375 -30.734375 C 8.578125 -30.578125 8.671875 -30.242188 9.015625 -29.734375 C 9.359375 -29.234375 9.703125 -28.769531 10.046875 -28.34375 C 10.390625 -27.925781 10.484375 -27.691406 10.328125 -27.640625 L 9.046875 -27.484375 C 8.679688 -27.429688 8.484375 -27.070312 8.453125 -26.40625 C 8.429688 -25.75 8.234375 -25.179688 7.859375 -24.703125 C 7.441406 -24.222656 7.296875 -23.769531 7.421875 -23.34375 C 7.554688 -22.925781 7.859375 -22.703125 8.328125 -22.671875 C 8.804688 -22.648438 9.363281 -22.796875 10 -23.109375 C 10.957031 -23.691406 11.515625 -23.742188 11.671875 -23.265625 C 11.828125 -22.796875 12.273438 -22.5625 13.015625 -22.5625 C 13.765625 -22.5625 14.378906 -22.796875 14.859375 -23.265625 C 15.273438 -23.640625 16 -23.613281 17.03125 -23.1875 C 18.0625 -22.769531 19.539062 -22.160156 21.46875 -21.359375 C 23.40625 -20.566406 25.300781 -20.09375 27.15625 -19.9375 C 28.90625 -19.78125 29.976562 -19.609375 30.375 -19.421875 C 30.769531 -19.234375 30.941406 -18.847656 30.890625 -18.265625 C 30.785156 -17.316406 31.59375 -16.21875 33.3125 -14.96875 C 35.039062 -13.726562 36.191406 -13.398438 36.765625 -13.984375 C 37.140625 -14.296875 37.257812 -14.570312 37.125 -14.8125 C 37 -15.050781 36.773438 -15.222656 36.453125 -15.328125 C 36.140625 -15.429688 35.875 -15.664062 35.65625 -16.03125 C 35.445312 -16.40625 35.421875 -16.882812 35.578125 -17.46875 C 35.898438 -18.476562 36.113281 -19.035156 36.21875 -19.140625 C 36.320312 -19.242188 37.0625 -18.832031 38.4375 -17.90625 C 39.8125 -16.976562 40.867188 -16.171875 41.609375 -15.484375 C 42.191406 -14.953125 42.566406 -14.6875 42.734375 -14.6875 C 43.421875 -14.6875 42.890625 -15.695312 41.140625 -17.71875 C 39.441406 -19.675781 38.488281 -20.914062 38.28125 -21.4375 C 38.226562 -21.707031 38.148438 -21.90625 38.046875 -22.03125 C 37.941406 -22.164062 37.832031 -22.257812 37.71875 -22.3125 C 37.613281 -22.363281 37.535156 -22.363281 37.484375 -22.3125 C 37.171875 -22.050781 36.722656 -22.15625 36.140625 -22.625 C 35.554688 -23.101562 35.265625 -23.632812 35.265625 -24.21875 C 35.265625 -25.28125 35.976562 -25.414062 37.40625 -24.625 C 37.832031 -24.40625 38.253906 -24.140625 38.671875 -23.828125 C 39.785156 -22.984375 40.710938 -22.5625 41.453125 -22.5625 C 42.941406 -22.5625 44.347656 -21.660156 45.671875 -19.859375 C 46.890625 -18.160156 47.019531 -17.046875 46.0625 -16.515625 C 46.007812 -16.460938 45.957031 -16.410156 45.90625 -16.359375 C 45.644531 -16.253906 45.445312 -16.082031 45.3125 -15.84375 C 45.175781 -15.601562 45.160156 -15.351562 45.265625 -15.09375 C 45.484375 -14.457031 45.285156 -13.941406 44.671875 -13.546875 C 44.066406 -13.148438 43.164062 -12.867188 41.96875 -12.703125 C 40.78125 -12.546875 39.550781 -12.425781 38.28125 -12.34375 C 37.007812 -12.269531 35.765625 -12.164062 34.546875 -12.03125 C 33.328125 -11.894531 32.476562 -11.695312 32 -11.4375 C 31.425781 -11.113281 30.847656 -11.148438 30.265625 -11.546875 C 29.679688 -11.953125 29.390625 -12.5 29.390625 -13.1875 C 29.390625 -13.445312 29.269531 -13.65625 29.03125 -13.8125 C 28.789062 -13.976562 28.507812 -14.0625 28.1875 -14.0625 C 27.34375 -14.0625 26.65625 -14.390625 26.125 -15.046875 C 25.59375 -15.710938 23.960938 -16.046875 21.234375 -16.046875 C 18.515625 -16.046875 17.0625 -16.304688 16.875 -16.828125 C 16.6875 -17.359375 16.410156 -17.46875 16.046875 -17.15625 C 15.617188 -16.78125 15.601562 -16.273438 16 -15.640625 C 16.394531 -15.003906 16.910156 -14.6875 17.546875 -14.6875 C 18.179688 -14.6875 19.609375 -14.378906 21.828125 -13.765625 C 24.054688 -13.160156 25.890625 -12.570312 27.328125 -12 C 28.535156 -11.519531 28.820312 -11.066406 28.1875 -10.640625 C 27.820312 -10.328125 27.1875 -10.171875 26.28125 -10.171875 C 25.226562 -10.222656 23.878906 -10.15625 22.234375 -9.96875 C 20.597656 -9.78125 19.179688 -9.609375 17.984375 -9.453125 C 16.796875 -9.296875 15.710938 -9.242188 14.734375 -9.296875 C 13.753906 -9.347656 13.160156 -9.554688 12.953125 -9.921875 C 12.578125 -10.503906 12.175781 -10.664062 11.75 -10.40625 C 11.4375 -10.195312 10.617188 -10.644531 9.296875 -11.75 C 7.972656 -12.863281 7.3125 -13.6875 7.3125 -14.21875 C 7.3125 -14.53125 6.460938 -15.695312 4.765625 -17.71875 C 2.378906 -20.625 1.820312 -22.394531 3.09375 -23.03125 C 3.363281 -23.132812 3.707031 -23.210938 4.125 -23.265625 C 4.550781 -23.316406 4.921875 -23.472656 5.234375 -23.734375 C 5.554688 -24.003906 5.742188 -24.300781 5.796875 -24.625 C 5.898438 -25.09375 5.804688 -25.40625 5.515625 -25.5625 C 5.222656 -25.726562 4.65625 -25.8125 3.8125 -25.8125 C 2.800781 -25.8125 2.148438 -25.914062 1.859375 -26.125 C 1.566406 -26.34375 1.316406 -26.898438 1.109375 -27.796875 C 0.523438 -30.972656 0.710938 -34.3125 1.671875 -37.8125 C 2.941406 -42.46875 5.492188 -46.472656 9.328125 -49.828125 C 13.171875 -53.191406 17.367188 -55.140625 21.921875 -55.671875 Z M 13.8125 -19.9375 C 13.5 -19.9375 13.179688 -20 12.859375 -20.125 C 12.546875 -20.257812 12.296875 -20.40625 12.109375 -20.5625 C 11.921875 -20.726562 11.75 -20.863281 11.59375 -20.96875 C 11.4375 -21.070312 11.304688 -21.070312 11.203125 -20.96875 C 11.097656 -20.863281 10.960938 -20.648438 10.796875 -20.328125 C 10.328125 -19.054688 10.59375 -18.128906 11.59375 -17.546875 C 12.601562 -16.960938 13.742188 -17.097656 15.015625 -17.953125 C 15.597656 -18.265625 15.742188 -18.671875 15.453125 -19.171875 C 15.160156 -19.679688 14.613281 -19.9375 13.8125 -19.9375 Z M 22.875 -18.671875 C 22.875 -18.929688 22.726562 -19.113281 22.4375 -19.21875 C 22.144531 -19.320312 21.8125 -19.320312 21.4375 -19.21875 C 21.070312 -19.113281 20.78125 -18.898438 20.5625 -18.578125 C 20.300781 -18.109375 20.273438 -17.765625 20.484375 -17.546875 C 20.703125 -17.335938 21.15625 -17.390625 21.84375 -17.703125 C 22.53125 -18.023438 22.875 -18.347656 22.875 -18.671875 Z M 29.3125 -18.03125 C 28.9375 -18.289062 28.492188 -18.460938 27.984375 -18.546875 C 27.484375 -18.628906 27.046875 -18.628906 26.671875 -18.546875 C 26.304688 -18.460938 26.125 -18.289062 26.125 -18.03125 C 26.125 -17.65625 26.679688 -17.320312 27.796875 -17.03125 C 28.910156 -16.738281 29.625 -16.726562 29.9375 -17 C 30.207031 -17.257812 30 -17.601562 29.3125 -18.03125 Z M 29.3125 -18.03125 "/></g></g></g><g fill="#f1f1f1" fill-opacity="1"><g transform="translate(240.138393, 67.427396)"><g><path d="M 0.875 -18.265625 C 0.769531 -30.441406 0.796875 -36.769531 0.953125 -37.25 C 1.109375 -37.726562 3.648438 -37.941406 8.578125 -37.890625 L 15.96875 -37.71875 L 16.203125 -35.03125 C 16.304688 -33.4375 16.539062 -32.5625 16.90625 -32.40625 C 17.28125 -32.25 17.867188 -32.75 18.671875 -33.90625 C 19.410156 -35.070312 20.570312 -36.078125 22.15625 -36.921875 C 23.75 -37.773438 25.125 -38.148438 26.28125 -38.046875 L 28.359375 -37.8125 L 28.515625 -30.1875 C 28.617188 -26.632812 28.617188 -24.445312 28.515625 -23.625 C 28.410156 -22.800781 28.039062 -22.207031 27.40625 -21.84375 C 26.5 -21.363281 25.835938 -21.253906 25.421875 -21.515625 C 25.046875 -21.785156 24.007812 -21.492188 22.3125 -20.640625 C 20.625 -19.796875 19.460938 -19.003906 18.828125 -18.265625 C 17.128906 -16.203125 16.28125 -12.234375 16.28125 -6.359375 C 16.28125 -2.378906 16.066406 -0.390625 15.640625 -0.390625 C 15.273438 -0.390625 15.035156 -1.328125 14.921875 -3.203125 C 14.816406 -5.085938 14.738281 -7.050781 14.6875 -9.09375 C 14.632812 -11.132812 14.453125 -12.285156 14.140625 -12.546875 C 13.816406 -12.816406 13.65625 -13.425781 13.65625 -14.375 C 13.65625 -15.0625 13.40625 -15.773438 12.90625 -16.515625 C 12.40625 -17.253906 12.128906 -17.890625 12.078125 -18.421875 C 11.960938 -20.171875 11.851562 -21.296875 11.75 -21.796875 C 11.644531 -22.304688 11.460938 -22.5625 11.203125 -22.5625 C 10.722656 -22.5625 10.242188 -22.082031 9.765625 -21.125 C 9.347656 -20.382812 9.347656 -19.507812 9.765625 -18.5 C 10.191406 -17.5 10.628906 -16.492188 11.078125 -15.484375 C 11.523438 -14.484375 11.539062 -13.582031 11.125 -12.78125 C 10.75 -12.257812 10.625 -11.664062 10.75 -11 C 10.882812 -10.332031 11.109375 -9.773438 11.421875 -9.328125 C 11.742188 -8.878906 12.035156 -8.082031 12.296875 -6.9375 C 12.566406 -5.800781 12.648438 -4.519531 12.546875 -3.09375 L 12.234375 0.3125 L 1.03125 -0.078125 Z M 0.875 -18.265625 "/></g></g></g><g fill="#f1f1f1" fill-opacity="1"><g transform="translate(269.519344, 67.427396)"><g><path d="M 13.984375 -36.765625 C 15.617188 -37.347656 17.03125 -37.71875 18.21875 -37.875 C 19.414062 -38.039062 21.070312 -38.070312 23.1875 -37.96875 C 25.945312 -37.800781 28.28125 -37.375 30.1875 -36.6875 C 32.09375 -36 34.128906 -34.8125 36.296875 -33.125 C 38.992188 -31.050781 40.882812 -28.160156 41.96875 -24.453125 C 43.0625 -20.753906 43.128906 -17 42.171875 -13.1875 C 41.222656 -9.6875 39.410156 -6.71875 36.734375 -4.28125 C 34.054688 -1.851562 31.035156 -0.203125 27.671875 0.671875 C 24.316406 1.546875 20.757812 1.625 17 0.90625 C 13.238281 0.195312 9.875 -1.375 6.90625 -3.8125 C 4.789062 -5.613281 3.296875 -7.476562 2.421875 -9.40625 C 1.546875 -11.34375 1.03125 -14.03125 0.875 -17.46875 C 0.769531 -20.007812 0.796875 -21.769531 0.953125 -22.75 C 1.109375 -23.726562 1.53125 -24.960938 2.21875 -26.453125 C 3.332031 -28.671875 4.945312 -30.707031 7.0625 -32.5625 C 9.1875 -34.414062 11.492188 -35.816406 13.984375 -36.765625 Z M 26.28125 -22.71875 C 25.539062 -23.40625 24.835938 -23.867188 24.171875 -24.109375 C 23.515625 -24.347656 22.578125 -24.46875 21.359375 -24.46875 C 20.085938 -24.46875 19.203125 -24.359375 18.703125 -24.140625 C 18.203125 -23.929688 17.710938 -23.484375 17.234375 -22.796875 C 16.546875 -21.679688 16.039062 -20.171875 15.71875 -18.265625 C 15.507812 -16.941406 15.5 -16.023438 15.6875 -15.515625 C 15.875 -15.015625 16.519531 -14.238281 17.625 -13.1875 C 18.738281 -12.019531 19.929688 -11.300781 21.203125 -11.03125 C 22.472656 -10.769531 23.609375 -10.890625 24.609375 -11.390625 C 25.617188 -11.898438 26.453125 -12.773438 27.109375 -14.015625 C 27.773438 -15.265625 28.109375 -16.734375 28.109375 -18.421875 C 28.109375 -19.378906 27.976562 -20.160156 27.71875 -20.765625 C 27.457031 -21.378906 26.976562 -22.03125 26.28125 -22.71875 Z M 26.28125 -22.71875 "/></g></g></g><g fill="#f1f1f1" fill-opacity="1"><g transform="translate(313.114303, 67.427396)"><g><path d="M 7.46875 -16.671875 C 8.257812 -16.992188 10.519531 -17.070312 14.25 -16.90625 C 17.988281 -16.75 20.039062 -16.488281 20.40625 -16.125 C 20.675781 -15.851562 20.890625 -13.550781 21.046875 -9.21875 L 21.203125 -2.703125 L 6.03125 -2.296875 L 6.03125 -9.21875 C 6.03125 -12.445312 6.097656 -14.429688 6.234375 -15.171875 C 6.367188 -15.910156 6.78125 -16.410156 7.46875 -16.671875 Z M 17.390625 -53.921875 C 18.710938 -54.085938 20.679688 -54.0625 23.296875 -53.84375 C 25.921875 -53.632812 27.6875 -53.367188 28.59375 -53.046875 C 29.28125 -52.835938 29.6875 -52.46875 29.8125 -51.9375 C 29.945312 -51.40625 29.988281 -50.132812 29.9375 -48.125 L 29.78125 -43.6875 L 26.453125 -43.6875 C 24.804688 -43.632812 23.46875 -43.367188 22.4375 -42.890625 C 21.40625 -42.410156 20.992188 -41.828125 21.203125 -41.140625 C 21.359375 -40.660156 22.816406 -40.316406 25.578125 -40.109375 L 29.78125 -39.796875 L 29.859375 -35.109375 C 29.960938 -31.984375 29.75 -30.191406 29.21875 -29.734375 C 28.695312 -29.285156 27.347656 -29.007812 25.171875 -28.90625 C 23.796875 -28.800781 22.910156 -28.640625 22.515625 -28.421875 C 22.117188 -28.210938 21.816406 -27.765625 21.609375 -27.078125 C 21.335938 -25.972656 20.726562 -25.207031 19.78125 -24.78125 C 18.082031 -24.039062 18.082031 -23.429688 19.78125 -22.953125 C 20.675781 -22.691406 21.019531 -22.296875 20.8125 -21.765625 C 20.644531 -21.179688 18.3125 -20.890625 13.8125 -20.890625 C 9.3125 -20.890625 6.984375 -21.15625 6.828125 -21.6875 C 6.722656 -21.945312 6.828125 -22.128906 7.140625 -22.234375 C 7.460938 -22.335938 8.164062 -22.441406 9.25 -22.546875 C 10.332031 -22.660156 11.25 -22.769531 12 -22.875 C 12.945312 -23.03125 13.75 -23.039062 14.40625 -22.90625 C 15.070312 -22.78125 15.5 -22.609375 15.6875 -22.390625 C 15.875 -22.179688 16.113281 -22.050781 16.40625 -22 C 16.695312 -21.945312 16.972656 -22.078125 17.234375 -22.390625 C 18.191406 -23.347656 17.503906 -24.039062 15.171875 -24.46875 C 14.265625 -24.625 13.125 -24.753906 11.75 -24.859375 C 9.207031 -25.015625 7.628906 -25.222656 7.015625 -25.484375 C 6.410156 -25.753906 6.03125 -26.394531 5.875 -27.40625 C 5.71875 -28.25 4.898438 -28.800781 3.421875 -29.0625 C 2.085938 -29.226562 1.289062 -29.742188 1.03125 -30.609375 C 0.769531 -31.484375 0.796875 -33.484375 1.109375 -36.609375 C 1.316406 -38.566406 1.523438 -39.742188 1.734375 -40.140625 C 1.953125 -40.546875 2.566406 -40.800781 3.578125 -40.90625 C 4.523438 -41.007812 5.128906 -41.242188 5.390625 -41.609375 C 5.660156 -41.984375 5.984375 -43.070312 6.359375 -44.875 C 6.941406 -47.726562 8.066406 -49.84375 9.734375 -51.21875 C 11.398438 -52.601562 13.953125 -53.503906 17.390625 -53.921875 Z M 17.390625 -53.921875 "/></g></g></g><g fill="#f1f1f1" fill-opacity="1"><g transform="translate(343.845184, 67.427396)"><g><path d="M 4.921875 -42.09375 C 5.023438 -44.476562 5.15625 -45.90625 5.3125 -46.375 C 5.476562 -46.851562 8.128906 -47.066406 13.265625 -47.015625 L 20.96875 -46.9375 L 21.125 -42.5625 C 21.226562 -40.1875 21.519531 -38.800781 22 -38.40625 C 22.476562 -38.007812 24.015625 -37.914062 26.609375 -38.125 C 27.984375 -38.175781 28.84375 -37.765625 29.1875 -36.890625 C 29.53125 -36.015625 29.570312 -34.125 29.3125 -31.21875 L 28.75 -26.125 L 20.96875 -25.421875 L 20.8125 -19.609375 C 20.707031 -15.804688 20.929688 -13.441406 21.484375 -12.515625 C 22.035156 -11.585938 23.476562 -11.148438 25.8125 -11.203125 L 29.140625 -11.359375 L 29.140625 -5.875 C 29.140625 -3.175781 29.046875 -1.546875 28.859375 -0.984375 C 28.679688 -0.429688 28.171875 0.0234375 27.328125 0.390625 C 25.785156 0.972656 23.398438 1.316406 20.171875 1.421875 C 16.941406 1.535156 14.691406 1.300781 13.421875 0.71875 C 12.890625 0.5 12.289062 0.257812 11.625 0 C 10.96875 -0.257812 10.519531 -0.441406 10.28125 -0.546875 C 10.039062 -0.660156 9.734375 -0.847656 9.359375 -1.109375 C 8.992188 -1.378906 8.648438 -1.710938 8.328125 -2.109375 C 8.015625 -2.503906 7.648438 -3.070312 7.234375 -3.8125 C 6.378906 -5.082031 5.847656 -6.328125 5.640625 -7.546875 C 5.429688 -8.765625 5.242188 -11.597656 5.078125 -16.046875 L 4.6875 -25.421875 L 0.796875 -26.125 L 0.796875 -37.8125 L 2.78125 -38.125 C 3.675781 -38.28125 4.226562 -38.554688 4.4375 -38.953125 C 4.65625 -39.347656 4.816406 -40.394531 4.921875 -42.09375 Z M 4.921875 -42.09375 "/></g></g></g></svg>