<svg xmlns="http://www.w3.org/2000/svg" xmlns:xlink="http://www.w3.org/1999/xlink" width="500" zoomAndPan="magnify" viewBox="0 0 375 299.999988" height="400" preserveAspectRatio="xMidYMid meet" version="1.0"><defs><g/></defs><g fill="#f1f1f1" fill-opacity="1"><g transform="translate(27.884406, 136.815741)"><g><path d="M 16.46875 -104.875 C 18.832031 -106.757812 22.597656 -108.832031 27.765625 -111.09375 C 32.929688 -113.351562 39.550781 -114.5625 47.625 -114.71875 C 55.707031 -114.882812 62.546875 -114 68.140625 -112.0625 C 70.503906 -111.195312 72.601562 -110.546875 74.4375 -110.109375 C 76.269531 -109.679688 77.5625 -109.382812 78.3125 -109.21875 C 79.0625 -109.0625 80.054688 -108.6875 81.296875 -108.09375 C 82.535156 -107.507812 84.125 -106.570312 86.0625 -105.28125 C 88.96875 -103.34375 90.609375 -102.019531 90.984375 -101.3125 C 91.359375 -100.613281 91.0625 -99.40625 90.09375 -97.6875 C 89.125 -95.75 87.644531 -93.753906 85.65625 -91.703125 C 83.664062 -89.660156 82.671875 -88.210938 82.671875 -87.359375 C 82.671875 -84.878906 80.675781 -83.476562 76.6875 -83.15625 C 72.707031 -82.832031 67.867188 -83.640625 62.171875 -85.578125 C 57.109375 -87.296875 52.425781 -88.15625 48.125 -88.15625 C 45.539062 -88.15625 43.679688 -87.941406 42.546875 -87.515625 C 41.421875 -87.085938 40.425781 -86.226562 39.5625 -84.9375 C 38.15625 -82.78125 37.722656 -81.269531 38.265625 -80.40625 C 38.585938 -79.875 40.117188 -79.335938 42.859375 -78.796875 C 45.609375 -78.253906 50.128906 -77.285156 56.421875 -75.890625 C 62.722656 -74.492188 69.265625 -72.609375 76.046875 -70.234375 C 77.453125 -69.703125 77.507812 -68.84375 76.21875 -67.65625 C 75.132812 -66.789062 73.894531 -66.359375 72.5 -66.359375 C 71.851562 -66.359375 71.3125 -66.144531 70.875 -65.71875 C 70.445312 -65.289062 70.234375 -64.804688 70.234375 -64.265625 C 70.234375 -62.867188 72.117188 -62.332031 75.890625 -62.65625 C 78.253906 -62.863281 79.4375 -62.703125 79.4375 -62.171875 C 79.332031 -61.847656 79.117188 -61.46875 78.796875 -61.03125 C 77.285156 -59.207031 77.175781 -58.1875 78.46875 -57.96875 C 79.332031 -57.863281 80.519531 -58.1875 82.03125 -58.9375 C 86.4375 -61.300781 89.878906 -60.117188 92.359375 -55.390625 C 95.160156 -50.222656 95.429688 -43.921875 93.171875 -36.484375 C 92.523438 -34.546875 91.769531 -32.769531 90.90625 -31.15625 C 87.457031 -24.488281 82.394531 -19.617188 75.71875 -16.546875 C 69.050781 -13.484375 60.390625 -12.003906 49.734375 -12.109375 C 40.796875 -12.210938 32.367188 -13.421875 24.453125 -15.734375 C 16.546875 -18.054688 10.222656 -21.207031 5.484375 -25.1875 L 1.609375 -28.25 L 9.203125 -37.78125 C 14.148438 -44.03125 17 -47.15625 17.75 -47.15625 C 18.507812 -47.15625 21.6875 -45.753906 27.28125 -42.953125 C 31.15625 -41.015625 34.195312 -39.800781 36.40625 -39.3125 C 38.613281 -38.832031 42.570312 -38.59375 48.28125 -38.59375 C 54.195312 -38.59375 57.800781 -38.722656 59.09375 -38.984375 C 60.382812 -39.253906 61.140625 -40.039062 61.359375 -41.34375 C 61.578125 -43.164062 60.847656 -44.640625 59.171875 -45.765625 C 57.503906 -46.898438 54.46875 -47.953125 50.0625 -48.921875 C 36.488281 -51.941406 26.472656 -55.117188 20.015625 -58.453125 C 13.554688 -61.785156 9.253906 -66.035156 7.109375 -71.203125 C 6.460938 -72.816406 6.191406 -74 6.296875 -74.75 C 6.398438 -75.507812 6.9375 -76.484375 7.90625 -77.671875 C 9.09375 -78.847656 9.6875 -79.597656 9.6875 -79.921875 C 9.6875 -80.242188 9.203125 -80.625 8.234375 -81.0625 C 6.515625 -81.707031 5.816406 -83.535156 6.140625 -86.546875 C 6.460938 -89.554688 7.644531 -92.835938 9.6875 -96.390625 C 11.84375 -100.160156 14.101562 -102.988281 16.46875 -104.875 Z M 20.421875 -78.46875 C 22.304688 -78.90625 23.25 -79.523438 23.25 -80.328125 C 23.25 -81.140625 21.710938 -81.546875 18.640625 -81.546875 C 15.578125 -81.546875 13.832031 -81.164062 13.40625 -80.40625 C 13.1875 -79.976562 13.265625 -79.601562 13.640625 -79.28125 C 14.015625 -78.957031 14.523438 -78.6875 15.171875 -78.46875 C 16.785156 -78.039062 18.535156 -78.039062 20.421875 -78.46875 Z M 31.078125 -78.953125 C 33.710938 -78.953125 35.03125 -79.382812 35.03125 -80.25 C 35.03125 -81.113281 33.710938 -81.546875 31.078125 -81.546875 C 28.441406 -81.546875 27.125 -81.113281 27.125 -80.25 C 27.125 -79.382812 28.441406 -78.953125 31.078125 -78.953125 Z M 66.6875 -67.5 C 67.65625 -68.144531 67.894531 -68.867188 67.40625 -69.671875 C 66.925781 -70.484375 66.066406 -70.890625 64.828125 -70.890625 C 63.585938 -70.890625 62.703125 -70.457031 62.171875 -69.59375 C 61.847656 -69.050781 61.953125 -68.535156 62.484375 -68.046875 C 63.023438 -67.566406 63.695312 -67.273438 64.5 -67.171875 C 65.3125 -67.066406 66.039062 -67.175781 66.6875 -67.5 Z M 66.6875 -67.5 "/></g></g></g><g fill="#f1f1f1" fill-opacity="1"><g transform="translate(123.958741, 136.815741)"><g><path d="M 20.828125 -74.28125 C 20.828125 -74.382812 20.367188 -75.507812 19.453125 -77.65625 C 18.535156 -79.8125 18.238281 -81.375 18.5625 -82.34375 C 18.882812 -83.101562 20.363281 -83.585938 23 -83.796875 C 25.644531 -84.015625 30.734375 -84.125 38.265625 -84.125 C 47.421875 -84.125 53.234375 -83.960938 55.703125 -83.640625 C 58.179688 -83.316406 61.144531 -82.296875 64.59375 -80.578125 C 69.320312 -78.097656 73.085938 -74.8125 75.890625 -70.71875 L 80.09375 -64.421875 L 79.765625 -8.078125 L 71.859375 -7.75 C 68.191406 -7.53125 65.765625 -7.609375 64.578125 -7.984375 C 63.398438 -8.367188 61.734375 -9.582031 59.578125 -11.625 C 57.859375 -13.238281 56.488281 -14.257812 55.46875 -14.6875 C 54.445312 -15.125 53.71875 -15.148438 53.28125 -14.765625 C 52.851562 -14.390625 52.179688 -13.957031 51.265625 -13.46875 C 50.347656 -12.988281 49.300781 -12.75 48.125 -12.75 C 46.9375 -12.75 45.265625 -11.890625 43.109375 -10.171875 C 40.953125 -8.453125 38.3125 -7.1875 35.1875 -6.375 C 32.070312 -5.570312 28.84375 -5.222656 25.5 -5.328125 C 22.164062 -5.429688 18.882812 -5.992188 15.65625 -7.015625 C 12.425781 -8.046875 9.65625 -9.660156 7.34375 -11.859375 C 5.03125 -14.066406 3.363281 -16.863281 2.34375 -20.25 C 1.320312 -23.644531 1.347656 -27.660156 2.421875 -32.296875 C 3.492188 -36.816406 4.625 -40.070312 5.8125 -42.0625 C 7 -44.050781 8.988281 -45.960938 11.78125 -47.796875 C 14.15625 -49.304688 16.390625 -50.222656 18.484375 -50.546875 C 20.585938 -50.867188 25.351562 -51.03125 32.78125 -51.03125 C 39.988281 -51.03125 44.425781 -51.160156 46.09375 -51.421875 C 47.769531 -51.691406 48.609375 -52.367188 48.609375 -53.453125 C 48.609375 -55.066406 48.015625 -56.679688 46.828125 -58.296875 C 45.429688 -60.117188 41.582031 -61.351562 35.28125 -62 C 28.976562 -62.644531 24 -62.320312 20.34375 -61.03125 C 16.6875 -59.738281 14.425781 -59.578125 13.5625 -60.546875 C 12.8125 -61.304688 11.867188 -63.515625 10.734375 -67.171875 C 9.609375 -70.828125 8.988281 -73.519531 8.875 -75.25 C 8.875 -76.644531 9.492188 -77.367188 10.734375 -77.421875 C 11.972656 -77.472656 13.128906 -76.851562 14.203125 -75.5625 C 14.742188 -75.03125 15.550781 -74.546875 16.625 -74.109375 C 17.707031 -73.679688 18.675781 -73.46875 19.53125 -73.46875 C 20.394531 -73.46875 20.828125 -73.738281 20.828125 -74.28125 Z M 42.796875 -41.65625 C 37.835938 -44.457031 34.984375 -45.859375 34.234375 -45.859375 C 33.046875 -45.859375 32.289062 -45.316406 31.96875 -44.234375 C 31.644531 -43.160156 31.914062 -42.085938 32.78125 -41.015625 C 33.851562 -39.722656 33.90625 -37.945312 32.9375 -35.6875 C 31.96875 -33.632812 31.484375 -31.554688 31.484375 -29.453125 C 31.484375 -27.359375 31.96875 -25.828125 32.9375 -24.859375 C 34.125 -23.679688 36.546875 -23.144531 40.203125 -23.25 C 43.867188 -23.351562 46.1875 -24 47.15625 -25.1875 C 48.332031 -26.476562 49.140625 -28.847656 49.578125 -32.296875 C 49.898438 -34.878906 49.765625 -36.570312 49.171875 -37.375 C 48.578125 -38.1875 46.453125 -39.613281 42.796875 -41.65625 Z M 73.0625 -40.53125 C 74.40625 -40.53125 75.078125 -40.957031 75.078125 -41.8125 C 75.078125 -42.675781 74.40625 -43.109375 73.0625 -43.109375 C 71.71875 -43.109375 71.046875 -42.675781 71.046875 -41.8125 C 71.046875 -40.957031 71.71875 -40.53125 73.0625 -40.53125 Z M 73.796875 -36.96875 C 75.191406 -37.9375 75.675781 -38.476562 75.25 -38.59375 C 75.03125 -38.695312 74.113281 -38.800781 72.5 -38.90625 C 69.59375 -39.019531 68.25 -38.535156 68.46875 -37.453125 C 68.46875 -36.921875 68.894531 -36.382812 69.75 -35.84375 C 70.613281 -35.300781 71.960938 -35.675781 73.796875 -36.96875 Z M 73.796875 -36.96875 "/></g></g></g><g fill="#f1f1f1" fill-opacity="1"><g transform="translate(205.662277, 136.815741)"><g><path d="M 1.78125 -37.140625 C 1.5625 -61.898438 1.613281 -74.765625 1.9375 -75.734375 C 2.257812 -76.703125 7.425781 -77.128906 17.4375 -77.015625 L 32.453125 -76.703125 L 32.9375 -71.203125 C 33.15625 -67.972656 33.640625 -66.195312 34.390625 -65.875 C 35.140625 -65.550781 36.320312 -66.578125 37.9375 -68.953125 C 39.445312 -71.316406 41.816406 -73.359375 45.046875 -75.078125 C 48.273438 -76.804688 51.078125 -77.5625 53.453125 -77.34375 L 57.640625 -76.859375 L 57.96875 -61.359375 C 58.1875 -54.148438 58.1875 -49.707031 57.96875 -48.03125 C 57.75 -46.363281 56.992188 -45.15625 55.703125 -44.40625 C 53.878906 -43.4375 52.535156 -43.222656 51.671875 -43.765625 C 50.921875 -44.296875 48.820312 -43.695312 45.375 -41.96875 C 41.925781 -40.25 39.554688 -38.640625 38.265625 -37.140625 C 34.816406 -32.941406 33.09375 -24.867188 33.09375 -12.921875 C 33.09375 -4.847656 32.664062 -0.8125 31.8125 -0.8125 C 31.050781 -0.8125 30.5625 -2.71875 30.34375 -6.53125 C 30.132812 -10.351562 29.972656 -14.335938 29.859375 -18.484375 C 29.753906 -22.628906 29.378906 -24.972656 28.734375 -25.515625 C 28.085938 -26.046875 27.765625 -27.28125 27.765625 -29.21875 C 27.765625 -30.625 27.253906 -32.078125 26.234375 -33.578125 C 25.210938 -35.085938 24.648438 -36.378906 24.546875 -37.453125 C 24.328125 -41.015625 24.109375 -43.304688 23.890625 -44.328125 C 23.679688 -45.347656 23.304688 -45.859375 22.765625 -45.859375 C 21.796875 -45.859375 20.828125 -44.890625 19.859375 -42.953125 C 18.992188 -41.441406 18.992188 -39.660156 19.859375 -37.609375 C 20.722656 -35.566406 21.609375 -33.523438 22.515625 -31.484375 C 23.429688 -29.441406 23.460938 -27.613281 22.609375 -26 C 21.847656 -24.914062 21.601562 -23.703125 21.875 -22.359375 C 22.144531 -21.015625 22.601562 -19.882812 23.25 -18.96875 C 23.894531 -18.050781 24.484375 -16.4375 25.015625 -14.125 C 25.554688 -11.8125 25.722656 -9.203125 25.515625 -6.296875 L 24.859375 0.640625 L 2.09375 -0.15625 Z M 1.78125 -37.140625 "/></g></g></g><g fill="#f1f1f1" fill-opacity="1"><g transform="translate(265.405974, 136.815741)"><g><path d="M 20.828125 -74.28125 C 20.828125 -74.382812 20.367188 -75.507812 19.453125 -77.65625 C 18.535156 -79.8125 18.238281 -81.375 18.5625 -82.34375 C 18.882812 -83.101562 20.363281 -83.585938 23 -83.796875 C 25.644531 -84.015625 30.734375 -84.125 38.265625 -84.125 C 47.421875 -84.125 53.234375 -83.960938 55.703125 -83.640625 C 58.179688 -83.316406 61.144531 -82.296875 64.59375 -80.578125 C 69.320312 -78.097656 73.085938 -74.8125 75.890625 -70.71875 L 80.09375 -64.421875 L 79.765625 -8.078125 L 71.859375 -7.75 C 68.191406 -7.53125 65.765625 -7.609375 64.578125 -7.984375 C 63.398438 -8.367188 61.734375 -9.582031 59.578125 -11.625 C 57.859375 -13.238281 56.488281 -14.257812 55.46875 -14.6875 C 54.445312 -15.125 53.71875 -15.148438 53.28125 -14.765625 C 52.851562 -14.390625 52.179688 -13.957031 51.265625 -13.46875 C 50.347656 -12.988281 49.300781 -12.75 48.125 -12.75 C 46.9375 -12.75 45.265625 -11.890625 43.109375 -10.171875 C 40.953125 -8.453125 38.3125 -7.1875 35.1875 -6.375 C 32.070312 -5.570312 28.84375 -5.222656 25.5 -5.328125 C 22.164062 -5.429688 18.882812 -5.992188 15.65625 -7.015625 C 12.425781 -8.046875 9.65625 -9.660156 7.34375 -11.859375 C 5.03125 -14.066406 3.363281 -16.863281 2.34375 -20.25 C 1.320312 -23.644531 1.347656 -27.660156 2.421875 -32.296875 C 3.492188 -36.816406 4.625 -40.070312 5.8125 -42.0625 C 7 -44.050781 8.988281 -45.960938 11.78125 -47.796875 C 14.15625 -49.304688 16.390625 -50.222656 18.484375 -50.546875 C 20.585938 -50.867188 25.351562 -51.03125 32.78125 -51.03125 C 39.988281 -51.03125 44.425781 -51.160156 46.09375 -51.421875 C 47.769531 -51.691406 48.609375 -52.367188 48.609375 -53.453125 C 48.609375 -55.066406 48.015625 -56.679688 46.828125 -58.296875 C 45.429688 -60.117188 41.582031 -61.351562 35.28125 -62 C 28.976562 -62.644531 24 -62.320312 20.34375 -61.03125 C 16.6875 -59.738281 14.425781 -59.578125 13.5625 -60.546875 C 12.8125 -61.304688 11.867188 -63.515625 10.734375 -67.171875 C 9.609375 -70.828125 8.988281 -73.519531 8.875 -75.25 C 8.875 -76.644531 9.492188 -77.367188 10.734375 -77.421875 C 11.972656 -77.472656 13.128906 -76.851562 14.203125 -75.5625 C 14.742188 -75.03125 15.550781 -74.546875 16.625 -74.109375 C 17.707031 -73.679688 18.675781 -73.46875 19.53125 -73.46875 C 20.394531 -73.46875 20.828125 -73.738281 20.828125 -74.28125 Z M 42.796875 -41.65625 C 37.835938 -44.457031 34.984375 -45.859375 34.234375 -45.859375 C 33.046875 -45.859375 32.289062 -45.316406 31.96875 -44.234375 C 31.644531 -43.160156 31.914062 -42.085938 32.78125 -41.015625 C 33.851562 -39.722656 33.90625 -37.945312 32.9375 -35.6875 C 31.96875 -33.632812 31.484375 -31.554688 31.484375 -29.453125 C 31.484375 -27.359375 31.96875 -25.828125 32.9375 -24.859375 C 34.125 -23.679688 36.546875 -23.144531 40.203125 -23.25 C 43.867188 -23.351562 46.1875 -24 47.15625 -25.1875 C 48.332031 -26.476562 49.140625 -28.847656 49.578125 -32.296875 C 49.898438 -34.878906 49.765625 -36.570312 49.171875 -37.375 C 48.578125 -38.1875 46.453125 -39.613281 42.796875 -41.65625 Z M 73.0625 -40.53125 C 74.40625 -40.53125 75.078125 -40.957031 75.078125 -41.8125 C 75.078125 -42.675781 74.40625 -43.109375 73.0625 -43.109375 C 71.71875 -43.109375 71.046875 -42.675781 71.046875 -41.8125 C 71.046875 -40.957031 71.71875 -40.53125 73.0625 -40.53125 Z M 73.796875 -36.96875 C 75.191406 -37.9375 75.675781 -38.476562 75.25 -38.59375 C 75.03125 -38.695312 74.113281 -38.800781 72.5 -38.90625 C 69.59375 -39.019531 68.25 -38.535156 68.46875 -37.453125 C 68.46875 -36.921875 68.894531 -36.382812 69.75 -35.84375 C 70.613281 -35.300781 71.960938 -35.675781 73.796875 -36.96875 Z M 73.796875 -36.96875 "/></g></g></g><g fill="#f1f1f1" fill-opacity="1"><g transform="translate(1.403546, 260.268234)"><g><path d="M 46.828125 -14.859375 C 49.410156 -16.148438 52.207031 -16.601562 55.21875 -16.21875 C 58.238281 -15.84375 59.75 -14.847656 59.75 -13.234375 C 59.75 -11.941406 57.109375 -11.296875 51.828125 -11.296875 C 46.453125 -11.296875 43.867188 -11.78125 44.078125 -12.75 C 44.191406 -13.289062 45.109375 -13.992188 46.828125 -14.859375 Z M 65.078125 -16.625 C 67.546875 -18.5625 70.828125 -19.476562 74.921875 -19.375 C 77.179688 -19.15625 78.203125 -18.5625 77.984375 -17.59375 C 77.660156 -16.519531 75.613281 -15.390625 71.84375 -14.203125 C 68.082031 -13.023438 65.445312 -12.703125 63.9375 -13.234375 C 63.507812 -13.453125 63.1875 -13.640625 62.96875 -13.796875 C 62.757812 -13.960938 62.679688 -14.179688 62.734375 -14.453125 C 62.785156 -14.722656 63 -15.019531 63.375 -15.34375 C 63.75 -15.664062 64.316406 -16.09375 65.078125 -16.625 Z M 67.65625 -42.625 C 66.789062 -43.0625 66.597656 -43.707031 67.078125 -44.5625 C 67.566406 -45.425781 68.242188 -45.585938 69.109375 -45.046875 C 69.535156 -44.722656 69.75 -44.289062 69.75 -43.75 C 69.75 -43.21875 69.535156 -42.816406 69.109375 -42.546875 C 68.679688 -42.273438 68.195312 -42.300781 67.65625 -42.625 Z M 44.5625 -113.1875 C 66.09375 -115.550781 82.078125 -110.332031 92.515625 -97.53125 C 95.535156 -93.863281 97.285156 -91.171875 97.765625 -89.453125 C 98.253906 -87.734375 97.632812 -86.550781 95.90625 -85.90625 C 94.832031 -85.582031 92.945312 -84.554688 90.25 -82.828125 C 87.5625 -81.109375 85.789062 -80.25 84.9375 -80.25 C 83.96875 -80.25 82.03125 -79.117188 79.125 -76.859375 C 76.425781 -74.816406 74.566406 -73.796875 73.546875 -73.796875 C 72.523438 -73.796875 70.992188 -74.867188 68.953125 -77.015625 C 65.398438 -80.785156 61.441406 -83.097656 57.078125 -83.953125 C 52.722656 -84.816406 48.710938 -84.144531 45.046875 -81.9375 C 41.390625 -79.738281 38.695312 -76.269531 36.96875 -71.53125 C 35.351562 -67.113281 34.546875 -63.9375 34.546875 -62 C 34.546875 -60.820312 34.382812 -60.070312 34.0625 -59.75 C 33.738281 -59.425781 33.039062 -59.425781 31.96875 -59.75 C 30.570312 -60.175781 29.738281 -60.066406 29.46875 -59.421875 C 29.195312 -58.773438 29.65625 -57.914062 30.84375 -56.84375 C 31.8125 -55.875 31.972656 -54.90625 31.328125 -53.9375 C 30.566406 -52.53125 29.539062 -52.066406 28.25 -52.546875 C 26.957031 -53.035156 25.773438 -54.25 24.703125 -56.1875 C 23.628906 -58.34375 22.363281 -60.09375 20.90625 -61.4375 C 19.457031 -62.78125 18.410156 -63.128906 17.765625 -62.484375 C 17.441406 -62.160156 17.628906 -61.488281 18.328125 -60.46875 C 19.023438 -59.445312 19.722656 -58.503906 20.421875 -57.640625 C 21.117188 -56.785156 21.304688 -56.300781 20.984375 -56.1875 L 18.40625 -55.875 C 17.65625 -55.757812 17.25 -55.03125 17.1875 -53.6875 C 17.132812 -52.34375 16.734375 -51.1875 15.984375 -50.21875 C 15.117188 -49.25 14.820312 -48.332031 15.09375 -47.46875 C 15.363281 -46.613281 15.984375 -46.15625 16.953125 -46.09375 C 17.921875 -46.039062 19.050781 -46.335938 20.34375 -46.984375 C 22.28125 -48.171875 23.410156 -48.28125 23.734375 -47.3125 C 24.054688 -46.34375 24.96875 -45.859375 26.46875 -45.859375 C 27.976562 -45.859375 29.21875 -46.34375 30.1875 -47.3125 C 31.050781 -48.0625 32.53125 -48.003906 34.625 -47.140625 C 36.726562 -46.285156 39.742188 -45.050781 43.671875 -43.4375 C 47.609375 -41.820312 51.457031 -40.851562 55.21875 -40.53125 C 58.769531 -40.207031 60.945312 -39.851562 61.75 -39.46875 C 62.5625 -39.09375 62.914062 -38.316406 62.8125 -37.140625 C 62.59375 -35.203125 64.234375 -32.96875 67.734375 -30.4375 C 71.234375 -27.90625 73.578125 -27.234375 74.765625 -28.421875 C 75.515625 -29.066406 75.753906 -29.628906 75.484375 -30.109375 C 75.210938 -30.597656 74.753906 -30.945312 74.109375 -31.15625 C 73.460938 -31.375 72.925781 -31.859375 72.5 -32.609375 C 72.070312 -33.367188 72.019531 -34.335938 72.34375 -35.515625 C 72.988281 -37.566406 73.414062 -38.695312 73.625 -38.90625 C 73.84375 -39.125 75.347656 -38.289062 78.140625 -36.40625 C 80.941406 -34.519531 83.097656 -32.878906 84.609375 -31.484375 C 85.796875 -30.410156 86.550781 -29.875 86.875 -29.875 C 88.269531 -29.875 87.191406 -31.914062 83.640625 -36 C 80.191406 -39.988281 78.253906 -42.519531 77.828125 -43.59375 C 77.722656 -44.132812 77.5625 -44.539062 77.34375 -44.8125 C 77.125 -45.082031 76.90625 -45.269531 76.6875 -45.375 C 76.476562 -45.476562 76.320312 -45.476562 76.21875 -45.375 C 75.570312 -44.832031 74.65625 -45.046875 73.46875 -46.015625 C 72.28125 -46.984375 71.6875 -48.0625 71.6875 -49.25 C 71.6875 -51.40625 73.140625 -51.675781 76.046875 -50.0625 C 76.910156 -49.625 77.773438 -49.082031 78.640625 -48.4375 C 80.898438 -46.71875 82.78125 -45.859375 84.28125 -45.859375 C 87.300781 -45.859375 90.15625 -44.023438 92.84375 -40.359375 C 95.320312 -36.921875 95.59375 -34.660156 93.65625 -33.578125 C 93.539062 -33.472656 93.429688 -33.367188 93.328125 -33.265625 C 92.785156 -33.046875 92.378906 -32.691406 92.109375 -32.203125 C 91.847656 -31.722656 91.820312 -31.210938 92.03125 -30.671875 C 92.46875 -29.378906 92.066406 -28.328125 90.828125 -27.515625 C 89.585938 -26.710938 87.753906 -26.148438 85.328125 -25.828125 C 82.910156 -25.503906 80.410156 -25.257812 77.828125 -25.09375 C 75.242188 -24.9375 72.710938 -24.722656 70.234375 -24.453125 C 67.765625 -24.191406 66.046875 -23.789062 65.078125 -23.25 C 63.890625 -22.601562 62.703125 -22.679688 61.515625 -23.484375 C 60.335938 -24.296875 59.75 -25.398438 59.75 -26.796875 C 59.75 -27.335938 59.503906 -27.769531 59.015625 -28.09375 C 58.535156 -28.414062 57.972656 -28.578125 57.328125 -28.578125 C 55.597656 -28.578125 54.195312 -29.25 53.125 -30.59375 C 52.050781 -31.9375 48.738281 -32.609375 43.1875 -32.609375 C 37.644531 -32.609375 34.6875 -33.144531 34.3125 -34.21875 C 33.9375 -35.300781 33.367188 -35.519531 32.609375 -34.875 C 31.753906 -34.125 31.726562 -33.101562 32.53125 -31.8125 C 33.34375 -30.519531 34.394531 -29.875 35.6875 -29.875 C 36.976562 -29.875 39.882812 -29.253906 44.40625 -28.015625 C 48.925781 -26.773438 52.640625 -25.5625 55.546875 -24.375 C 58.023438 -23.40625 58.617188 -22.492188 57.328125 -21.640625 C 56.566406 -20.992188 55.273438 -20.671875 53.453125 -20.671875 C 51.296875 -20.773438 48.546875 -20.640625 45.203125 -20.265625 C 41.867188 -19.890625 38.988281 -19.539062 36.5625 -19.21875 C 34.144531 -18.894531 31.941406 -18.785156 29.953125 -18.890625 C 27.960938 -18.992188 26.75 -19.425781 26.3125 -20.1875 C 25.5625 -21.363281 24.753906 -21.6875 23.890625 -21.15625 C 23.242188 -20.71875 21.578125 -21.628906 18.890625 -23.890625 C 16.203125 -26.148438 14.859375 -27.820312 14.859375 -28.90625 C 14.859375 -29.550781 13.132812 -31.914062 9.6875 -36 C 4.84375 -41.925781 3.710938 -45.535156 6.296875 -46.828125 C 6.835938 -47.046875 7.535156 -47.207031 8.390625 -47.3125 C 9.253906 -47.414062 10.007812 -47.738281 10.65625 -48.28125 C 11.300781 -48.820312 11.675781 -49.414062 11.78125 -50.0625 C 12 -51.03125 11.8125 -51.675781 11.21875 -52 C 10.625 -52.320312 9.46875 -52.484375 7.75 -52.484375 C 5.707031 -52.484375 4.390625 -52.695312 3.796875 -53.125 C 3.203125 -53.550781 2.691406 -54.679688 2.265625 -56.515625 C 1.078125 -62.972656 1.453125 -69.753906 3.390625 -76.859375 C 5.972656 -86.328125 11.164062 -94.476562 18.96875 -101.3125 C 26.769531 -108.15625 35.300781 -112.113281 44.5625 -113.1875 Z M 28.09375 -40.53125 C 27.445312 -40.53125 26.800781 -40.664062 26.15625 -40.9375 C 25.507812 -41.207031 25 -41.503906 24.625 -41.828125 C 24.25 -42.148438 23.898438 -42.414062 23.578125 -42.625 C 23.253906 -42.84375 22.984375 -42.84375 22.765625 -42.625 C 22.546875 -42.414062 22.273438 -41.988281 21.953125 -41.34375 C 20.984375 -38.75 21.519531 -36.859375 23.5625 -35.671875 C 25.613281 -34.492188 27.929688 -34.765625 30.515625 -36.484375 C 31.703125 -37.128906 32 -37.960938 31.40625 -38.984375 C 30.8125 -40.015625 29.707031 -40.53125 28.09375 -40.53125 Z M 46.5 -37.9375 C 46.5 -38.476562 46.203125 -38.851562 45.609375 -39.0625 C 45.023438 -39.28125 44.351562 -39.28125 43.59375 -39.0625 C 42.84375 -38.851562 42.253906 -38.425781 41.828125 -37.78125 C 41.285156 -36.8125 41.226562 -36.109375 41.65625 -35.671875 C 42.09375 -35.242188 43.007812 -35.351562 44.40625 -36 C 45.800781 -36.644531 46.5 -37.289062 46.5 -37.9375 Z M 59.578125 -36.65625 C 58.828125 -37.1875 57.941406 -37.53125 56.921875 -37.6875 C 55.898438 -37.851562 55.007812 -37.851562 54.25 -37.6875 C 53.5 -37.53125 53.125 -37.1875 53.125 -36.65625 C 53.125 -35.894531 54.253906 -35.21875 56.515625 -34.625 C 58.773438 -34.039062 60.226562 -34.015625 60.875 -34.546875 C 61.414062 -35.085938 60.984375 -35.789062 59.578125 -36.65625 Z M 59.578125 -36.65625 "/></g></g></g><g fill="#f1f1f1" fill-opacity="1"><g transform="translate(101.030204, 260.268234)"><g><path d="M 1.78125 -37.140625 C 1.5625 -61.898438 1.613281 -74.765625 1.9375 -75.734375 C 2.257812 -76.703125 7.425781 -77.128906 17.4375 -77.015625 L 32.453125 -76.703125 L 32.9375 -71.203125 C 33.15625 -67.972656 33.640625 -66.195312 34.390625 -65.875 C 35.140625 -65.550781 36.320312 -66.578125 37.9375 -68.953125 C 39.445312 -71.316406 41.816406 -73.359375 45.046875 -75.078125 C 48.273438 -76.804688 51.078125 -77.5625 53.453125 -77.34375 L 57.640625 -76.859375 L 57.96875 -61.359375 C 58.1875 -54.148438 58.1875 -49.707031 57.96875 -48.03125 C 57.75 -46.363281 56.992188 -45.15625 55.703125 -44.40625 C 53.878906 -43.4375 52.535156 -43.222656 51.671875 -43.765625 C 50.921875 -44.296875 48.820312 -43.695312 45.375 -41.96875 C 41.925781 -40.25 39.554688 -38.640625 38.265625 -37.140625 C 34.816406 -32.941406 33.09375 -24.867188 33.09375 -12.921875 C 33.09375 -4.847656 32.664062 -0.8125 31.8125 -0.8125 C 31.050781 -0.8125 30.5625 -2.71875 30.34375 -6.53125 C 30.132812 -10.351562 29.972656 -14.335938 29.859375 -18.484375 C 29.753906 -22.628906 29.378906 -24.972656 28.734375 -25.515625 C 28.085938 -26.046875 27.765625 -27.28125 27.765625 -29.21875 C 27.765625 -30.625 27.253906 -32.078125 26.234375 -33.578125 C 25.210938 -35.085938 24.648438 -36.378906 24.546875 -37.453125 C 24.328125 -41.015625 24.109375 -43.304688 23.890625 -44.328125 C 23.679688 -45.347656 23.304688 -45.859375 22.765625 -45.859375 C 21.796875 -45.859375 20.828125 -44.890625 19.859375 -42.953125 C 18.992188 -41.441406 18.992188 -39.660156 19.859375 -37.609375 C 20.722656 -35.566406 21.609375 -33.523438 22.515625 -31.484375 C 23.429688 -29.441406 23.460938 -27.613281 22.609375 -26 C 21.847656 -24.914062 21.601562 -23.703125 21.875 -22.359375 C 22.144531 -21.015625 22.601562 -19.882812 23.25 -18.96875 C 23.894531 -18.050781 24.484375 -16.4375 25.015625 -14.125 C 25.554688 -11.8125 25.722656 -9.203125 25.515625 -6.296875 L 24.859375 0.640625 L 2.09375 -0.15625 Z M 1.78125 -37.140625 "/></g></g></g><g fill="#f1f1f1" fill-opacity="1"><g transform="translate(160.773901, 260.268234)"><g><path d="M 28.421875 -74.765625 C 31.753906 -75.941406 34.628906 -76.691406 37.046875 -77.015625 C 39.472656 -77.335938 42.84375 -77.394531 47.15625 -77.1875 C 52.75 -76.863281 57.484375 -76 61.359375 -74.59375 C 65.234375 -73.195312 69.378906 -70.773438 73.796875 -67.328125 C 79.285156 -63.128906 83.128906 -57.257812 85.328125 -49.71875 C 87.535156 -42.1875 87.671875 -34.546875 85.734375 -26.796875 C 83.796875 -19.691406 80.109375 -13.664062 74.671875 -8.71875 C 69.242188 -3.769531 63.109375 -0.410156 56.265625 1.359375 C 49.429688 3.140625 42.191406 3.300781 34.546875 1.84375 C 26.910156 0.394531 20.078125 -2.800781 14.046875 -7.75 C 9.742188 -11.40625 6.703125 -15.195312 4.921875 -19.125 C 3.148438 -23.0625 2.101562 -28.523438 1.78125 -35.515625 C 1.5625 -40.691406 1.613281 -44.273438 1.9375 -46.265625 C 2.257812 -48.253906 3.117188 -50.753906 4.515625 -53.765625 C 6.773438 -58.285156 10.054688 -62.429688 14.359375 -66.203125 C 18.671875 -69.972656 23.359375 -72.828125 28.421875 -74.765625 Z M 53.453125 -46.1875 C 51.941406 -47.582031 50.515625 -48.519531 49.171875 -49 C 47.828125 -49.488281 45.914062 -49.734375 43.4375 -49.734375 C 40.851562 -49.734375 39.046875 -49.515625 38.015625 -49.078125 C 36.992188 -48.648438 36 -47.738281 35.03125 -46.34375 C 33.632812 -44.082031 32.613281 -41.015625 31.96875 -37.140625 C 31.539062 -34.441406 31.515625 -32.582031 31.890625 -31.5625 C 32.265625 -30.539062 33.582031 -28.953125 35.84375 -26.796875 C 38.101562 -24.429688 40.523438 -22.976562 43.109375 -22.4375 C 45.691406 -21.90625 48.003906 -22.148438 50.046875 -23.171875 C 52.097656 -24.191406 53.796875 -25.96875 55.140625 -28.5 C 56.484375 -31.03125 57.15625 -34.015625 57.15625 -37.453125 C 57.15625 -39.390625 56.882812 -40.976562 56.34375 -42.21875 C 55.8125 -43.457031 54.847656 -44.78125 53.453125 -46.1875 Z M 53.453125 -46.1875 "/></g></g></g><g fill="#f1f1f1" fill-opacity="1"><g transform="translate(249.420631, 260.268234)"><g><path d="M 15.171875 -33.90625 C 16.785156 -34.550781 21.382812 -34.710938 28.96875 -34.390625 C 36.5625 -34.066406 40.738281 -33.53125 41.5 -32.78125 C 42.039062 -32.238281 42.472656 -27.554688 42.796875 -18.734375 L 43.109375 -5.484375 L 12.265625 -4.6875 L 12.265625 -18.734375 C 12.265625 -25.296875 12.398438 -29.328125 12.671875 -30.828125 C 12.941406 -32.335938 13.773438 -33.363281 15.171875 -33.90625 Z M 35.359375 -109.640625 C 38.046875 -109.960938 42.054688 -109.90625 47.390625 -109.46875 C 52.722656 -109.039062 56.300781 -108.503906 58.125 -107.859375 C 59.53125 -107.429688 60.363281 -106.675781 60.625 -105.59375 C 60.894531 -104.519531 60.976562 -101.9375 60.875 -97.84375 L 60.546875 -88.8125 L 53.765625 -88.8125 C 50.429688 -88.695312 47.710938 -88.15625 45.609375 -87.1875 C 43.515625 -86.21875 42.679688 -85.035156 43.109375 -83.640625 C 43.429688 -82.671875 46.394531 -81.972656 52 -81.546875 L 60.546875 -80.890625 L 60.71875 -71.375 C 60.925781 -65.019531 60.492188 -61.382812 59.421875 -60.46875 C 58.347656 -59.550781 55.601562 -58.988281 51.1875 -58.78125 C 48.382812 -58.5625 46.578125 -58.234375 45.765625 -57.796875 C 44.960938 -57.367188 44.347656 -56.457031 43.921875 -55.0625 C 43.378906 -52.800781 42.140625 -51.238281 40.203125 -50.375 C 36.753906 -48.875 36.753906 -47.640625 40.203125 -46.671875 C 42.035156 -46.128906 42.738281 -45.320312 42.3125 -44.25 C 41.988281 -43.0625 37.25 -42.46875 28.09375 -42.46875 C 18.945312 -42.46875 14.210938 -43.003906 13.890625 -44.078125 C 13.671875 -44.617188 13.882812 -44.992188 14.53125 -45.203125 C 15.175781 -45.421875 16.601562 -45.640625 18.8125 -45.859375 C 21.019531 -46.078125 22.875 -46.289062 24.375 -46.5 C 26.3125 -46.820312 27.953125 -46.847656 29.296875 -46.578125 C 30.648438 -46.316406 31.515625 -45.96875 31.890625 -45.53125 C 32.265625 -45.101562 32.75 -44.832031 33.34375 -44.71875 C 33.9375 -44.613281 34.5 -44.882812 35.03125 -45.53125 C 36.96875 -47.46875 35.570312 -48.867188 30.84375 -49.734375 C 29.007812 -50.054688 26.691406 -50.328125 23.890625 -50.546875 C 18.722656 -50.867188 15.519531 -51.296875 14.28125 -51.828125 C 13.050781 -52.367188 12.273438 -53.660156 11.953125 -55.703125 C 11.628906 -57.429688 9.957031 -58.5625 6.9375 -59.09375 C 4.25 -59.414062 2.632812 -60.460938 2.09375 -62.234375 C 1.5625 -64.015625 1.617188 -68.082031 2.265625 -74.4375 C 2.691406 -78.414062 3.117188 -80.804688 3.546875 -81.609375 C 3.984375 -82.421875 5.222656 -82.9375 7.265625 -83.15625 C 9.203125 -83.375 10.4375 -83.859375 10.96875 -84.609375 C 11.507812 -85.359375 12.160156 -87.566406 12.921875 -91.234375 C 14.097656 -97.046875 16.378906 -101.347656 19.765625 -104.140625 C 23.160156 -106.941406 28.359375 -108.773438 35.359375 -109.640625 Z M 35.359375 -109.640625 "/></g></g></g><g fill="#f1f1f1" fill-opacity="1"><g transform="translate(311.909296, 260.268234)"><g><path d="M 10.015625 -85.578125 C 10.222656 -90.421875 10.488281 -93.328125 10.8125 -94.296875 C 11.132812 -95.265625 16.519531 -95.695312 26.96875 -95.59375 L 42.625 -95.421875 L 42.953125 -86.546875 C 43.171875 -81.703125 43.765625 -78.875 44.734375 -78.0625 C 45.703125 -77.257812 48.820312 -77.070312 54.09375 -77.5 C 56.894531 -77.613281 58.644531 -76.78125 59.34375 -75 C 60.039062 -73.226562 60.117188 -69.378906 59.578125 -63.453125 L 58.453125 -53.125 L 42.625 -51.671875 L 42.3125 -39.875 C 42.09375 -32.125 42.546875 -27.304688 43.671875 -25.421875 C 44.804688 -23.546875 47.742188 -22.660156 52.484375 -22.765625 L 59.265625 -23.09375 L 59.265625 -11.953125 C 59.265625 -6.460938 59.070312 -3.148438 58.6875 -2.015625 C 58.3125 -0.890625 57.265625 0.0507812 55.546875 0.8125 C 52.421875 1.988281 47.570312 2.6875 41 2.90625 C 34.4375 3.125 29.863281 2.640625 27.28125 1.453125 C 26.207031 1.023438 25 0.539062 23.65625 0 C 22.3125 -0.539062 21.394531 -0.914062 20.90625 -1.125 C 20.425781 -1.34375 19.804688 -1.71875 19.046875 -2.25 C 18.296875 -2.789062 17.597656 -3.460938 16.953125 -4.265625 C 16.304688 -5.078125 15.550781 -6.238281 14.6875 -7.75 C 12.96875 -10.332031 11.890625 -12.859375 11.453125 -15.328125 C 11.023438 -17.804688 10.648438 -23.566406 10.328125 -32.609375 L 9.53125 -51.671875 L 1.609375 -53.125 L 1.609375 -76.859375 L 5.65625 -77.5 C 7.476562 -77.820312 8.601562 -78.382812 9.03125 -79.1875 C 9.46875 -80 9.796875 -82.128906 10.015625 -85.578125 Z M 10.015625 -85.578125 "/></g></g></g></svg>