<svg xmlns="http://www.w3.org/2000/svg" xmlns:xlink="http://www.w3.org/1999/xlink" width="500" zoomAndPan="magnify" viewBox="0 0 375 74.999997" height="100" preserveAspectRatio="xMidYMid meet" version="1.0"><defs><g/></defs><path stroke-linecap="butt" transform="matrix(0.75, 0, 0, 0.75, 0.0000075, -7.02756)" fill="none" stroke-linejoin="miter" d="M 39.296868 32.151333 C 40.66666 31.052375 42.848952 29.84925 45.838535 28.53675 C 48.843744 27.224249 52.687494 26.521124 57.369786 26.432583 C 62.067703 26.338833 66.036454 26.849249 69.286454 27.963833 C 70.661454 28.469041 71.869788 28.84925 72.921871 29.109666 C 73.989579 29.34925 74.739579 29.521125 75.166663 29.609666 C 75.609371 29.703416 76.187496 29.922166 76.906246 30.276333 C 77.619788 30.609666 78.541663 31.151333 79.671872 31.896125 C 81.36458 33.026333 82.317705 33.797167 82.531247 34.208625 C 82.744788 34.604458 82.578122 35.307583 82.031247 36.312792 C 81.463538 37.443 80.604163 38.59925 79.442705 39.791959 C 78.286455 40.963834 77.703121 41.802376 77.703121 42.307584 C 77.703121 43.739876 76.546871 44.557584 74.229163 44.755501 C 71.927079 44.937793 69.119787 44.463834 65.807287 43.338834 C 62.864578 42.344042 60.151037 41.849251 57.666661 41.849251 C 56.156245 41.849251 55.072911 41.969042 54.416661 42.213834 C 53.760411 42.458626 53.187494 42.963834 52.703119 43.724251 C 51.880203 44.958626 51.624994 45.828418 51.947911 46.333626 C 52.130203 46.651334 53.015619 46.974251 54.598953 47.291959 C 56.20312 47.599251 58.822911 48.156543 62.468745 48.963835 C 66.130204 49.771126 69.927079 50.864876 73.864579 52.234668 C 74.671871 52.557585 74.703121 53.057585 73.953121 53.745085 C 73.328121 54.250293 72.609371 54.500293 71.802079 54.500293 C 71.437496 54.500293 71.124996 54.620085 70.864579 54.864877 C 70.619787 55.109668 70.499996 55.390918 70.499996 55.713835 C 70.499996 56.521127 71.588538 56.833627 73.770829 56.651335 C 75.140621 56.526335 75.828121 56.620085 75.828121 56.922169 C 75.77083 57.109669 75.64583 57.328419 75.463538 57.588835 C 74.593746 58.640919 74.531246 59.234669 75.281246 59.370085 C 75.77083 59.432585 76.453121 59.245085 77.338538 58.802377 C 79.901038 57.427377 81.901038 58.114877 83.33333 60.859669 C 84.947914 63.864877 85.104164 67.515919 83.791664 71.818003 C 83.421872 72.943003 82.98958 73.974253 82.484372 74.906545 C 80.48958 78.776337 77.55208 81.609671 73.677079 83.390921 C 69.807287 85.177379 64.781245 86.036754 58.604161 85.979463 C 53.416661 85.916963 48.520827 85.213838 43.91666 83.870087 C 39.328118 82.531546 35.661451 80.698212 32.916659 78.380504 L 30.671868 76.599253 L 35.062493 71.083628 C 37.94791 67.453419 39.598952 65.640919 40.026035 65.640919 C 40.468743 65.640919 42.317702 66.448211 45.562494 68.062794 C 47.822911 69.193003 49.588536 69.901336 50.869786 70.193003 C 52.151036 70.469045 54.447911 70.604461 57.755203 70.604461 C 61.187495 70.604461 63.276037 70.526336 64.026037 70.375295 C 64.770829 70.224253 65.208329 69.76592 65.32812 69.005503 C 65.468745 67.948211 65.04687 67.099253 64.072912 66.443003 C 63.10937 65.786753 61.348953 65.177378 58.786453 64.609669 C 50.916661 62.859669 45.109369 61.010711 41.35416 59.07321 C 37.60416 57.13571 35.10416 54.677377 33.854159 51.687793 C 33.484368 50.739876 33.333326 50.052376 33.395826 49.625293 C 33.453118 49.182585 33.765618 48.620085 34.333326 47.932584 C 35.020826 47.250293 35.359368 46.812793 35.359368 46.630501 C 35.359368 46.432584 35.078118 46.208626 34.515618 45.969043 C 33.510409 45.583626 33.098951 44.526334 33.281243 42.786751 C 33.479159 41.031542 34.171868 39.125292 35.359368 37.068 C 36.614576 34.870083 37.921868 33.234667 39.296868 32.151333 Z M 41.583327 47.474251 C 42.682285 47.219043 43.22916 46.859668 43.22916 46.401334 C 43.22916 45.927376 42.338535 45.693001 40.557285 45.693001 C 38.770826 45.693001 37.755201 45.906543 37.51041 46.333626 C 37.390618 46.594043 37.437493 46.812793 37.651035 46.995084 C 37.864576 47.177376 38.161451 47.333626 38.54166 47.453418 C 39.473952 47.713834 40.484368 47.719043 41.583327 47.474251 Z M 47.760411 47.177376 C 49.302077 47.177376 50.072911 46.937793 50.072911 46.448209 C 50.072911 45.943001 49.302077 45.693001 47.760411 45.693001 C 46.234369 45.693001 45.473952 45.943001 45.473952 46.448209 C 45.473952 46.937793 46.234369 47.177376 47.760411 47.177376 Z M 68.442704 53.838835 C 69.005204 53.453418 69.140621 53.036752 68.854162 52.578418 C 68.578121 52.10446 68.072912 51.870085 67.343745 51.870085 C 66.624995 51.870085 66.114579 52.120085 65.807287 52.625293 C 65.624995 52.927377 65.687495 53.224252 65.994787 53.515918 C 66.312495 53.79196 66.70312 53.958627 67.161454 54.021127 C 67.630204 54.078418 68.057287 54.021127 68.442704 53.838835 Z M 97.55729 49.901335 C 97.55729 49.838835 97.291665 49.182585 96.755206 47.932584 C 96.239581 46.682584 96.067706 45.776334 96.255206 45.213834 C 96.437498 44.771126 97.291665 44.489876 98.817706 44.364876 C 100.354165 44.245084 103.312498 44.182584 107.692707 44.182584 C 112.999999 44.182584 116.369791 44.281543 117.802083 44.479459 C 119.234375 44.661751 120.953125 45.250293 122.947917 46.239876 C 125.708334 47.677376 127.895834 49.583626 129.515626 51.958626 L 131.963542 55.620085 L 131.755209 88.312796 L 127.182292 88.495088 C 125.046875 88.630504 123.635417 88.594046 122.947917 88.380504 C 122.265625 88.151338 121.296875 87.443004 120.041666 86.250296 C 119.052083 85.323213 118.260416 84.734671 117.666666 84.489879 C 117.067708 84.229462 116.640625 84.213837 116.385416 84.443004 C 116.140624 84.656546 115.749999 84.901338 115.218749 85.177379 C 114.697916 85.453421 114.093749 85.588838 113.411458 85.588838 C 112.723958 85.588838 111.755207 86.094046 110.505207 87.099254 C 109.255207 88.088838 107.723957 88.823213 105.906249 89.291963 C 104.093749 89.765921 102.21354 89.974255 100.281248 89.911755 C 98.343748 89.849255 96.437498 89.52113 94.562498 88.927379 C 92.682289 88.333629 91.072914 87.396129 89.734372 86.114879 C 88.390622 84.833629 87.421872 83.208629 86.828122 81.239879 C 86.234372 79.276337 86.249997 76.948212 86.874997 74.26592 C 87.499997 71.64092 88.156247 69.750295 88.843747 68.588836 C 89.541664 67.432586 90.703122 66.328419 92.317706 65.276336 C 93.692706 64.390919 94.989581 63.854461 96.208331 63.672169 C 97.427081 63.489877 100.187498 63.396127 104.489582 63.396127 C 108.682291 63.396127 111.260416 63.323211 112.218749 63.172169 C 113.197916 63.000294 113.682291 62.604461 113.682291 61.979461 C 113.682291 61.052377 113.343749 60.109669 112.656249 59.16696 C 111.848957 58.114877 109.614582 57.406544 105.953124 57.036752 C 102.291665 56.656544 99.40104 56.838835 97.281248 57.588835 C 95.161456 58.333627 93.848956 58.427377 93.348956 57.864877 C 92.906248 57.422169 92.354164 56.140918 91.703122 54.021127 C 91.046872 51.901335 90.687497 50.338835 90.624997 49.328418 C 90.624997 48.521126 90.984372 48.104459 91.703122 48.073209 C 92.416664 48.041959 93.088539 48.401335 93.713539 49.146126 C 94.036456 49.469043 94.505206 49.750293 95.130206 49.995085 C 95.755206 50.234668 96.312498 50.359668 96.802081 50.359668 C 97.30729 50.359668 97.55729 50.208626 97.55729 49.901335 Z M 110.296874 68.818003 C 107.43229 67.203419 105.77604 66.396128 105.333332 66.396128 C 104.65104 66.396128 104.21354 66.708628 104.031248 67.333628 C 103.848957 67.958628 103.999998 68.583628 104.489582 69.208628 C 105.114582 69.958628 105.15104 70.98467 104.604165 72.29717 C 104.036457 73.48467 103.755207 74.693003 103.755207 75.911753 C 103.755207 77.114879 104.036457 78.000295 104.604165 78.562795 C 105.286457 79.250295 106.692707 79.562795 108.812499 79.505504 C 110.932291 79.443004 112.276041 79.068004 112.838541 78.380504 C 113.526041 77.635712 113.989583 76.260712 114.234374 74.26592 C 114.432291 72.755503 114.354166 71.771128 114.005208 71.312795 C 113.671874 70.838836 112.432291 70.010711 110.296874 68.818003 Z M 127.869792 69.48467 C 128.661459 69.48467 129.057292 69.229461 129.057292 68.729461 C 129.057292 68.224253 128.661459 67.974253 127.869792 67.974253 C 127.088542 67.974253 126.703125 68.224253 126.703125 68.729461 C 126.703125 69.229461 127.088542 69.48467 127.869792 69.48467 Z M 128.302084 71.541961 C 129.109376 70.979461 129.390626 70.666961 129.151042 70.604461 C 129.026042 70.541961 128.494792 70.48467 127.546875 70.42217 C 125.869792 70.35967 125.09375 70.64092 125.213542 71.26592 C 125.213542 71.573211 125.458334 71.885711 125.947917 72.20342 C 126.447917 72.510711 127.234375 72.291961 128.302084 71.541961 Z M 133.911459 71.45342 C 133.791668 57.083627 133.822918 49.620085 134.005209 49.057585 C 134.187501 48.489876 137.187501 48.239876 142.994793 48.302376 L 151.713544 48.484668 L 152.010419 51.687793 C 152.130211 53.562793 152.406252 54.588835 152.833336 54.776335 C 153.276044 54.958627 153.968753 54.364877 154.911461 52.989877 C 155.781253 51.614876 157.156253 50.437793 159.031253 49.443001 C 160.906253 48.437793 162.531253 47.995084 163.906253 48.114876 L 166.328129 48.390918 L 166.51042 57.406544 C 166.651045 61.583627 166.651045 64.161752 166.51042 65.135711 C 166.390629 66.099253 165.953129 66.797169 165.208337 67.239878 C 164.140628 67.791961 163.364587 67.911753 162.875003 67.609669 C 162.432295 67.302378 161.213545 67.651336 159.213545 68.661753 C 157.218753 69.651336 155.843753 70.583628 155.098961 71.45342 C 153.098961 73.89092 152.098961 78.573212 152.098961 85.495088 C 152.098961 90.193005 151.848961 92.541963 151.343752 92.541963 C 150.901044 92.541963 150.619794 91.437796 150.500002 89.224255 C 150.375002 87.000296 150.286461 84.682587 150.223961 82.271129 C 150.161461 79.85967 149.942711 78.505504 149.562502 78.198212 C 149.192711 77.880504 149.010419 77.161754 149.010419 76.04717 C 149.010419 75.224253 148.713544 74.380503 148.119794 73.510712 C 147.526044 72.64092 147.197919 71.89092 147.135419 71.26592 C 147.000002 69.208628 146.869794 67.880503 146.744794 67.286753 C 146.625002 66.693003 146.41146 66.396128 146.104169 66.396128 C 145.541669 66.396128 144.979169 66.953419 144.41146 68.062794 C 143.91146 68.948211 143.91146 69.98467 144.41146 71.177378 C 144.916669 72.349253 145.427085 73.531545 145.947919 74.724253 C 146.479169 75.911753 146.494794 76.979462 145.994794 77.92217 C 145.56771 78.552379 145.427085 79.250295 145.578127 80.031545 C 145.734377 80.807587 145.994794 81.463837 146.359377 81.995087 C 146.739585 82.531546 147.083335 83.469046 147.385419 84.812796 C 147.708335 86.151338 147.807294 87.661754 147.687502 89.338838 L 147.31771 93.36488 L 134.098959 92.906546 Z M 179.625005 49.901335 C 179.625005 49.838835 179.35938 49.182585 178.82813 47.932584 C 178.307296 46.682584 178.14063 45.776334 178.322921 45.213834 C 178.505213 44.771126 179.35938 44.489876 180.885421 44.364876 C 182.427088 44.245084 185.385422 44.182584 189.760422 44.182584 C 195.067714 44.182584 198.437506 44.281543 199.875006 44.479459 C 201.307298 44.661751 203.02084 45.250293 205.02084 46.239876 C 207.781257 47.677376 209.968757 49.583626 211.583341 51.958626 L 214.031257 55.620085 L 213.828132 88.312796 L 209.250007 88.495088 C 207.11459 88.630504 205.70834 88.594046 205.02084 88.380504 C 204.33334 88.151338 203.36459 87.443004 202.11459 86.250296 C 201.125006 85.323213 200.328131 84.734671 199.734381 84.489879 C 199.140631 84.229462 198.713548 84.213837 198.453131 84.443004 C 198.20834 84.656546 197.822923 84.901338 197.286464 85.177379 C 196.770839 85.453421 196.166673 85.588838 195.479173 85.588838 C 194.791673 85.588838 193.828131 86.094046 192.572922 87.099254 C 191.322922 88.088838 189.791672 88.823213 187.979172 89.291963 C 186.161464 89.765921 184.286463 89.974255 182.348963 89.911755 C 180.411463 89.849255 178.505213 89.52113 176.630213 88.927379 C 174.755213 88.333629 173.145837 87.396129 171.802087 86.114879 C 170.463546 84.833629 169.494796 83.208629 168.895837 81.239879 C 168.302087 79.276337 168.317712 76.948212 168.942712 74.26592 C 169.567712 71.64092 170.223962 69.750295 170.911462 68.588836 C 171.614587 67.432586 172.770837 66.328419 174.390629 65.276336 C 175.760421 64.390919 177.057296 63.854461 178.276046 63.672169 C 179.500005 63.489877 182.260422 63.396127 186.557297 63.396127 C 190.750006 63.396127 193.328131 63.323211 194.291673 63.172169 C 195.265631 63.000294 195.755214 62.604461 195.755214 61.979461 C 195.755214 61.052377 195.411464 60.109669 194.723964 59.16696 C 193.916673 58.114877 191.682297 57.406544 188.020839 57.036752 C 184.364588 56.656544 181.473963 56.838835 179.354171 57.588835 C 177.234379 58.333627 175.921879 58.427377 175.416671 57.864877 C 174.973963 57.422169 174.427088 56.140918 173.770838 54.021127 C 173.114587 51.901335 172.755212 50.338835 172.697921 49.328418 C 172.697921 48.521126 173.052087 48.104459 173.770838 48.073209 C 174.489588 48.041959 175.156254 48.401335 175.786463 49.146126 C 176.104171 49.469043 176.578129 49.750293 177.203129 49.995085 C 177.82813 50.234668 178.385421 50.359668 178.869796 50.359668 C 179.375005 50.359668 179.625005 50.208626 179.625005 49.901335 Z M 192.369797 68.818003 C 189.500005 67.203419 187.848964 66.396128 187.406255 66.396128 C 186.718755 66.396128 186.286464 66.708628 186.098964 67.333628 C 185.916672 67.958628 186.072922 68.583628 186.557297 69.208628 C 187.182297 69.958628 187.223964 70.98467 186.67188 72.29717 C 186.10938 73.48467 185.82813 74.693003 185.82813 75.911753 C 185.82813 77.114879 186.10938 78.000295 186.67188 78.562795 C 187.35938 79.250295 188.760422 79.562795 190.880214 79.505504 C 193.000006 79.443004 194.343756 79.068004 194.906256 78.380504 C 195.593756 77.635712 196.057298 76.260712 196.302089 74.26592 C 196.500006 72.755503 196.427089 71.771128 196.072923 71.312795 C 195.739589 70.838836 194.505214 70.010711 192.369797 68.818003 Z M 209.937507 69.48467 C 210.729174 69.48467 211.125007 69.229461 211.125007 68.729461 C 211.125007 68.224253 210.729174 67.974253 209.937507 67.974253 C 209.161465 67.974253 208.77084 68.224253 208.77084 68.729461 C 208.77084 69.229461 209.161465 69.48467 209.937507 69.48467 Z M 210.375007 71.541961 C 211.182299 70.979461 211.463549 70.666961 211.218757 70.604461 C 211.098966 70.541961 210.562507 70.48467 209.619799 70.42217 C 207.937507 70.35967 207.161465 70.64092 207.286465 71.26592 C 207.286465 71.573211 207.526049 71.885711 208.015632 72.20342 C 208.52084 72.510711 209.307299 72.291961 210.375007 71.541961 Z M 281.47918 84.375296 C 282.973971 83.630504 284.598972 83.370087 286.35418 83.599254 C 288.10418 83.812796 288.984389 84.385712 288.984389 85.312796 C 288.984389 86.062796 287.453138 86.432588 284.38543 86.432588 C 281.26043 86.432588 279.755221 86.151338 279.880221 85.588838 C 279.937513 85.281546 280.473971 84.880504 281.47918 84.375296 Z M 292.072931 83.344046 C 293.505222 82.219046 295.411472 81.682587 297.791681 81.745087 C 299.104181 81.880504 299.687514 82.234671 299.552098 82.797171 C 299.369806 83.406546 298.177098 84.062796 295.984389 84.765921 C 293.802097 85.453421 292.276056 85.635713 291.406264 85.312796 C 291.16668 85.193004 290.973972 85.083629 290.838555 84.995088 C 290.713555 84.901338 290.66668 84.781546 290.69793 84.625296 C 290.72918 84.458629 290.85418 84.286754 291.062514 84.099254 C 291.29168 83.916962 291.630222 83.666962 292.072931 83.344046 Z M 293.557306 68.271128 C 293.057306 68.010711 292.942722 67.635711 293.213556 67.151336 C 293.505222 66.646128 293.901056 66.547169 294.406264 66.854461 C 294.651056 67.052378 294.770847 67.302378 294.770847 67.609669 C 294.770847 67.911753 294.651056 68.151336 294.406264 68.318003 C 294.161472 68.469044 293.880222 68.453419 293.557306 68.271128 Z M 280.151055 27.323208 C 292.656264 25.948208 301.937515 28.979458 307.994807 36.406542 C 309.744807 38.526334 310.760432 40.088834 311.036474 41.094042 C 311.32814 42.083626 310.968765 42.771126 309.958349 43.151334 C 309.333349 43.338834 308.239599 43.932584 306.666682 44.937793 C 305.10939 45.927376 304.083348 46.422168 303.57814 46.422168 C 303.031265 46.422168 301.906265 47.078418 300.213556 48.390918 C 298.661473 49.583626 297.583348 50.177376 296.989598 50.177376 C 296.395848 50.177376 295.505222 49.552376 294.312514 48.302376 C 292.255222 46.120084 289.958347 44.776334 287.427097 44.276334 C 284.895847 43.771126 282.57293 44.161751 280.453138 45.443001 C 278.333346 46.724251 276.765638 48.734668 275.760429 51.47946 C 274.833346 54.04196 274.364596 55.88571 274.364596 57.015919 C 274.364596 57.703419 274.265637 58.146127 274.067721 58.344044 C 273.885429 58.526335 273.479179 58.515919 272.854179 58.318002 C 272.046887 58.078419 271.557304 58.146127 271.390637 58.526335 C 271.239595 58.890919 271.505221 59.38571 272.192721 60.01071 C 272.755221 60.578419 272.854179 61.140919 272.489596 61.703419 C 272.046887 62.515919 271.453137 62.781544 270.703137 62.505502 C 269.958345 62.219044 269.270845 61.515919 268.645845 60.401336 C 268.020845 59.151335 267.281262 58.13571 266.427095 57.359669 C 265.588553 56.568002 264.984387 56.359669 264.619803 56.739877 C 264.421887 56.922169 264.531262 57.312794 264.94272 57.906544 C 265.354178 58.505502 265.75522 59.052377 266.151053 59.557585 C 266.562512 60.04196 266.671887 60.32321 266.47397 60.401336 L 264.984387 60.583627 C 264.541678 60.646127 264.307303 61.062794 264.276053 61.844044 C 264.244803 62.620086 264.015637 63.291961 263.588553 63.854461 C 263.088553 64.422169 262.91147 64.953419 263.062511 65.458628 C 263.218761 65.958628 263.578137 66.229461 264.140637 66.255503 C 264.703137 66.286753 265.359387 66.114878 266.109387 65.729461 C 267.234387 65.047169 267.890637 64.984669 268.072929 65.547169 C 268.25522 66.114878 268.78647 66.396128 269.651054 66.396128 C 270.53647 66.396128 271.260429 66.114878 271.828137 65.547169 C 272.328137 65.104461 273.182304 65.135711 274.390637 65.640919 C 275.609388 66.146128 277.354179 66.870086 279.625013 67.812794 C 281.91668 68.745086 284.156263 69.302378 286.35418 69.48467 C 288.411472 69.666961 289.671889 69.870086 290.125014 70.099253 C 290.598972 70.312795 290.807305 70.76592 290.744805 71.45342 C 290.625014 72.57842 291.578139 73.875295 293.604181 75.338837 C 295.630222 76.802379 296.989598 77.193004 297.677098 76.505503 C 298.119806 76.14092 298.265639 75.818003 298.109389 75.54717 C 297.958348 75.255503 297.692723 75.052378 297.312514 74.927378 C 296.927098 74.791962 296.614598 74.510712 296.369806 74.083628 C 296.130223 73.64092 296.098973 73.073212 296.281264 72.39092 C 296.661473 71.198211 296.911473 70.541961 297.036473 70.42217 C 297.156264 70.29717 298.026056 70.786753 299.645848 71.885711 C 301.276056 72.969045 302.526056 73.911753 303.395848 74.724253 C 304.083348 75.349253 304.526057 75.661753 304.723973 75.661753 C 305.531265 75.661753 304.906265 74.479462 302.843765 72.114878 C 300.848973 69.79717 299.718764 68.323211 299.458348 67.698211 C 299.401056 67.396128 299.307306 67.166961 299.187514 67.010711 C 299.062514 66.844044 298.932306 66.729461 298.796889 66.672169 C 298.677098 66.609669 298.583348 66.609669 298.520848 66.672169 C 298.156264 66.989878 297.630223 66.870086 296.942723 66.302378 C 296.260431 65.739878 295.916681 65.114878 295.916681 64.427377 C 295.916681 63.177377 296.755223 63.015919 298.432306 63.948211 C 298.932306 64.208627 299.437514 64.521128 299.942723 64.885711 C 301.250015 65.890919 302.343765 66.396128 303.213556 66.396128 C 304.963557 66.396128 306.619807 67.453419 308.177099 69.573211 C 309.60939 71.573211 309.770849 72.885712 308.656265 73.510712 C 308.593765 73.573212 308.526057 73.630503 308.45314 73.693003 C 308.145848 73.812795 307.916682 74.021128 307.76564 74.312795 C 307.614598 74.583628 307.598973 74.880503 307.718765 75.20342 C 307.963557 75.948212 307.723973 76.557587 307.010432 77.031545 C 306.291682 77.489879 305.23439 77.818004 303.82814 78.01592 C 302.427098 78.198212 300.968765 78.338837 299.458348 78.427379 C 297.963556 78.521129 296.500014 78.651337 295.067722 78.818004 C 293.635431 78.969045 292.635431 79.198212 292.072931 79.505504 C 291.38543 79.885712 290.69793 79.838837 290.01043 79.364879 C 289.328139 78.89092 288.984389 78.250295 288.984389 77.443004 C 288.984389 77.14092 288.838555 76.896129 288.546889 76.713837 C 288.276055 76.51592 287.94793 76.416962 287.562513 76.416962 C 286.57293 76.416962 285.765638 76.026337 285.140638 75.250295 C 284.515638 74.469045 282.593763 74.083628 279.375013 74.083628 C 276.156263 74.083628 274.432304 73.771128 274.203137 73.146128 C 273.989596 72.51592 273.666679 72.39092 273.223971 72.755503 C 272.734387 73.198212 272.718762 73.791962 273.177096 74.536753 C 273.651054 75.286753 274.260429 75.661753 275.005221 75.661753 C 275.755221 75.661753 277.437513 76.01592 280.062513 76.73467 C 282.682305 77.45342 284.843763 78.161754 286.536472 78.864879 C 287.968764 79.411754 288.312514 79.937795 287.562513 80.443004 C 287.125013 80.823212 286.375013 81.010712 285.32293 81.010712 C 284.07293 80.953421 282.47918 81.026337 280.54168 81.239879 C 278.604179 81.453421 276.937513 81.661754 275.531263 81.859671 C 274.130221 82.041962 272.848971 82.104462 271.687512 82.041962 C 270.531262 81.979462 269.828137 81.729462 269.583345 81.286754 C 269.140637 80.599254 268.671887 80.411754 268.166679 80.713837 C 267.802095 80.974254 266.833345 80.448212 265.260428 79.135712 C 263.703137 77.823212 262.927095 76.85967 262.927095 76.229462 C 262.927095 75.849253 261.927095 74.479462 259.932303 72.114878 C 257.109386 68.666961 256.453136 66.573211 257.963553 65.823211 C 258.270844 65.703419 258.671886 65.609669 259.177094 65.547169 C 259.677095 65.489878 260.114595 65.302378 260.479178 65.000294 C 260.859386 64.677378 261.083345 64.328419 261.145845 63.948211 C 261.265636 63.385711 261.151053 63.010711 260.802095 62.828419 C 260.463553 62.646127 259.802095 62.552377 258.812511 62.552377 C 257.619803 62.552377 256.848969 62.432586 256.500011 62.187794 C 256.161469 61.927377 255.864594 61.265919 255.609386 60.19821 C 254.921886 56.458627 255.140636 52.526335 256.270844 48.390918 C 257.765636 42.901334 260.776053 38.172167 265.307303 34.208625 C 269.838554 30.245083 274.786471 27.948208 280.151055 27.323208 Z M 270.614595 69.48467 C 270.234387 69.48467 269.84897 69.406545 269.468762 69.255503 C 269.104179 69.088836 268.807304 68.911753 268.578137 68.729461 C 268.364595 68.547169 268.166679 68.390919 267.984387 68.271128 C 267.802095 68.135711 267.640637 68.135711 267.50522 68.271128 C 267.38022 68.390919 267.229178 68.635711 267.046887 69.005503 C 266.479178 70.510711 266.791678 71.60967 267.984387 72.29717 C 269.171887 72.98467 270.515637 72.823212 272.010429 71.818003 C 272.697929 71.45342 272.864596 70.969045 272.510429 70.375295 C 272.177096 69.781545 271.541679 69.48467 270.614595 69.48467 Z M 281.296888 70.969045 C 281.296888 70.666961 281.119805 70.45342 280.770846 70.32842 C 280.437513 70.208628 280.046888 70.208628 279.60418 70.32842 C 279.161471 70.45342 278.817721 70.70342 278.572929 71.083628 C 278.255221 71.635711 278.218763 72.036753 278.458346 72.29717 C 278.718763 72.541961 279.255221 72.479461 280.062513 72.114878 C 280.88543 71.73467 281.296888 71.349253 281.296888 70.969045 Z M 288.869805 71.724253 C 288.442722 71.42217 287.932305 71.224253 287.338555 71.130503 C 286.739597 71.026336 286.223972 71.026336 285.781263 71.130503 C 285.35418 71.224253 285.140638 71.42217 285.140638 71.724253 C 285.140638 72.166961 285.796888 72.562795 287.109388 72.916962 C 288.41668 73.250295 289.26043 73.255503 289.625014 72.937795 C 289.942722 72.630503 289.692722 72.229461 288.869805 71.724253 Z M 313.135432 71.45342 C 313.015641 57.083627 313.046891 49.620085 313.229182 49.057585 C 313.411474 48.489876 316.411474 48.239876 322.218766 48.302376 L 330.937517 48.484668 L 331.234392 51.687793 C 331.354184 53.562793 331.630225 54.588835 332.057309 54.776335 C 332.500017 54.958627 333.192726 54.364877 334.140642 52.989877 C 335.005226 51.614876 336.380226 50.437793 338.255226 49.443001 C 340.130226 48.437793 341.755226 47.995084 343.130226 48.114876 L 345.552102 48.390918 L 345.734393 57.406544 C 345.875018 61.583627 345.875018 64.161752 345.734393 65.135711 C 345.614602 66.099253 345.177102 66.797169 344.43231 67.239878 C 343.364601 67.791961 342.58856 67.911753 342.098976 67.609669 C 341.656268 67.302378 340.437518 67.651336 338.437518 68.661753 C 336.442726 69.651336 335.067726 70.583628 334.322934 71.45342 C 332.322934 73.89092 331.322934 78.573212 331.322934 85.495088 C 331.322934 90.193005 331.072934 92.541963 330.567725 92.541963 C 330.125017 92.541963 329.843767 91.437796 329.723975 89.224255 C 329.598975 87.000296 329.510434 84.682587 329.447934 82.271129 C 329.385434 79.85967 329.166684 78.505504 328.786475 78.198212 C 328.416683 77.880504 328.234392 77.161754 328.234392 76.04717 C 328.234392 75.224253 327.937517 74.380503 327.343767 73.510712 C 326.750017 72.64092 326.421892 71.89092 326.359392 71.26592 C 326.223975 69.208628 326.093767 67.880503 325.973975 67.286753 C 325.848975 66.693003 325.635433 66.396128 325.33335 66.396128 C 324.765642 66.396128 324.203141 66.953419 323.640641 68.062794 C 323.135433 68.948211 323.135433 69.98467 323.640641 71.177378 C 324.140641 72.349253 324.651058 73.531545 325.171892 74.724253 C 325.703142 75.911753 325.718767 76.979462 325.218767 77.92217 C 324.791683 78.552379 324.651058 79.250295 324.807308 80.031545 C 324.95835 80.807587 325.218767 81.463837 325.58335 81.995087 C 325.963558 82.531546 326.307308 83.469046 326.609392 84.812796 C 326.932308 86.151338 327.031267 87.661754 326.911475 89.338838 L 326.541683 93.36488 L 313.322932 92.906546 Z M 363.265645 49.625293 C 365.203145 48.927376 366.87502 48.484668 368.276062 48.302376 C 369.677104 48.114876 371.630229 48.088834 374.130229 48.208626 C 377.380229 48.390918 380.125021 48.896126 382.369813 49.719043 C 384.625021 50.526335 387.03648 51.932585 389.59898 53.927377 C 392.78648 56.370085 395.020856 59.776335 396.296897 64.151336 C 397.578147 68.515919 397.656272 72.943003 396.526064 77.443004 C 395.401064 81.562796 393.25523 85.062796 390.09898 87.943004 C 386.958355 90.812796 383.395855 92.755505 379.416688 93.776338 C 375.453146 94.812797 371.25002 94.911755 366.81252 94.073213 C 362.390645 93.234672 358.427103 91.375296 354.916686 88.495088 C 352.43231 86.375296 350.671894 84.177379 349.630227 81.906546 C 348.593768 79.620087 347.984393 76.443003 347.802102 72.39092 C 347.68231 69.385711 347.708352 67.312794 347.895852 66.166961 C 348.078143 65.005503 348.578143 63.552377 349.406269 61.797169 C 350.71356 59.172169 352.614602 56.771127 355.098977 54.588835 C 357.598978 52.396127 360.322936 50.739876 363.265645 49.625293 Z M 377.791688 66.213836 C 376.906271 65.390919 376.078146 64.838836 375.296896 64.562794 C 374.520854 64.276336 373.416687 64.130502 371.984395 64.130502 C 370.489604 64.130502 369.442729 64.260711 368.848978 64.521128 C 368.255228 64.765919 367.671895 65.291961 367.109395 66.099253 C 366.302103 67.411753 365.708353 69.193003 365.322937 71.45342 C 365.083353 73.005503 365.067728 74.083628 365.28127 74.677378 C 365.494812 75.271128 366.255228 76.193003 367.567728 77.443004 C 368.880228 78.818004 370.28127 79.661754 371.776062 79.98467 C 373.286479 80.286754 374.635437 80.146129 375.822937 79.54717 C 377.015646 78.95342 378.000021 77.92217 378.776063 76.458628 C 379.552104 74.995087 379.942729 73.26592 379.942729 71.26592 C 379.942729 70.14092 379.781271 69.219045 379.463563 68.500294 C 379.156271 67.781544 378.598979 67.021128 377.791688 66.213836 Z M 407.015648 73.32842 C 407.942732 72.943003 410.614607 72.854462 415.020857 73.052378 C 419.427108 73.23467 421.854191 73.54717 422.296899 73.989878 C 422.598983 74.29717 422.843775 77.010712 423.026066 82.135712 L 423.2344 89.818005 L 405.32294 90.276338 L 405.32294 82.135712 C 405.32294 78.323212 405.395856 75.979462 405.552106 75.10967 C 405.718773 74.224253 406.208357 73.630503 407.015648 73.32842 Z M 418.729191 29.3805 C 420.281274 29.198208 422.6094 29.229458 425.70315 29.47425 C 428.802108 29.719041 430.880234 30.031541 431.947942 30.41175 C 432.755234 30.656541 433.239609 31.088833 433.39065 31.713833 C 433.541692 32.338833 433.588567 33.844042 433.526067 36.22425 L 433.343775 41.458626 L 429.411483 41.458626 C 427.473983 41.521126 425.895858 41.833626 424.677108 42.396126 C 423.45315 42.963834 422.973983 43.651334 423.2344 44.458626 C 423.416691 45.021126 425.130233 45.432584 428.380233 45.693001 L 433.343775 46.057584 L 433.437525 51.594043 C 433.557317 55.271127 433.307317 57.375294 432.682317 57.906544 C 432.057317 58.443002 430.463567 58.771127 427.901067 58.890919 C 426.286483 59.015919 425.239608 59.203419 424.76565 59.463835 C 424.291691 59.708627 423.937525 60.234669 423.692733 61.041961 C 423.385441 62.354461 422.6719 63.260711 421.541691 63.765919 C 419.541691 64.635711 419.541691 65.349253 421.541691 65.916961 C 422.6094 66.234669 423.010441 66.708628 422.755233 67.333628 C 422.572941 68.021128 419.822941 68.364878 414.515649 68.364878 C 409.208357 68.364878 406.458357 68.052378 406.26044 67.422169 C 406.13544 67.104461 406.26044 66.885711 406.625023 66.760711 C 407.005232 66.640919 407.838565 66.515919 409.119815 66.396128 C 410.401065 66.271128 411.473982 66.146128 412.343774 66.005503 C 413.473982 65.823211 414.427107 65.818003 415.203149 65.984669 C 415.994816 66.135711 416.500024 66.333628 416.713566 66.578419 C 416.927107 66.823211 417.203149 66.984669 417.536482 67.057586 C 417.890649 67.120086 418.223982 66.958628 418.541691 66.578419 C 419.671899 65.448211 418.859399 64.635711 416.098982 64.130502 C 415.041691 63.948211 413.703149 63.797169 412.067732 63.672169 C 409.083357 63.489877 407.218773 63.245086 406.489607 62.943002 C 405.770856 62.620086 405.32294 61.864877 405.140648 60.677377 C 404.958356 59.672169 403.989606 59.015919 402.234398 58.708627 C 400.677106 58.526335 399.739606 57.91696 399.421898 56.880502 C 399.114606 55.844043 399.145856 53.484668 399.510439 49.807585 C 399.770856 47.489876 400.020856 46.104459 400.265648 45.646126 C 400.510439 45.172168 401.229189 44.875293 402.41669 44.755501 C 403.546898 44.614876 404.26044 44.333626 404.567731 43.906542 C 404.88544 43.463834 405.270856 42.182584 405.708356 40.062792 C 406.395857 36.693 407.723982 34.203417 409.692732 32.583625 C 411.656274 30.953416 414.671899 29.885708 418.729191 29.3805 Z M 440.276068 43.338834 C 440.395859 40.531542 440.552109 38.844042 440.734401 38.281542 C 440.932318 37.713834 444.057318 37.463834 450.109402 37.526334 L 459.192736 37.614875 L 459.401069 42.786751 C 459.520861 45.594043 459.859403 47.234668 460.406278 47.703418 C 460.968778 48.161751 462.786486 48.271126 465.848986 48.026334 C 467.484403 47.963834 468.49482 48.453418 468.890653 49.489876 C 469.302112 50.51071 469.348987 52.739877 469.031278 56.172168 L 468.390653 62.161752 L 459.192736 63.010711 L 459.010444 69.849253 C 458.890652 74.349253 459.156277 77.146129 459.812528 78.245087 C 460.468778 79.344045 462.166694 79.854462 464.911486 79.776337 L 468.848987 79.594045 L 468.848987 86.068004 C 468.848987 89.255505 468.739612 91.17738 468.52607 91.83363 C 468.312528 92.48988 467.703153 93.031546 466.697945 93.45863 C 464.880236 94.156547 462.067736 94.573213 458.255236 94.693005 C 454.45836 94.812797 451.80211 94.531547 450.296902 93.844047 C 449.671902 93.588838 448.968777 93.307588 448.187527 93.000296 C 447.411485 92.693005 446.880235 92.479463 446.588568 92.359671 C 446.312526 92.224255 445.95836 92.000296 445.515651 91.698213 C 445.088568 91.375296 444.682318 90.984671 444.30211 90.531546 C 443.937526 90.057588 443.500026 89.380505 442.994818 88.495088 C 441.989609 87.000296 441.359401 85.536754 441.098984 84.099254 C 440.854193 82.666962 440.640651 79.32842 440.458359 74.083628 L 440.000026 63.010711 L 435.401067 62.161752 L 435.401067 48.390918 L 437.734401 48.026334 C 438.802109 47.844043 439.458359 47.515918 439.703151 47.041959 C 439.963568 46.568001 440.151068 45.333626 440.276068 43.338834 Z M 440.276068 43.338834 " stroke="#4a3c73" stroke-width="2.108268" stroke-opacity="1" stroke-miterlimit="4"/><g fill="#f1f1f1" fill-opacity="1"><g transform="translate(22.300787, 62.722434)"><g><path d="M 7.171875 -45.640625 C 8.203125 -46.460938 9.84375 -47.363281 12.09375 -48.34375 C 14.34375 -49.332031 17.222656 -49.863281 20.734375 -49.9375 C 24.242188 -50.007812 27.21875 -49.625 29.65625 -48.78125 C 30.6875 -48.40625 31.597656 -48.125 32.390625 -47.9375 C 33.191406 -47.75 33.753906 -47.617188 34.078125 -47.546875 C 34.410156 -47.472656 34.84375 -47.304688 35.375 -47.046875 C 35.914062 -46.796875 36.609375 -46.390625 37.453125 -45.828125 C 38.722656 -44.984375 39.4375 -44.40625 39.59375 -44.09375 C 39.757812 -43.789062 39.632812 -43.265625 39.21875 -42.515625 C 38.789062 -41.671875 38.144531 -40.800781 37.28125 -39.90625 C 36.414062 -39.019531 35.984375 -38.390625 35.984375 -38.015625 C 35.984375 -36.941406 35.113281 -36.332031 33.375 -36.1875 C 31.644531 -36.050781 29.539062 -36.40625 27.0625 -37.25 C 24.851562 -38 22.8125 -38.375 20.9375 -38.375 C 19.8125 -38.375 19.003906 -38.28125 18.515625 -38.09375 C 18.023438 -37.90625 17.59375 -37.53125 17.21875 -36.96875 C 16.613281 -36.03125 16.425781 -35.375 16.65625 -35 C 16.800781 -34.769531 17.46875 -34.535156 18.65625 -34.296875 C 19.851562 -34.066406 21.820312 -33.644531 24.5625 -33.03125 C 27.300781 -32.425781 30.148438 -31.609375 33.109375 -30.578125 C 33.710938 -30.335938 33.734375 -29.960938 33.171875 -29.453125 C 32.703125 -29.078125 32.164062 -28.890625 31.5625 -28.890625 C 31.28125 -28.890625 31.046875 -28.796875 30.859375 -28.609375 C 30.671875 -28.421875 30.578125 -28.207031 30.578125 -27.96875 C 30.578125 -27.363281 31.394531 -27.128906 33.03125 -27.265625 C 34.0625 -27.359375 34.578125 -27.289062 34.578125 -27.0625 C 34.535156 -26.914062 34.441406 -26.75 34.296875 -26.5625 C 33.640625 -25.769531 33.59375 -25.328125 34.15625 -25.234375 C 34.53125 -25.179688 35.046875 -25.320312 35.703125 -25.65625 C 37.617188 -26.6875 39.117188 -26.171875 40.203125 -24.109375 C 41.421875 -21.859375 41.535156 -19.117188 40.546875 -15.890625 C 40.265625 -15.046875 39.9375 -14.269531 39.5625 -13.5625 C 38.0625 -10.65625 35.859375 -8.535156 32.953125 -7.203125 C 30.054688 -5.867188 26.285156 -5.222656 21.640625 -5.265625 C 17.753906 -5.316406 14.085938 -5.84375 10.640625 -6.84375 C 7.203125 -7.851562 4.453125 -9.226562 2.390625 -10.96875 L 0.703125 -12.296875 L 4 -16.453125 C 6.15625 -19.160156 7.394531 -20.515625 7.71875 -20.515625 C 8.050781 -20.515625 9.4375 -19.90625 11.875 -18.6875 C 13.5625 -17.851562 14.882812 -17.328125 15.84375 -17.109375 C 16.8125 -16.898438 18.535156 -16.796875 21.015625 -16.796875 C 23.585938 -16.796875 25.15625 -16.851562 25.71875 -16.96875 C 26.28125 -17.09375 26.609375 -17.429688 26.703125 -17.984375 C 26.796875 -18.785156 26.476562 -19.429688 25.75 -19.921875 C 25.03125 -20.410156 23.707031 -20.867188 21.78125 -21.296875 C 15.882812 -22.609375 11.53125 -23.988281 8.71875 -25.4375 C 5.90625 -26.894531 4.03125 -28.75 3.09375 -31 C 2.8125 -31.695312 2.691406 -32.207031 2.734375 -32.53125 C 2.785156 -32.863281 3.019531 -33.289062 3.4375 -33.8125 C 3.957031 -34.320312 4.21875 -34.644531 4.21875 -34.78125 C 4.21875 -34.925781 4.003906 -35.09375 3.578125 -35.28125 C 2.828125 -35.5625 2.519531 -36.359375 2.65625 -37.671875 C 2.800781 -38.984375 3.320312 -40.410156 4.21875 -41.953125 C 5.15625 -43.597656 6.140625 -44.828125 7.171875 -45.640625 Z M 8.890625 -34.15625 C 9.710938 -34.34375 10.125 -34.609375 10.125 -34.953125 C 10.125 -35.304688 9.453125 -35.484375 8.109375 -35.484375 C 6.773438 -35.484375 6.015625 -35.320312 5.828125 -35 C 5.734375 -34.8125 5.769531 -34.644531 5.9375 -34.5 C 6.101562 -34.363281 6.328125 -34.25 6.609375 -34.15625 C 7.304688 -33.96875 8.066406 -33.96875 8.890625 -34.15625 Z M 13.53125 -34.375 C 14.675781 -34.375 15.25 -34.554688 15.25 -34.921875 C 15.25 -35.296875 14.675781 -35.484375 13.53125 -35.484375 C 12.382812 -35.484375 11.8125 -35.296875 11.8125 -34.921875 C 11.8125 -34.554688 12.382812 -34.375 13.53125 -34.375 Z M 29.03125 -29.375 C 29.445312 -29.65625 29.550781 -29.972656 29.34375 -30.328125 C 29.132812 -30.679688 28.757812 -30.859375 28.21875 -30.859375 C 27.675781 -30.859375 27.289062 -30.671875 27.0625 -30.296875 C 26.914062 -30.054688 26.957031 -29.832031 27.1875 -29.625 C 27.425781 -29.414062 27.722656 -29.285156 28.078125 -29.234375 C 28.429688 -29.191406 28.75 -29.238281 29.03125 -29.375 Z M 29.03125 -29.375 "/></g></g></g><g fill="#f1f1f1" fill-opacity="1"><g transform="translate(64.108844, 62.722434)"><g><path d="M 9.0625 -32.328125 C 9.0625 -32.378906 8.863281 -32.867188 8.46875 -33.796875 C 8.070312 -34.734375 7.941406 -35.414062 8.078125 -35.84375 C 8.222656 -36.164062 8.867188 -36.375 10.015625 -36.46875 C 11.160156 -36.5625 13.375 -36.609375 16.65625 -36.609375 C 20.632812 -36.609375 23.160156 -36.535156 24.234375 -36.390625 C 25.316406 -36.253906 26.609375 -35.816406 28.109375 -35.078125 C 30.171875 -33.992188 31.8125 -32.5625 33.03125 -30.78125 L 34.859375 -28.046875 L 34.71875 -3.515625 L 31.28125 -3.375 C 29.6875 -3.28125 28.628906 -3.3125 28.109375 -3.46875 C 27.597656 -3.632812 26.875 -4.164062 25.9375 -5.0625 C 25.1875 -5.757812 24.585938 -6.203125 24.140625 -6.390625 C 23.691406 -6.578125 23.375 -6.585938 23.1875 -6.421875 C 23 -6.265625 22.707031 -6.078125 22.3125 -5.859375 C 21.914062 -5.648438 21.457031 -5.546875 20.9375 -5.546875 C 20.425781 -5.546875 19.703125 -5.171875 18.765625 -4.421875 C 17.828125 -3.671875 16.675781 -3.117188 15.3125 -2.765625 C 13.957031 -2.421875 12.550781 -2.269531 11.09375 -2.3125 C 9.644531 -2.363281 8.21875 -2.609375 6.8125 -3.046875 C 5.40625 -3.492188 4.195312 -4.195312 3.1875 -5.15625 C 2.1875 -6.125 1.460938 -7.34375 1.015625 -8.8125 C 0.566406 -10.289062 0.578125 -12.039062 1.046875 -14.0625 C 1.515625 -16.03125 2.003906 -17.445312 2.515625 -18.3125 C 3.035156 -19.175781 3.90625 -20.003906 5.125 -20.796875 C 6.15625 -21.453125 7.128906 -21.847656 8.046875 -21.984375 C 8.960938 -22.128906 11.035156 -22.203125 14.265625 -22.203125 C 17.398438 -22.203125 19.332031 -22.257812 20.0625 -22.375 C 20.789062 -22.5 21.15625 -22.796875 21.15625 -23.265625 C 21.15625 -23.960938 20.894531 -24.664062 20.375 -25.375 C 19.769531 -26.164062 18.097656 -26.703125 15.359375 -26.984375 C 12.617188 -27.265625 10.453125 -27.125 8.859375 -26.5625 C 7.265625 -26 6.28125 -25.929688 5.90625 -26.359375 C 5.570312 -26.679688 5.160156 -27.640625 4.671875 -29.234375 C 4.179688 -30.828125 3.910156 -32 3.859375 -32.75 C 3.859375 -33.363281 4.128906 -33.679688 4.671875 -33.703125 C 5.210938 -33.722656 5.71875 -33.453125 6.1875 -32.890625 C 6.414062 -32.660156 6.765625 -32.453125 7.234375 -32.265625 C 7.703125 -32.078125 8.125 -31.984375 8.5 -31.984375 C 8.875 -31.984375 9.0625 -32.097656 9.0625 -32.328125 Z M 18.625 -18.125 C 16.46875 -19.34375 15.226562 -19.953125 14.90625 -19.953125 C 14.382812 -19.953125 14.050781 -19.71875 13.90625 -19.25 C 13.769531 -18.78125 13.890625 -18.3125 14.265625 -17.84375 C 14.734375 -17.289062 14.757812 -16.519531 14.34375 -15.53125 C 13.914062 -14.644531 13.703125 -13.742188 13.703125 -12.828125 C 13.703125 -11.910156 13.914062 -11.242188 14.34375 -10.828125 C 14.851562 -10.304688 15.90625 -10.066406 17.5 -10.109375 C 19.09375 -10.160156 20.097656 -10.445312 20.515625 -10.96875 C 21.035156 -11.53125 21.390625 -12.5625 21.578125 -14.0625 C 21.710938 -15.1875 21.648438 -15.921875 21.390625 -16.265625 C 21.140625 -16.617188 20.21875 -17.238281 18.625 -18.125 Z M 31.796875 -17.640625 C 32.390625 -17.640625 32.6875 -17.828125 32.6875 -18.203125 C 32.6875 -18.578125 32.390625 -18.765625 31.796875 -18.765625 C 31.210938 -18.765625 30.921875 -18.578125 30.921875 -18.203125 C 30.921875 -17.828125 31.210938 -17.640625 31.796875 -17.640625 Z M 32.125 -16.09375 C 32.726562 -16.519531 32.9375 -16.753906 32.75 -16.796875 C 32.65625 -16.847656 32.257812 -16.894531 31.5625 -16.9375 C 30.289062 -16.988281 29.703125 -16.78125 29.796875 -16.3125 C 29.796875 -16.070312 29.984375 -15.835938 30.359375 -15.609375 C 30.734375 -15.367188 31.320312 -15.53125 32.125 -16.09375 Z M 32.125 -16.09375 "/></g></g></g><g fill="#f1f1f1" fill-opacity="1"><g transform="translate(99.663265, 62.722434)"><g><path d="M 0.765625 -16.171875 C 0.671875 -26.941406 0.691406 -32.535156 0.828125 -32.953125 C 0.972656 -33.378906 3.226562 -33.570312 7.59375 -33.53125 L 14.125 -33.390625 L 14.34375 -31 C 14.4375 -29.59375 14.644531 -28.816406 14.96875 -28.671875 C 15.300781 -28.535156 15.816406 -28.984375 16.515625 -30.015625 C 17.171875 -31.046875 18.203125 -31.9375 19.609375 -32.6875 C 21.015625 -33.4375 22.234375 -33.765625 23.265625 -33.671875 L 25.09375 -33.453125 L 25.234375 -26.703125 C 25.328125 -23.566406 25.328125 -21.632812 25.234375 -20.90625 C 25.140625 -20.175781 24.8125 -19.648438 24.25 -19.328125 C 23.445312 -18.898438 22.859375 -18.804688 22.484375 -19.046875 C 22.160156 -19.273438 21.25 -19.015625 19.75 -18.265625 C 18.25 -17.523438 17.21875 -16.828125 16.65625 -16.171875 C 15.15625 -14.335938 14.40625 -10.820312 14.40625 -5.625 C 14.40625 -2.101562 14.21875 -0.34375 13.84375 -0.34375 C 13.519531 -0.34375 13.3125 -1.175781 13.21875 -2.84375 C 13.125 -4.507812 13.050781 -6.242188 13 -8.046875 C 12.957031 -9.847656 12.796875 -10.867188 12.515625 -11.109375 C 12.234375 -11.335938 12.09375 -11.875 12.09375 -12.71875 C 12.09375 -13.332031 11.867188 -13.96875 11.421875 -14.625 C 10.972656 -15.28125 10.726562 -15.84375 10.6875 -16.3125 C 10.59375 -17.851562 10.5 -18.84375 10.40625 -19.28125 C 10.3125 -19.726562 10.144531 -19.953125 9.90625 -19.953125 C 9.488281 -19.953125 9.066406 -19.53125 8.640625 -18.6875 C 8.265625 -18.03125 8.265625 -17.257812 8.640625 -16.375 C 9.015625 -15.488281 9.398438 -14.597656 9.796875 -13.703125 C 10.203125 -12.816406 10.21875 -12.019531 9.84375 -11.3125 C 9.507812 -10.84375 9.398438 -10.316406 9.515625 -9.734375 C 9.640625 -9.148438 9.84375 -8.65625 10.125 -8.25 C 10.40625 -7.851562 10.660156 -7.148438 10.890625 -6.140625 C 11.128906 -5.140625 11.203125 -4.003906 11.109375 -2.734375 L 10.828125 0.28125 L 0.90625 -0.0625 Z M 0.765625 -16.171875 "/></g></g></g><g fill="#f1f1f1" fill-opacity="1"><g transform="translate(125.66155, 62.722434)"><g><path d="M 9.0625 -32.328125 C 9.0625 -32.378906 8.863281 -32.867188 8.46875 -33.796875 C 8.070312 -34.734375 7.941406 -35.414062 8.078125 -35.84375 C 8.222656 -36.164062 8.867188 -36.375 10.015625 -36.46875 C 11.160156 -36.5625 13.375 -36.609375 16.65625 -36.609375 C 20.632812 -36.609375 23.160156 -36.535156 24.234375 -36.390625 C 25.316406 -36.253906 26.609375 -35.816406 28.109375 -35.078125 C 30.171875 -33.992188 31.8125 -32.5625 33.03125 -30.78125 L 34.859375 -28.046875 L 34.71875 -3.515625 L 31.28125 -3.375 C 29.6875 -3.28125 28.628906 -3.3125 28.109375 -3.46875 C 27.597656 -3.632812 26.875 -4.164062 25.9375 -5.0625 C 25.1875 -5.757812 24.585938 -6.203125 24.140625 -6.390625 C 23.691406 -6.578125 23.375 -6.585938 23.1875 -6.421875 C 23 -6.265625 22.707031 -6.078125 22.3125 -5.859375 C 21.914062 -5.648438 21.457031 -5.546875 20.9375 -5.546875 C 20.425781 -5.546875 19.703125 -5.171875 18.765625 -4.421875 C 17.828125 -3.671875 16.675781 -3.117188 15.3125 -2.765625 C 13.957031 -2.421875 12.550781 -2.269531 11.09375 -2.3125 C 9.644531 -2.363281 8.21875 -2.609375 6.8125 -3.046875 C 5.40625 -3.492188 4.195312 -4.195312 3.1875 -5.15625 C 2.1875 -6.125 1.460938 -7.34375 1.015625 -8.8125 C 0.566406 -10.289062 0.578125 -12.039062 1.046875 -14.0625 C 1.515625 -16.03125 2.003906 -17.445312 2.515625 -18.3125 C 3.035156 -19.175781 3.90625 -20.003906 5.125 -20.796875 C 6.15625 -21.453125 7.128906 -21.847656 8.046875 -21.984375 C 8.960938 -22.128906 11.035156 -22.203125 14.265625 -22.203125 C 17.398438 -22.203125 19.332031 -22.257812 20.0625 -22.375 C 20.789062 -22.5 21.15625 -22.796875 21.15625 -23.265625 C 21.15625 -23.960938 20.894531 -24.664062 20.375 -25.375 C 19.769531 -26.164062 18.097656 -26.703125 15.359375 -26.984375 C 12.617188 -27.265625 10.453125 -27.125 8.859375 -26.5625 C 7.265625 -26 6.28125 -25.929688 5.90625 -26.359375 C 5.570312 -26.679688 5.160156 -27.640625 4.671875 -29.234375 C 4.179688 -30.828125 3.910156 -32 3.859375 -32.75 C 3.859375 -33.363281 4.128906 -33.679688 4.671875 -33.703125 C 5.210938 -33.722656 5.71875 -33.453125 6.1875 -32.890625 C 6.414062 -32.660156 6.765625 -32.453125 7.234375 -32.265625 C 7.703125 -32.078125 8.125 -31.984375 8.5 -31.984375 C 8.875 -31.984375 9.0625 -32.097656 9.0625 -32.328125 Z M 18.625 -18.125 C 16.46875 -19.34375 15.226562 -19.953125 14.90625 -19.953125 C 14.382812 -19.953125 14.050781 -19.71875 13.90625 -19.25 C 13.769531 -18.78125 13.890625 -18.3125 14.265625 -17.84375 C 14.734375 -17.289062 14.757812 -16.519531 14.34375 -15.53125 C 13.914062 -14.644531 13.703125 -13.742188 13.703125 -12.828125 C 13.703125 -11.910156 13.914062 -11.242188 14.34375 -10.828125 C 14.851562 -10.304688 15.90625 -10.066406 17.5 -10.109375 C 19.09375 -10.160156 20.097656 -10.445312 20.515625 -10.96875 C 21.035156 -11.53125 21.390625 -12.5625 21.578125 -14.0625 C 21.710938 -15.1875 21.648438 -15.921875 21.390625 -16.265625 C 21.140625 -16.617188 20.21875 -17.238281 18.625 -18.125 Z M 31.796875 -17.640625 C 32.390625 -17.640625 32.6875 -17.828125 32.6875 -18.203125 C 32.6875 -18.578125 32.390625 -18.765625 31.796875 -18.765625 C 31.210938 -18.765625 30.921875 -18.578125 30.921875 -18.203125 C 30.921875 -17.828125 31.210938 -17.640625 31.796875 -17.640625 Z M 32.125 -16.09375 C 32.726562 -16.519531 32.9375 -16.753906 32.75 -16.796875 C 32.65625 -16.847656 32.257812 -16.894531 31.5625 -16.9375 C 30.289062 -16.988281 29.703125 -16.78125 29.796875 -16.3125 C 29.796875 -16.070312 29.984375 -15.835938 30.359375 -15.609375 C 30.734375 -15.367188 31.320312 -15.53125 32.125 -16.09375 Z M 32.125 -16.09375 "/></g></g></g><g fill="#f1f1f1" fill-opacity="1"><g transform="translate(161.215971, 62.722434)"><g/></g></g><g fill="#f1f1f1" fill-opacity="1"><g transform="translate(190.727546, 62.722434)"><g><path d="M 20.375 -6.46875 C 21.5 -7.03125 22.71875 -7.226562 24.03125 -7.0625 C 25.34375 -6.894531 26 -6.460938 26 -5.765625 C 26 -5.203125 24.851562 -4.921875 22.5625 -4.921875 C 20.21875 -4.921875 19.09375 -5.128906 19.1875 -5.546875 C 19.226562 -5.785156 19.625 -6.09375 20.375 -6.46875 Z M 28.328125 -7.234375 C 29.398438 -8.078125 30.828125 -8.476562 32.609375 -8.4375 C 33.597656 -8.34375 34.046875 -8.082031 33.953125 -7.65625 C 33.804688 -7.1875 32.910156 -6.691406 31.265625 -6.171875 C 29.628906 -5.660156 28.484375 -5.523438 27.828125 -5.765625 C 27.640625 -5.859375 27.5 -5.9375 27.40625 -6 C 27.3125 -6.070312 27.273438 -6.164062 27.296875 -6.28125 C 27.328125 -6.40625 27.421875 -6.535156 27.578125 -6.671875 C 27.742188 -6.816406 27.992188 -7.003906 28.328125 -7.234375 Z M 29.453125 -18.546875 C 29.078125 -18.734375 28.992188 -19.015625 29.203125 -19.390625 C 29.410156 -19.765625 29.703125 -19.835938 30.078125 -19.609375 C 30.265625 -19.460938 30.359375 -19.269531 30.359375 -19.03125 C 30.359375 -18.800781 30.265625 -18.628906 30.078125 -18.515625 C 29.890625 -18.398438 29.679688 -18.410156 29.453125 -18.546875 Z M 19.390625 -49.265625 C 28.765625 -50.296875 35.722656 -48.023438 40.265625 -42.453125 C 41.578125 -40.859375 42.335938 -39.6875 42.546875 -38.9375 C 42.765625 -38.1875 42.5 -37.671875 41.75 -37.390625 C 41.28125 -37.242188 40.457031 -36.796875 39.28125 -36.046875 C 38.113281 -35.304688 37.34375 -34.9375 36.96875 -34.9375 C 36.539062 -34.9375 35.695312 -34.441406 34.4375 -33.453125 C 33.269531 -32.566406 32.460938 -32.125 32.015625 -32.125 C 31.566406 -32.125 30.898438 -32.59375 30.015625 -33.53125 C 28.460938 -35.164062 26.738281 -36.171875 24.84375 -36.546875 C 22.945312 -36.921875 21.203125 -36.628906 19.609375 -35.671875 C 18.015625 -34.710938 16.84375 -33.203125 16.09375 -31.140625 C 15.394531 -29.210938 15.046875 -27.828125 15.046875 -26.984375 C 15.046875 -26.472656 14.972656 -26.144531 14.828125 -26 C 14.691406 -25.863281 14.390625 -25.863281 13.921875 -26 C 13.304688 -26.1875 12.941406 -26.140625 12.828125 -25.859375 C 12.710938 -25.578125 12.910156 -25.203125 13.421875 -24.734375 C 13.847656 -24.316406 13.921875 -23.894531 13.640625 -23.46875 C 13.304688 -22.863281 12.859375 -22.664062 12.296875 -22.875 C 11.734375 -23.082031 11.21875 -23.609375 10.75 -24.453125 C 10.28125 -25.390625 9.726562 -26.148438 9.09375 -26.734375 C 8.46875 -27.328125 8.015625 -27.484375 7.734375 -27.203125 C 7.585938 -27.054688 7.664062 -26.757812 7.96875 -26.3125 C 8.28125 -25.875 8.585938 -25.46875 8.890625 -25.09375 C 9.191406 -24.71875 9.273438 -24.503906 9.140625 -24.453125 L 8.015625 -24.3125 C 7.679688 -24.269531 7.503906 -23.953125 7.484375 -23.359375 C 7.460938 -22.773438 7.285156 -22.273438 6.953125 -21.859375 C 6.578125 -21.429688 6.445312 -21.03125 6.5625 -20.65625 C 6.6875 -20.28125 6.957031 -20.082031 7.375 -20.0625 C 7.800781 -20.039062 8.296875 -20.171875 8.859375 -20.453125 C 9.703125 -20.960938 10.191406 -21.007812 10.328125 -20.59375 C 10.472656 -20.164062 10.875 -19.953125 11.53125 -19.953125 C 12.1875 -19.953125 12.722656 -20.164062 13.140625 -20.59375 C 13.515625 -20.914062 14.160156 -20.890625 15.078125 -20.515625 C 15.992188 -20.140625 17.304688 -19.597656 19.015625 -18.890625 C 20.722656 -18.191406 22.394531 -17.773438 24.03125 -17.640625 C 25.582031 -17.503906 26.53125 -17.351562 26.875 -17.1875 C 27.226562 -17.019531 27.382812 -16.679688 27.34375 -16.171875 C 27.25 -15.328125 27.960938 -14.351562 29.484375 -13.25 C 31.003906 -12.144531 32.023438 -11.851562 32.546875 -12.375 C 32.867188 -12.65625 32.972656 -12.898438 32.859375 -13.109375 C 32.742188 -13.316406 32.546875 -13.46875 32.265625 -13.5625 C 31.984375 -13.65625 31.75 -13.863281 31.5625 -14.1875 C 31.375 -14.519531 31.347656 -14.945312 31.484375 -15.46875 C 31.765625 -16.351562 31.953125 -16.84375 32.046875 -16.9375 C 32.140625 -17.03125 32.796875 -16.664062 34.015625 -15.84375 C 35.234375 -15.03125 36.171875 -14.316406 36.828125 -13.703125 C 37.335938 -13.234375 37.664062 -13 37.8125 -13 C 38.414062 -13 37.945312 -13.890625 36.40625 -15.671875 C 34.90625 -17.398438 34.0625 -18.5 33.875 -18.96875 C 33.832031 -19.207031 33.765625 -19.382812 33.671875 -19.5 C 33.578125 -19.613281 33.484375 -19.691406 33.390625 -19.734375 C 33.296875 -19.785156 33.222656 -19.789062 33.171875 -19.75 C 32.890625 -19.507812 32.488281 -19.597656 31.96875 -20.015625 C 31.457031 -20.441406 31.203125 -20.914062 31.203125 -21.4375 C 31.203125 -22.375 31.835938 -22.488281 33.109375 -21.78125 C 33.484375 -21.59375 33.859375 -21.359375 34.234375 -21.078125 C 35.210938 -20.328125 36.03125 -19.953125 36.6875 -19.953125 C 38 -19.953125 39.238281 -19.160156 40.40625 -17.578125 C 41.488281 -16.078125 41.609375 -15.09375 40.765625 -14.625 C 40.710938 -14.570312 40.664062 -14.523438 40.625 -14.484375 C 40.382812 -14.390625 40.207031 -14.234375 40.09375 -14.015625 C 39.976562 -13.804688 39.96875 -13.585938 40.0625 -13.359375 C 40.25 -12.796875 40.070312 -12.335938 39.53125 -11.984375 C 38.988281 -11.628906 38.191406 -11.378906 37.140625 -11.234375 C 36.085938 -11.097656 35 -10.992188 33.875 -10.921875 C 32.75 -10.859375 31.644531 -10.765625 30.5625 -10.640625 C 29.488281 -10.523438 28.742188 -10.351562 28.328125 -10.125 C 27.804688 -9.84375 27.285156 -9.875 26.765625 -10.21875 C 26.253906 -10.570312 26 -11.054688 26 -11.671875 C 26 -11.898438 25.894531 -12.082031 25.6875 -12.21875 C 25.476562 -12.363281 25.234375 -12.4375 24.953125 -12.4375 C 24.203125 -12.4375 23.59375 -12.726562 23.125 -13.3125 C 22.65625 -13.90625 21.210938 -14.203125 18.796875 -14.203125 C 16.390625 -14.203125 15.101562 -14.4375 14.9375 -14.90625 C 14.769531 -15.375 14.523438 -15.46875 14.203125 -15.1875 C 13.828125 -14.851562 13.8125 -14.40625 14.15625 -13.84375 C 14.507812 -13.28125 14.96875 -13 15.53125 -13 C 16.09375 -13 17.359375 -12.726562 19.328125 -12.1875 C 21.296875 -11.65625 22.910156 -11.128906 24.171875 -10.609375 C 25.253906 -10.191406 25.515625 -9.796875 24.953125 -9.421875 C 24.617188 -9.140625 24.054688 -9 23.265625 -9 C 22.328125 -9.039062 21.128906 -8.976562 19.671875 -8.8125 C 18.222656 -8.65625 16.972656 -8.503906 15.921875 -8.359375 C 14.867188 -8.222656 13.90625 -8.175781 13.03125 -8.21875 C 12.164062 -8.269531 11.640625 -8.457031 11.453125 -8.78125 C 11.128906 -9.300781 10.78125 -9.441406 10.40625 -9.203125 C 10.125 -9.015625 9.394531 -9.410156 8.21875 -10.390625 C 7.050781 -11.378906 6.46875 -12.109375 6.46875 -12.578125 C 6.46875 -12.859375 5.71875 -13.890625 4.21875 -15.671875 C 2.101562 -18.242188 1.609375 -19.8125 2.734375 -20.375 C 2.972656 -20.46875 3.28125 -20.539062 3.65625 -20.59375 C 4.03125 -20.632812 4.359375 -20.769531 4.640625 -21 C 4.921875 -21.238281 5.082031 -21.5 5.125 -21.78125 C 5.21875 -22.207031 5.132812 -22.488281 4.875 -22.625 C 4.625 -22.769531 4.125 -22.84375 3.375 -22.84375 C 2.476562 -22.84375 1.898438 -22.9375 1.640625 -23.125 C 1.390625 -23.3125 1.171875 -23.800781 0.984375 -24.59375 C 0.460938 -27.40625 0.625 -30.359375 1.46875 -33.453125 C 2.59375 -37.578125 4.851562 -41.125 8.25 -44.09375 C 11.65625 -47.070312 15.367188 -48.796875 19.390625 -49.265625 Z M 12.234375 -17.640625 C 11.953125 -17.640625 11.671875 -17.695312 11.390625 -17.8125 C 11.109375 -17.925781 10.882812 -18.050781 10.71875 -18.1875 C 10.550781 -18.332031 10.394531 -18.453125 10.25 -18.546875 C 10.113281 -18.640625 10 -18.640625 9.90625 -18.546875 C 9.8125 -18.453125 9.695312 -18.265625 9.5625 -17.984375 C 9.132812 -16.867188 9.363281 -16.050781 10.25 -15.53125 C 11.144531 -15.019531 12.15625 -15.140625 13.28125 -15.890625 C 13.800781 -16.171875 13.929688 -16.53125 13.671875 -16.96875 C 13.410156 -17.414062 12.929688 -17.640625 12.234375 -17.640625 Z M 20.234375 -16.515625 C 20.234375 -16.753906 20.101562 -16.921875 19.84375 -17.015625 C 19.59375 -17.109375 19.300781 -17.109375 18.96875 -17.015625 C 18.644531 -16.921875 18.390625 -16.734375 18.203125 -16.453125 C 17.960938 -16.023438 17.9375 -15.71875 18.125 -15.53125 C 18.3125 -15.34375 18.707031 -15.390625 19.3125 -15.671875 C 19.925781 -15.953125 20.234375 -16.234375 20.234375 -16.515625 Z M 25.9375 -15.953125 C 25.601562 -16.191406 25.210938 -16.34375 24.765625 -16.40625 C 24.328125 -16.476562 23.941406 -16.476562 23.609375 -16.40625 C 23.285156 -16.34375 23.125 -16.191406 23.125 -15.953125 C 23.125 -15.628906 23.613281 -15.335938 24.59375 -15.078125 C 25.582031 -14.816406 26.21875 -14.804688 26.5 -15.046875 C 26.726562 -15.273438 26.539062 -15.578125 25.9375 -15.953125 Z M 25.9375 -15.953125 "/></g></g></g><g fill="#f1f1f1" fill-opacity="1"><g transform="translate(234.081447, 62.722434)"><g><path d="M 0.765625 -16.171875 C 0.671875 -26.941406 0.691406 -32.535156 0.828125 -32.953125 C 0.972656 -33.378906 3.226562 -33.570312 7.59375 -33.53125 L 14.125 -33.390625 L 14.34375 -31 C 14.4375 -29.59375 14.644531 -28.816406 14.96875 -28.671875 C 15.300781 -28.535156 15.816406 -28.984375 16.515625 -30.015625 C 17.171875 -31.046875 18.203125 -31.9375 19.609375 -32.6875 C 21.015625 -33.4375 22.234375 -33.765625 23.265625 -33.671875 L 25.09375 -33.453125 L 25.234375 -26.703125 C 25.328125 -23.566406 25.328125 -21.632812 25.234375 -20.90625 C 25.140625 -20.175781 24.8125 -19.648438 24.25 -19.328125 C 23.445312 -18.898438 22.859375 -18.804688 22.484375 -19.046875 C 22.160156 -19.273438 21.25 -19.015625 19.75 -18.265625 C 18.25 -17.523438 17.21875 -16.828125 16.65625 -16.171875 C 15.15625 -14.335938 14.40625 -10.820312 14.40625 -5.625 C 14.40625 -2.101562 14.21875 -0.34375 13.84375 -0.34375 C 13.519531 -0.34375 13.3125 -1.175781 13.21875 -2.84375 C 13.125 -4.507812 13.050781 -6.242188 13 -8.046875 C 12.957031 -9.847656 12.796875 -10.867188 12.515625 -11.109375 C 12.234375 -11.335938 12.09375 -11.875 12.09375 -12.71875 C 12.09375 -13.332031 11.867188 -13.96875 11.421875 -14.625 C 10.972656 -15.28125 10.726562 -15.84375 10.6875 -16.3125 C 10.59375 -17.851562 10.5 -18.84375 10.40625 -19.28125 C 10.3125 -19.726562 10.144531 -19.953125 9.90625 -19.953125 C 9.488281 -19.953125 9.066406 -19.53125 8.640625 -18.6875 C 8.265625 -18.03125 8.265625 -17.257812 8.640625 -16.375 C 9.015625 -15.488281 9.398438 -14.597656 9.796875 -13.703125 C 10.203125 -12.816406 10.21875 -12.019531 9.84375 -11.3125 C 9.507812 -10.84375 9.398438 -10.316406 9.515625 -9.734375 C 9.640625 -9.148438 9.84375 -8.65625 10.125 -8.25 C 10.40625 -7.851562 10.660156 -7.148438 10.890625 -6.140625 C 11.128906 -5.140625 11.203125 -4.003906 11.109375 -2.734375 L 10.828125 0.28125 L 0.90625 -0.0625 Z M 0.765625 -16.171875 "/></g></g></g><g fill="#f1f1f1" fill-opacity="1"><g transform="translate(260.079744, 62.722434)"><g><path d="M 12.375 -32.546875 C 13.820312 -33.054688 15.070312 -33.378906 16.125 -33.515625 C 17.175781 -33.660156 18.640625 -33.6875 20.515625 -33.59375 C 22.953125 -33.457031 25.015625 -33.082031 26.703125 -32.46875 C 28.390625 -31.863281 30.195312 -30.8125 32.125 -29.3125 C 34.507812 -27.476562 36.179688 -24.921875 37.140625 -21.640625 C 38.097656 -18.367188 38.15625 -15.046875 37.3125 -11.671875 C 36.46875 -8.578125 34.863281 -5.953125 32.5 -3.796875 C 30.132812 -1.640625 27.460938 -0.175781 24.484375 0.59375 C 21.515625 1.363281 18.363281 1.429688 15.03125 0.796875 C 11.707031 0.171875 8.734375 -1.21875 6.109375 -3.375 C 4.234375 -4.96875 2.910156 -6.617188 2.140625 -8.328125 C 1.367188 -10.035156 0.910156 -12.414062 0.765625 -15.46875 C 0.671875 -17.707031 0.691406 -19.257812 0.828125 -20.125 C 0.972656 -21 1.351562 -22.09375 1.96875 -23.40625 C 2.945312 -25.375 4.375 -27.175781 6.25 -28.8125 C 8.125 -30.457031 10.164062 -31.703125 12.375 -32.546875 Z M 23.265625 -20.09375 C 22.609375 -20.707031 21.984375 -21.117188 21.390625 -21.328125 C 20.804688 -21.535156 19.976562 -21.640625 18.90625 -21.640625 C 17.78125 -21.640625 16.992188 -21.546875 16.546875 -21.359375 C 16.109375 -21.171875 15.675781 -20.773438 15.25 -20.171875 C 14.644531 -19.179688 14.203125 -17.847656 13.921875 -16.171875 C 13.734375 -14.992188 13.71875 -14.179688 13.875 -13.734375 C 14.039062 -13.296875 14.617188 -12.609375 15.609375 -11.671875 C 16.585938 -10.640625 17.640625 -10.003906 18.765625 -9.765625 C 19.890625 -9.535156 20.894531 -9.640625 21.78125 -10.078125 C 22.675781 -10.523438 23.414062 -11.300781 24 -12.40625 C 24.582031 -13.507812 24.875 -14.8125 24.875 -16.3125 C 24.875 -17.15625 24.753906 -17.84375 24.515625 -18.375 C 24.285156 -18.914062 23.867188 -19.488281 23.265625 -20.09375 Z M 23.265625 -20.09375 "/></g></g></g><g fill="#f1f1f1" fill-opacity="1"><g transform="translate(298.655577, 62.722434)"><g><path d="M 6.609375 -14.765625 C 7.304688 -15.046875 9.304688 -15.113281 12.609375 -14.96875 C 15.921875 -14.832031 17.738281 -14.597656 18.0625 -14.265625 C 18.289062 -14.035156 18.476562 -12 18.625 -8.15625 L 18.765625 -2.390625 L 5.34375 -2.03125 L 5.34375 -8.15625 C 5.34375 -11.007812 5.398438 -12.765625 5.515625 -13.421875 C 5.628906 -14.078125 5.992188 -14.523438 6.609375 -14.765625 Z M 15.390625 -47.71875 C 16.566406 -47.863281 18.3125 -47.84375 20.625 -47.65625 C 22.945312 -47.46875 24.503906 -47.234375 25.296875 -46.953125 C 25.910156 -46.765625 26.273438 -46.4375 26.390625 -45.96875 C 26.503906 -45.5 26.539062 -44.375 26.5 -42.59375 L 26.359375 -38.65625 L 23.40625 -38.65625 C 21.945312 -38.601562 20.757812 -38.363281 19.84375 -37.9375 C 18.9375 -37.519531 18.578125 -37.007812 18.765625 -36.40625 C 18.898438 -35.976562 20.1875 -35.671875 22.625 -35.484375 L 26.359375 -35.203125 L 26.421875 -31.0625 C 26.515625 -28.300781 26.328125 -26.71875 25.859375 -26.3125 C 25.390625 -25.914062 24.195312 -25.671875 22.28125 -25.578125 C 21.0625 -25.484375 20.273438 -25.34375 19.921875 -25.15625 C 19.566406 -24.96875 19.296875 -24.570312 19.109375 -23.96875 C 18.878906 -22.976562 18.34375 -22.296875 17.5 -21.921875 C 16 -21.265625 16 -20.726562 17.5 -20.3125 C 18.289062 -20.070312 18.59375 -19.71875 18.40625 -19.25 C 18.269531 -18.738281 16.207031 -18.484375 12.21875 -18.484375 C 8.238281 -18.484375 6.179688 -18.71875 6.046875 -19.1875 C 5.953125 -19.414062 6.046875 -19.578125 6.328125 -19.671875 C 6.609375 -19.765625 7.226562 -19.859375 8.1875 -19.953125 C 9.144531 -20.046875 9.953125 -20.140625 10.609375 -20.234375 C 11.453125 -20.378906 12.164062 -20.390625 12.75 -20.265625 C 13.34375 -20.148438 13.71875 -20 13.875 -19.8125 C 14.039062 -19.625 14.253906 -19.503906 14.515625 -19.453125 C 14.773438 -19.410156 15.019531 -19.53125 15.25 -19.8125 C 16.09375 -20.65625 15.484375 -21.265625 13.421875 -21.640625 C 12.628906 -21.785156 11.625 -21.90625 10.40625 -22 C 8.15625 -22.132812 6.757812 -22.316406 6.21875 -22.546875 C 5.675781 -22.785156 5.335938 -23.351562 5.203125 -24.25 C 5.054688 -25 4.328125 -25.488281 3.015625 -25.71875 C 1.847656 -25.863281 1.144531 -26.320312 0.90625 -27.09375 C 0.675781 -27.863281 0.703125 -29.632812 0.984375 -32.40625 C 1.171875 -34.132812 1.359375 -35.171875 1.546875 -35.515625 C 1.734375 -35.867188 2.269531 -36.09375 3.15625 -36.1875 C 4 -36.28125 4.535156 -36.488281 4.765625 -36.8125 C 5.003906 -37.144531 5.289062 -38.109375 5.625 -39.703125 C 6.132812 -42.234375 7.128906 -44.109375 8.609375 -45.328125 C 10.085938 -46.546875 12.347656 -47.34375 15.390625 -47.71875 Z M 15.390625 -47.71875 "/></g></g></g><g fill="#f1f1f1" fill-opacity="1"><g transform="translate(325.848384, 62.722434)"><g><path d="M 4.359375 -37.25 C 4.453125 -39.351562 4.566406 -40.613281 4.703125 -41.03125 C 4.847656 -41.457031 7.191406 -41.648438 11.734375 -41.609375 L 18.546875 -41.53125 L 18.6875 -37.671875 C 18.78125 -35.566406 19.035156 -34.335938 19.453125 -33.984375 C 19.878906 -33.628906 21.242188 -33.546875 23.546875 -33.734375 C 24.765625 -33.785156 25.523438 -33.421875 25.828125 -32.640625 C 26.128906 -31.867188 26.164062 -30.195312 25.9375 -27.625 L 25.4375 -23.125 L 18.546875 -22.484375 L 18.40625 -17.359375 C 18.3125 -13.984375 18.507812 -11.882812 19 -11.0625 C 19.5 -10.25 20.78125 -9.863281 22.84375 -9.90625 L 25.796875 -10.046875 L 25.796875 -5.203125 C 25.796875 -2.804688 25.710938 -1.363281 25.546875 -0.875 C 25.378906 -0.382812 24.921875 0.0195312 24.171875 0.34375 C 22.816406 0.863281 20.707031 1.171875 17.84375 1.265625 C 14.988281 1.359375 13 1.144531 11.875 0.625 C 11.40625 0.4375 10.878906 0.226562 10.296875 0 C 9.710938 -0.226562 9.3125 -0.390625 9.09375 -0.484375 C 8.882812 -0.578125 8.613281 -0.738281 8.28125 -0.96875 C 7.957031 -1.207031 7.65625 -1.503906 7.375 -1.859375 C 7.09375 -2.210938 6.765625 -2.71875 6.390625 -3.375 C 5.640625 -4.5 5.171875 -5.597656 4.984375 -6.671875 C 4.796875 -7.753906 4.632812 -10.265625 4.5 -14.203125 L 4.140625 -22.484375 L 0.703125 -23.125 L 0.703125 -33.453125 L 2.453125 -33.734375 C 3.253906 -33.878906 3.75 -34.125 3.9375 -34.46875 C 4.125 -34.820312 4.265625 -35.75 4.359375 -37.25 Z M 4.359375 -37.25 "/></g></g></g></svg>