<svg xmlns="http://www.w3.org/2000/svg" xmlns:xlink="http://www.w3.org/1999/xlink" width="500" zoomAndPan="magnify" viewBox="0 0 375 74.999997" height="100" preserveAspectRatio="xMidYMid meet" version="1.0"><defs><g/></defs><g fill="#f1f1f1" fill-opacity="1"><g transform="translate(22.300787, 62.722434)"><g><path d="M 7.171875 -45.640625 C 8.203125 -46.460938 9.84375 -47.363281 12.09375 -48.34375 C 14.34375 -49.332031 17.222656 -49.863281 20.734375 -49.9375 C 24.242188 -50.007812 27.21875 -49.625 29.65625 -48.78125 C 30.6875 -48.40625 31.597656 -48.125 32.390625 -47.9375 C 33.191406 -47.75 33.753906 -47.617188 34.078125 -47.546875 C 34.410156 -47.472656 34.84375 -47.304688 35.375 -47.046875 C 35.914062 -46.796875 36.609375 -46.390625 37.453125 -45.828125 C 38.722656 -44.984375 39.4375 -44.40625 39.59375 -44.09375 C 39.757812 -43.789062 39.632812 -43.265625 39.21875 -42.515625 C 38.789062 -41.671875 38.144531 -40.800781 37.28125 -39.90625 C 36.414062 -39.019531 35.984375 -38.390625 35.984375 -38.015625 C 35.984375 -36.941406 35.113281 -36.332031 33.375 -36.1875 C 31.644531 -36.050781 29.539062 -36.40625 27.0625 -37.25 C 24.851562 -38 22.8125 -38.375 20.9375 -38.375 C 19.8125 -38.375 19.003906 -38.28125 18.515625 -38.09375 C 18.023438 -37.90625 17.59375 -37.53125 17.21875 -36.96875 C 16.613281 -36.03125 16.425781 -35.375 16.65625 -35 C 16.800781 -34.769531 17.46875 -34.535156 18.65625 -34.296875 C 19.851562 -34.066406 21.820312 -33.644531 24.5625 -33.03125 C 27.300781 -32.425781 30.148438 -31.609375 33.109375 -30.578125 C 33.710938 -30.335938 33.734375 -29.960938 33.171875 -29.453125 C 32.703125 -29.078125 32.164062 -28.890625 31.5625 -28.890625 C 31.28125 -28.890625 31.046875 -28.796875 30.859375 -28.609375 C 30.671875 -28.421875 30.578125 -28.207031 30.578125 -27.96875 C 30.578125 -27.363281 31.394531 -27.128906 33.03125 -27.265625 C 34.0625 -27.359375 34.578125 -27.289062 34.578125 -27.0625 C 34.535156 -26.914062 34.441406 -26.75 34.296875 -26.5625 C 33.640625 -25.769531 33.59375 -25.328125 34.15625 -25.234375 C 34.53125 -25.179688 35.046875 -25.320312 35.703125 -25.65625 C 37.617188 -26.6875 39.117188 -26.171875 40.203125 -24.109375 C 41.421875 -21.859375 41.535156 -19.117188 40.546875 -15.890625 C 40.265625 -15.046875 39.9375 -14.269531 39.5625 -13.5625 C 38.0625 -10.65625 35.859375 -8.535156 32.953125 -7.203125 C 30.054688 -5.867188 26.285156 -5.222656 21.640625 -5.265625 C 17.753906 -5.316406 14.085938 -5.84375 10.640625 -6.84375 C 7.203125 -7.851562 4.453125 -9.226562 2.390625 -10.96875 L 0.703125 -12.296875 L 4 -16.453125 C 6.15625 -19.160156 7.394531 -20.515625 7.71875 -20.515625 C 8.050781 -20.515625 9.4375 -19.90625 11.875 -18.6875 C 13.5625 -17.851562 14.882812 -17.328125 15.84375 -17.109375 C 16.8125 -16.898438 18.535156 -16.796875 21.015625 -16.796875 C 23.585938 -16.796875 25.15625 -16.851562 25.71875 -16.96875 C 26.28125 -17.09375 26.609375 -17.429688 26.703125 -17.984375 C 26.796875 -18.785156 26.476562 -19.429688 25.75 -19.921875 C 25.03125 -20.410156 23.707031 -20.867188 21.78125 -21.296875 C 15.882812 -22.609375 11.53125 -23.988281 8.71875 -25.4375 C 5.90625 -26.894531 4.03125 -28.75 3.09375 -31 C 2.8125 -31.695312 2.691406 -32.207031 2.734375 -32.53125 C 2.785156 -32.863281 3.019531 -33.289062 3.4375 -33.8125 C 3.957031 -34.320312 4.21875 -34.644531 4.21875 -34.78125 C 4.21875 -34.925781 4.003906 -35.09375 3.578125 -35.28125 C 2.828125 -35.5625 2.519531 -36.359375 2.65625 -37.671875 C 2.800781 -38.984375 3.320312 -40.410156 4.21875 -41.953125 C 5.15625 -43.597656 6.140625 -44.828125 7.171875 -45.640625 Z M 8.890625 -34.15625 C 9.710938 -34.34375 10.125 -34.609375 10.125 -34.953125 C 10.125 -35.304688 9.453125 -35.484375 8.109375 -35.484375 C 6.773438 -35.484375 6.015625 -35.320312 5.828125 -35 C 5.734375 -34.8125 5.769531 -34.644531 5.9375 -34.5 C 6.101562 -34.363281 6.328125 -34.25 6.609375 -34.15625 C 7.304688 -33.96875 8.066406 -33.96875 8.890625 -34.15625 Z M 13.53125 -34.375 C 14.675781 -34.375 15.25 -34.554688 15.25 -34.921875 C 15.25 -35.296875 14.675781 -35.484375 13.53125 -35.484375 C 12.382812 -35.484375 11.8125 -35.296875 11.8125 -34.921875 C 11.8125 -34.554688 12.382812 -34.375 13.53125 -34.375 Z M 29.03125 -29.375 C 29.445312 -29.65625 29.550781 -29.972656 29.34375 -30.328125 C 29.132812 -30.679688 28.757812 -30.859375 28.21875 -30.859375 C 27.675781 -30.859375 27.289062 -30.671875 27.0625 -30.296875 C 26.914062 -30.054688 26.957031 -29.832031 27.1875 -29.625 C 27.425781 -29.414062 27.722656 -29.285156 28.078125 -29.234375 C 28.429688 -29.191406 28.75 -29.238281 29.03125 -29.375 Z M 29.03125 -29.375 "/></g></g></g><g fill="#f1f1f1" fill-opacity="1"><g transform="translate(64.108844, 62.722434)"><g><path d="M 9.0625 -32.328125 C 9.0625 -32.378906 8.863281 -32.867188 8.46875 -33.796875 C 8.070312 -34.734375 7.941406 -35.414062 8.078125 -35.84375 C 8.222656 -36.164062 8.867188 -36.375 10.015625 -36.46875 C 11.160156 -36.5625 13.375 -36.609375 16.65625 -36.609375 C 20.632812 -36.609375 23.160156 -36.535156 24.234375 -36.390625 C 25.316406 -36.253906 26.609375 -35.816406 28.109375 -35.078125 C 30.171875 -33.992188 31.8125 -32.5625 33.03125 -30.78125 L 34.859375 -28.046875 L 34.71875 -3.515625 L 31.28125 -3.375 C 29.6875 -3.28125 28.628906 -3.3125 28.109375 -3.46875 C 27.597656 -3.632812 26.875 -4.164062 25.9375 -5.0625 C 25.1875 -5.757812 24.585938 -6.203125 24.140625 -6.390625 C 23.691406 -6.578125 23.375 -6.585938 23.1875 -6.421875 C 23 -6.265625 22.707031 -6.078125 22.3125 -5.859375 C 21.914062 -5.648438 21.457031 -5.546875 20.9375 -5.546875 C 20.425781 -5.546875 19.703125 -5.171875 18.765625 -4.421875 C 17.828125 -3.671875 16.675781 -3.117188 15.3125 -2.765625 C 13.957031 -2.421875 12.550781 -2.269531 11.09375 -2.3125 C 9.644531 -2.363281 8.21875 -2.609375 6.8125 -3.046875 C 5.40625 -3.492188 4.195312 -4.195312 3.1875 -5.15625 C 2.1875 -6.125 1.460938 -7.34375 1.015625 -8.8125 C 0.566406 -10.289062 0.578125 -12.039062 1.046875 -14.0625 C 1.515625 -16.03125 2.003906 -17.445312 2.515625 -18.3125 C 3.035156 -19.175781 3.90625 -20.003906 5.125 -20.796875 C 6.15625 -21.453125 7.128906 -21.847656 8.046875 -21.984375 C 8.960938 -22.128906 11.035156 -22.203125 14.265625 -22.203125 C 17.398438 -22.203125 19.332031 -22.257812 20.0625 -22.375 C 20.789062 -22.5 21.15625 -22.796875 21.15625 -23.265625 C 21.15625 -23.960938 20.894531 -24.664062 20.375 -25.375 C 19.769531 -26.164062 18.097656 -26.703125 15.359375 -26.984375 C 12.617188 -27.265625 10.453125 -27.125 8.859375 -26.5625 C 7.265625 -26 6.28125 -25.929688 5.90625 -26.359375 C 5.570312 -26.679688 5.160156 -27.640625 4.671875 -29.234375 C 4.179688 -30.828125 3.910156 -32 3.859375 -32.75 C 3.859375 -33.363281 4.128906 -33.679688 4.671875 -33.703125 C 5.210938 -33.722656 5.71875 -33.453125 6.1875 -32.890625 C 6.414062 -32.660156 6.765625 -32.453125 7.234375 -32.265625 C 7.703125 -32.078125 8.125 -31.984375 8.5 -31.984375 C 8.875 -31.984375 9.0625 -32.097656 9.0625 -32.328125 Z M 18.625 -18.125 C 16.46875 -19.34375 15.226562 -19.953125 14.90625 -19.953125 C 14.382812 -19.953125 14.050781 -19.71875 13.90625 -19.25 C 13.769531 -18.78125 13.890625 -18.3125 14.265625 -17.84375 C 14.734375 -17.289062 14.757812 -16.519531 14.34375 -15.53125 C 13.914062 -14.644531 13.703125 -13.742188 13.703125 -12.828125 C 13.703125 -11.910156 13.914062 -11.242188 14.34375 -10.828125 C 14.851562 -10.304688 15.90625 -10.066406 17.5 -10.109375 C 19.09375 -10.160156 20.097656 -10.445312 20.515625 -10.96875 C 21.035156 -11.53125 21.390625 -12.5625 21.578125 -14.0625 C 21.710938 -15.1875 21.648438 -15.921875 21.390625 -16.265625 C 21.140625 -16.617188 20.21875 -17.238281 18.625 -18.125 Z M 31.796875 -17.640625 C 32.390625 -17.640625 32.6875 -17.828125 32.6875 -18.203125 C 32.6875 -18.578125 32.390625 -18.765625 31.796875 -18.765625 C 31.210938 -18.765625 30.921875 -18.578125 30.921875 -18.203125 C 30.921875 -17.828125 31.210938 -17.640625 31.796875 -17.640625 Z M 32.125 -16.09375 C 32.726562 -16.519531 32.9375 -16.753906 32.75 -16.796875 C 32.65625 -16.847656 32.257812 -16.894531 31.5625 -16.9375 C 30.289062 -16.988281 29.703125 -16.78125 29.796875 -16.3125 C 29.796875 -16.070312 29.984375 -15.835938 30.359375 -15.609375 C 30.734375 -15.367188 31.320312 -15.53125 32.125 -16.09375 Z M 32.125 -16.09375 "/></g></g></g><g fill="#f1f1f1" fill-opacity="1"><g transform="translate(99.663265, 62.722434)"><g><path d="M 0.765625 -16.171875 C 0.671875 -26.941406 0.691406 -32.535156 0.828125 -32.953125 C 0.972656 -33.378906 3.226562 -33.570312 7.59375 -33.53125 L 14.125 -33.390625 L 14.34375 -31 C 14.4375 -29.59375 14.644531 -28.816406 14.96875 -28.671875 C 15.300781 -28.535156 15.816406 -28.984375 16.515625 -30.015625 C 17.171875 -31.046875 18.203125 -31.9375 19.609375 -32.6875 C 21.015625 -33.4375 22.234375 -33.765625 23.265625 -33.671875 L 25.09375 -33.453125 L 25.234375 -26.703125 C 25.328125 -23.566406 25.328125 -21.632812 25.234375 -20.90625 C 25.140625 -20.175781 24.8125 -19.648438 24.25 -19.328125 C 23.445312 -18.898438 22.859375 -18.804688 22.484375 -19.046875 C 22.160156 -19.273438 21.25 -19.015625 19.75 -18.265625 C 18.25 -17.523438 17.21875 -16.828125 16.65625 -16.171875 C 15.15625 -14.335938 14.40625 -10.820312 14.40625 -5.625 C 14.40625 -2.101562 14.21875 -0.34375 13.84375 -0.34375 C 13.519531 -0.34375 13.3125 -1.175781 13.21875 -2.84375 C 13.125 -4.507812 13.050781 -6.242188 13 -8.046875 C 12.957031 -9.847656 12.796875 -10.867188 12.515625 -11.109375 C 12.234375 -11.335938 12.09375 -11.875 12.09375 -12.71875 C 12.09375 -13.332031 11.867188 -13.96875 11.421875 -14.625 C 10.972656 -15.28125 10.726562 -15.84375 10.6875 -16.3125 C 10.59375 -17.851562 10.5 -18.84375 10.40625 -19.28125 C 10.3125 -19.726562 10.144531 -19.953125 9.90625 -19.953125 C 9.488281 -19.953125 9.066406 -19.53125 8.640625 -18.6875 C 8.265625 -18.03125 8.265625 -17.257812 8.640625 -16.375 C 9.015625 -15.488281 9.398438 -14.597656 9.796875 -13.703125 C 10.203125 -12.816406 10.21875 -12.019531 9.84375 -11.3125 C 9.507812 -10.84375 9.398438 -10.316406 9.515625 -9.734375 C 9.640625 -9.148438 9.84375 -8.65625 10.125 -8.25 C 10.40625 -7.851562 10.660156 -7.148438 10.890625 -6.140625 C 11.128906 -5.140625 11.203125 -4.003906 11.109375 -2.734375 L 10.828125 0.28125 L 0.90625 -0.0625 Z M 0.765625 -16.171875 "/></g></g></g><g fill="#f1f1f1" fill-opacity="1"><g transform="translate(125.66155, 62.722434)"><g><path d="M 9.0625 -32.328125 C 9.0625 -32.378906 8.863281 -32.867188 8.46875 -33.796875 C 8.070312 -34.734375 7.941406 -35.414062 8.078125 -35.84375 C 8.222656 -36.164062 8.867188 -36.375 10.015625 -36.46875 C 11.160156 -36.5625 13.375 -36.609375 16.65625 -36.609375 C 20.632812 -36.609375 23.160156 -36.535156 24.234375 -36.390625 C 25.316406 -36.253906 26.609375 -35.816406 28.109375 -35.078125 C 30.171875 -33.992188 31.8125 -32.5625 33.03125 -30.78125 L 34.859375 -28.046875 L 34.71875 -3.515625 L 31.28125 -3.375 C 29.6875 -3.28125 28.628906 -3.3125 28.109375 -3.46875 C 27.597656 -3.632812 26.875 -4.164062 25.9375 -5.0625 C 25.1875 -5.757812 24.585938 -6.203125 24.140625 -6.390625 C 23.691406 -6.578125 23.375 -6.585938 23.1875 -6.421875 C 23 -6.265625 22.707031 -6.078125 22.3125 -5.859375 C 21.914062 -5.648438 21.457031 -5.546875 20.9375 -5.546875 C 20.425781 -5.546875 19.703125 -5.171875 18.765625 -4.421875 C 17.828125 -3.671875 16.675781 -3.117188 15.3125 -2.765625 C 13.957031 -2.421875 12.550781 -2.269531 11.09375 -2.3125 C 9.644531 -2.363281 8.21875 -2.609375 6.8125 -3.046875 C 5.40625 -3.492188 4.195312 -4.195312 3.1875 -5.15625 C 2.1875 -6.125 1.460938 -7.34375 1.015625 -8.8125 C 0.566406 -10.289062 0.578125 -12.039062 1.046875 -14.0625 C 1.515625 -16.03125 2.003906 -17.445312 2.515625 -18.3125 C 3.035156 -19.175781 3.90625 -20.003906 5.125 -20.796875 C 6.15625 -21.453125 7.128906 -21.847656 8.046875 -21.984375 C 8.960938 -22.128906 11.035156 -22.203125 14.265625 -22.203125 C 17.398438 -22.203125 19.332031 -22.257812 20.0625 -22.375 C 20.789062 -22.5 21.15625 -22.796875 21.15625 -23.265625 C 21.15625 -23.960938 20.894531 -24.664062 20.375 -25.375 C 19.769531 -26.164062 18.097656 -26.703125 15.359375 -26.984375 C 12.617188 -27.265625 10.453125 -27.125 8.859375 -26.5625 C 7.265625 -26 6.28125 -25.929688 5.90625 -26.359375 C 5.570312 -26.679688 5.160156 -27.640625 4.671875 -29.234375 C 4.179688 -30.828125 3.910156 -32 3.859375 -32.75 C 3.859375 -33.363281 4.128906 -33.679688 4.671875 -33.703125 C 5.210938 -33.722656 5.71875 -33.453125 6.1875 -32.890625 C 6.414062 -32.660156 6.765625 -32.453125 7.234375 -32.265625 C 7.703125 -32.078125 8.125 -31.984375 8.5 -31.984375 C 8.875 -31.984375 9.0625 -32.097656 9.0625 -32.328125 Z M 18.625 -18.125 C 16.46875 -19.34375 15.226562 -19.953125 14.90625 -19.953125 C 14.382812 -19.953125 14.050781 -19.71875 13.90625 -19.25 C 13.769531 -18.78125 13.890625 -18.3125 14.265625 -17.84375 C 14.734375 -17.289062 14.757812 -16.519531 14.34375 -15.53125 C 13.914062 -14.644531 13.703125 -13.742188 13.703125 -12.828125 C 13.703125 -11.910156 13.914062 -11.242188 14.34375 -10.828125 C 14.851562 -10.304688 15.90625 -10.066406 17.5 -10.109375 C 19.09375 -10.160156 20.097656 -10.445312 20.515625 -10.96875 C 21.035156 -11.53125 21.390625 -12.5625 21.578125 -14.0625 C 21.710938 -15.1875 21.648438 -15.921875 21.390625 -16.265625 C 21.140625 -16.617188 20.21875 -17.238281 18.625 -18.125 Z M 31.796875 -17.640625 C 32.390625 -17.640625 32.6875 -17.828125 32.6875 -18.203125 C 32.6875 -18.578125 32.390625 -18.765625 31.796875 -18.765625 C 31.210938 -18.765625 30.921875 -18.578125 30.921875 -18.203125 C 30.921875 -17.828125 31.210938 -17.640625 31.796875 -17.640625 Z M 32.125 -16.09375 C 32.726562 -16.519531 32.9375 -16.753906 32.75 -16.796875 C 32.65625 -16.847656 32.257812 -16.894531 31.5625 -16.9375 C 30.289062 -16.988281 29.703125 -16.78125 29.796875 -16.3125 C 29.796875 -16.070312 29.984375 -15.835938 30.359375 -15.609375 C 30.734375 -15.367188 31.320312 -15.53125 32.125 -16.09375 Z M 32.125 -16.09375 "/></g></g></g><g fill="#f1f1f1" fill-opacity="1"><g transform="translate(161.215971, 62.722434)"><g/></g></g><g fill="#f1f1f1" fill-opacity="1"><g transform="translate(190.727546, 62.722434)"><g><path d="M 20.375 -6.46875 C 21.5 -7.03125 22.71875 -7.226562 24.03125 -7.0625 C 25.34375 -6.894531 26 -6.460938 26 -5.765625 C 26 -5.203125 24.851562 -4.921875 22.5625 -4.921875 C 20.21875 -4.921875 19.09375 -5.128906 19.1875 -5.546875 C 19.226562 -5.785156 19.625 -6.09375 20.375 -6.46875 Z M 28.328125 -7.234375 C 29.398438 -8.078125 30.828125 -8.476562 32.609375 -8.4375 C 33.597656 -8.34375 34.046875 -8.082031 33.953125 -7.65625 C 33.804688 -7.1875 32.910156 -6.691406 31.265625 -6.171875 C 29.628906 -5.660156 28.484375 -5.523438 27.828125 -5.765625 C 27.640625 -5.859375 27.5 -5.9375 27.40625 -6 C 27.3125 -6.070312 27.273438 -6.164062 27.296875 -6.28125 C 27.328125 -6.40625 27.421875 -6.535156 27.578125 -6.671875 C 27.742188 -6.816406 27.992188 -7.003906 28.328125 -7.234375 Z M 29.453125 -18.546875 C 29.078125 -18.734375 28.992188 -19.015625 29.203125 -19.390625 C 29.410156 -19.765625 29.703125 -19.835938 30.078125 -19.609375 C 30.265625 -19.460938 30.359375 -19.269531 30.359375 -19.03125 C 30.359375 -18.800781 30.265625 -18.628906 30.078125 -18.515625 C 29.890625 -18.398438 29.679688 -18.410156 29.453125 -18.546875 Z M 19.390625 -49.265625 C 28.765625 -50.296875 35.722656 -48.023438 40.265625 -42.453125 C 41.578125 -40.859375 42.335938 -39.6875 42.546875 -38.9375 C 42.765625 -38.1875 42.5 -37.671875 41.75 -37.390625 C 41.28125 -37.242188 40.457031 -36.796875 39.28125 -36.046875 C 38.113281 -35.304688 37.34375 -34.9375 36.96875 -34.9375 C 36.539062 -34.9375 35.695312 -34.441406 34.4375 -33.453125 C 33.269531 -32.566406 32.460938 -32.125 32.015625 -32.125 C 31.566406 -32.125 30.898438 -32.59375 30.015625 -33.53125 C 28.460938 -35.164062 26.738281 -36.171875 24.84375 -36.546875 C 22.945312 -36.921875 21.203125 -36.628906 19.609375 -35.671875 C 18.015625 -34.710938 16.84375 -33.203125 16.09375 -31.140625 C 15.394531 -29.210938 15.046875 -27.828125 15.046875 -26.984375 C 15.046875 -26.472656 14.972656 -26.144531 14.828125 -26 C 14.691406 -25.863281 14.390625 -25.863281 13.921875 -26 C 13.304688 -26.1875 12.941406 -26.140625 12.828125 -25.859375 C 12.710938 -25.578125 12.910156 -25.203125 13.421875 -24.734375 C 13.847656 -24.316406 13.921875 -23.894531 13.640625 -23.46875 C 13.304688 -22.863281 12.859375 -22.664062 12.296875 -22.875 C 11.734375 -23.082031 11.21875 -23.609375 10.75 -24.453125 C 10.28125 -25.390625 9.726562 -26.148438 9.09375 -26.734375 C 8.46875 -27.328125 8.015625 -27.484375 7.734375 -27.203125 C 7.585938 -27.054688 7.664062 -26.757812 7.96875 -26.3125 C 8.28125 -25.875 8.585938 -25.46875 8.890625 -25.09375 C 9.191406 -24.71875 9.273438 -24.503906 9.140625 -24.453125 L 8.015625 -24.3125 C 7.679688 -24.269531 7.503906 -23.953125 7.484375 -23.359375 C 7.460938 -22.773438 7.285156 -22.273438 6.953125 -21.859375 C 6.578125 -21.429688 6.445312 -21.03125 6.5625 -20.65625 C 6.6875 -20.28125 6.957031 -20.082031 7.375 -20.0625 C 7.800781 -20.039062 8.296875 -20.171875 8.859375 -20.453125 C 9.703125 -20.960938 10.191406 -21.007812 10.328125 -20.59375 C 10.472656 -20.164062 10.875 -19.953125 11.53125 -19.953125 C 12.1875 -19.953125 12.722656 -20.164062 13.140625 -20.59375 C 13.515625 -20.914062 14.160156 -20.890625 15.078125 -20.515625 C 15.992188 -20.140625 17.304688 -19.597656 19.015625 -18.890625 C 20.722656 -18.191406 22.394531 -17.773438 24.03125 -17.640625 C 25.582031 -17.503906 26.53125 -17.351562 26.875 -17.1875 C 27.226562 -17.019531 27.382812 -16.679688 27.34375 -16.171875 C 27.25 -15.328125 27.960938 -14.351562 29.484375 -13.25 C 31.003906 -12.144531 32.023438 -11.851562 32.546875 -12.375 C 32.867188 -12.65625 32.972656 -12.898438 32.859375 -13.109375 C 32.742188 -13.316406 32.546875 -13.46875 32.265625 -13.5625 C 31.984375 -13.65625 31.75 -13.863281 31.5625 -14.1875 C 31.375 -14.519531 31.347656 -14.945312 31.484375 -15.46875 C 31.765625 -16.351562 31.953125 -16.84375 32.046875 -16.9375 C 32.140625 -17.03125 32.796875 -16.664062 34.015625 -15.84375 C 35.234375 -15.03125 36.171875 -14.316406 36.828125 -13.703125 C 37.335938 -13.234375 37.664062 -13 37.8125 -13 C 38.414062 -13 37.945312 -13.890625 36.40625 -15.671875 C 34.90625 -17.398438 34.0625 -18.5 33.875 -18.96875 C 33.832031 -19.207031 33.765625 -19.382812 33.671875 -19.5 C 33.578125 -19.613281 33.484375 -19.691406 33.390625 -19.734375 C 33.296875 -19.785156 33.222656 -19.789062 33.171875 -19.75 C 32.890625 -19.507812 32.488281 -19.597656 31.96875 -20.015625 C 31.457031 -20.441406 31.203125 -20.914062 31.203125 -21.4375 C 31.203125 -22.375 31.835938 -22.488281 33.109375 -21.78125 C 33.484375 -21.59375 33.859375 -21.359375 34.234375 -21.078125 C 35.210938 -20.328125 36.03125 -19.953125 36.6875 -19.953125 C 38 -19.953125 39.238281 -19.160156 40.40625 -17.578125 C 41.488281 -16.078125 41.609375 -15.09375 40.765625 -14.625 C 40.710938 -14.570312 40.664062 -14.523438 40.625 -14.484375 C 40.382812 -14.390625 40.207031 -14.234375 40.09375 -14.015625 C 39.976562 -13.804688 39.96875 -13.585938 40.0625 -13.359375 C 40.25 -12.796875 40.070312 -12.335938 39.53125 -11.984375 C 38.988281 -11.628906 38.191406 -11.378906 37.140625 -11.234375 C 36.085938 -11.097656 35 -10.992188 33.875 -10.921875 C 32.75 -10.859375 31.644531 -10.765625 30.5625 -10.640625 C 29.488281 -10.523438 28.742188 -10.351562 28.328125 -10.125 C 27.804688 -9.84375 27.285156 -9.875 26.765625 -10.21875 C 26.253906 -10.570312 26 -11.054688 26 -11.671875 C 26 -11.898438 25.894531 -12.082031 25.6875 -12.21875 C 25.476562 -12.363281 25.234375 -12.4375 24.953125 -12.4375 C 24.203125 -12.4375 23.59375 -12.726562 23.125 -13.3125 C 22.65625 -13.90625 21.210938 -14.203125 18.796875 -14.203125 C 16.390625 -14.203125 15.101562 -14.4375 14.9375 -14.90625 C 14.769531 -15.375 14.523438 -15.46875 14.203125 -15.1875 C 13.828125 -14.851562 13.8125 -14.40625 14.15625 -13.84375 C 14.507812 -13.28125 14.96875 -13 15.53125 -13 C 16.09375 -13 17.359375 -12.726562 19.328125 -12.1875 C 21.296875 -11.65625 22.910156 -11.128906 24.171875 -10.609375 C 25.253906 -10.191406 25.515625 -9.796875 24.953125 -9.421875 C 24.617188 -9.140625 24.054688 -9 23.265625 -9 C 22.328125 -9.039062 21.128906 -8.976562 19.671875 -8.8125 C 18.222656 -8.65625 16.972656 -8.503906 15.921875 -8.359375 C 14.867188 -8.222656 13.90625 -8.175781 13.03125 -8.21875 C 12.164062 -8.269531 11.640625 -8.457031 11.453125 -8.78125 C 11.128906 -9.300781 10.78125 -9.441406 10.40625 -9.203125 C 10.125 -9.015625 9.394531 -9.410156 8.21875 -10.390625 C 7.050781 -11.378906 6.46875 -12.109375 6.46875 -12.578125 C 6.46875 -12.859375 5.71875 -13.890625 4.21875 -15.671875 C 2.101562 -18.242188 1.609375 -19.8125 2.734375 -20.375 C 2.972656 -20.46875 3.28125 -20.539062 3.65625 -20.59375 C 4.03125 -20.632812 4.359375 -20.769531 4.640625 -21 C 4.921875 -21.238281 5.082031 -21.5 5.125 -21.78125 C 5.21875 -22.207031 5.132812 -22.488281 4.875 -22.625 C 4.625 -22.769531 4.125 -22.84375 3.375 -22.84375 C 2.476562 -22.84375 1.898438 -22.9375 1.640625 -23.125 C 1.390625 -23.3125 1.171875 -23.800781 0.984375 -24.59375 C 0.460938 -27.40625 0.625 -30.359375 1.46875 -33.453125 C 2.59375 -37.578125 4.851562 -41.125 8.25 -44.09375 C 11.65625 -47.070312 15.367188 -48.796875 19.390625 -49.265625 Z M 12.234375 -17.640625 C 11.953125 -17.640625 11.671875 -17.695312 11.390625 -17.8125 C 11.109375 -17.925781 10.882812 -18.050781 10.71875 -18.1875 C 10.550781 -18.332031 10.394531 -18.453125 10.25 -18.546875 C 10.113281 -18.640625 10 -18.640625 9.90625 -18.546875 C 9.8125 -18.453125 9.695312 -18.265625 9.5625 -17.984375 C 9.132812 -16.867188 9.363281 -16.050781 10.25 -15.53125 C 11.144531 -15.019531 12.15625 -15.140625 13.28125 -15.890625 C 13.800781 -16.171875 13.929688 -16.53125 13.671875 -16.96875 C 13.410156 -17.414062 12.929688 -17.640625 12.234375 -17.640625 Z M 20.234375 -16.515625 C 20.234375 -16.753906 20.101562 -16.921875 19.84375 -17.015625 C 19.59375 -17.109375 19.300781 -17.109375 18.96875 -17.015625 C 18.644531 -16.921875 18.390625 -16.734375 18.203125 -16.453125 C 17.960938 -16.023438 17.9375 -15.71875 18.125 -15.53125 C 18.3125 -15.34375 18.707031 -15.390625 19.3125 -15.671875 C 19.925781 -15.953125 20.234375 -16.234375 20.234375 -16.515625 Z M 25.9375 -15.953125 C 25.601562 -16.191406 25.210938 -16.34375 24.765625 -16.40625 C 24.328125 -16.476562 23.941406 -16.476562 23.609375 -16.40625 C 23.285156 -16.34375 23.125 -16.191406 23.125 -15.953125 C 23.125 -15.628906 23.613281 -15.335938 24.59375 -15.078125 C 25.582031 -14.816406 26.21875 -14.804688 26.5 -15.046875 C 26.726562 -15.273438 26.539062 -15.578125 25.9375 -15.953125 Z M 25.9375 -15.953125 "/></g></g></g><g fill="#f1f1f1" fill-opacity="1"><g transform="translate(234.081447, 62.722434)"><g><path d="M 0.765625 -16.171875 C 0.671875 -26.941406 0.691406 -32.535156 0.828125 -32.953125 C 0.972656 -33.378906 3.226562 -33.570312 7.59375 -33.53125 L 14.125 -33.390625 L 14.34375 -31 C 14.4375 -29.59375 14.644531 -28.816406 14.96875 -28.671875 C 15.300781 -28.535156 15.816406 -28.984375 16.515625 -30.015625 C 17.171875 -31.046875 18.203125 -31.9375 19.609375 -32.6875 C 21.015625 -33.4375 22.234375 -33.765625 23.265625 -33.671875 L 25.09375 -33.453125 L 25.234375 -26.703125 C 25.328125 -23.566406 25.328125 -21.632812 25.234375 -20.90625 C 25.140625 -20.175781 24.8125 -19.648438 24.25 -19.328125 C 23.445312 -18.898438 22.859375 -18.804688 22.484375 -19.046875 C 22.160156 -19.273438 21.25 -19.015625 19.75 -18.265625 C 18.25 -17.523438 17.21875 -16.828125 16.65625 -16.171875 C 15.15625 -14.335938 14.40625 -10.820312 14.40625 -5.625 C 14.40625 -2.101562 14.21875 -0.34375 13.84375 -0.34375 C 13.519531 -0.34375 13.3125 -1.175781 13.21875 -2.84375 C 13.125 -4.507812 13.050781 -6.242188 13 -8.046875 C 12.957031 -9.847656 12.796875 -10.867188 12.515625 -11.109375 C 12.234375 -11.335938 12.09375 -11.875 12.09375 -12.71875 C 12.09375 -13.332031 11.867188 -13.96875 11.421875 -14.625 C 10.972656 -15.28125 10.726562 -15.84375 10.6875 -16.3125 C 10.59375 -17.851562 10.5 -18.84375 10.40625 -19.28125 C 10.3125 -19.726562 10.144531 -19.953125 9.90625 -19.953125 C 9.488281 -19.953125 9.066406 -19.53125 8.640625 -18.6875 C 8.265625 -18.03125 8.265625 -17.257812 8.640625 -16.375 C 9.015625 -15.488281 9.398438 -14.597656 9.796875 -13.703125 C 10.203125 -12.816406 10.21875 -12.019531 9.84375 -11.3125 C 9.507812 -10.84375 9.398438 -10.316406 9.515625 -9.734375 C 9.640625 -9.148438 9.84375 -8.65625 10.125 -8.25 C 10.40625 -7.851562 10.660156 -7.148438 10.890625 -6.140625 C 11.128906 -5.140625 11.203125 -4.003906 11.109375 -2.734375 L 10.828125 0.28125 L 0.90625 -0.0625 Z M 0.765625 -16.171875 "/></g></g></g><g fill="#f1f1f1" fill-opacity="1"><g transform="translate(260.079744, 62.722434)"><g><path d="M 12.375 -32.546875 C 13.820312 -33.054688 15.070312 -33.378906 16.125 -33.515625 C 17.175781 -33.660156 18.640625 -33.6875 20.515625 -33.59375 C 22.953125 -33.457031 25.015625 -33.082031 26.703125 -32.46875 C 28.390625 -31.863281 30.195312 -30.8125 32.125 -29.3125 C 34.507812 -27.476562 36.179688 -24.921875 37.140625 -21.640625 C 38.097656 -18.367188 38.15625 -15.046875 37.3125 -11.671875 C 36.46875 -8.578125 34.863281 -5.953125 32.5 -3.796875 C 30.132812 -1.640625 27.460938 -0.175781 24.484375 0.59375 C 21.515625 1.363281 18.363281 1.429688 15.03125 0.796875 C 11.707031 0.171875 8.734375 -1.21875 6.109375 -3.375 C 4.234375 -4.96875 2.910156 -6.617188 2.140625 -8.328125 C 1.367188 -10.035156 0.910156 -12.414062 0.765625 -15.46875 C 0.671875 -17.707031 0.691406 -19.257812 0.828125 -20.125 C 0.972656 -21 1.351562 -22.09375 1.96875 -23.40625 C 2.945312 -25.375 4.375 -27.175781 6.25 -28.8125 C 8.125 -30.457031 10.164062 -31.703125 12.375 -32.546875 Z M 23.265625 -20.09375 C 22.609375 -20.707031 21.984375 -21.117188 21.390625 -21.328125 C 20.804688 -21.535156 19.976562 -21.640625 18.90625 -21.640625 C 17.78125 -21.640625 16.992188 -21.546875 16.546875 -21.359375 C 16.109375 -21.171875 15.675781 -20.773438 15.25 -20.171875 C 14.644531 -19.179688 14.203125 -17.847656 13.921875 -16.171875 C 13.734375 -14.992188 13.71875 -14.179688 13.875 -13.734375 C 14.039062 -13.296875 14.617188 -12.609375 15.609375 -11.671875 C 16.585938 -10.640625 17.640625 -10.003906 18.765625 -9.765625 C 19.890625 -9.535156 20.894531 -9.640625 21.78125 -10.078125 C 22.675781 -10.523438 23.414062 -11.300781 24 -12.40625 C 24.582031 -13.507812 24.875 -14.8125 24.875 -16.3125 C 24.875 -17.15625 24.753906 -17.84375 24.515625 -18.375 C 24.285156 -18.914062 23.867188 -19.488281 23.265625 -20.09375 Z M 23.265625 -20.09375 "/></g></g></g><g fill="#f1f1f1" fill-opacity="1"><g transform="translate(298.655577, 62.722434)"><g><path d="M 6.609375 -14.765625 C 7.304688 -15.046875 9.304688 -15.113281 12.609375 -14.96875 C 15.921875 -14.832031 17.738281 -14.597656 18.0625 -14.265625 C 18.289062 -14.035156 18.476562 -12 18.625 -8.15625 L 18.765625 -2.390625 L 5.34375 -2.03125 L 5.34375 -8.15625 C 5.34375 -11.007812 5.398438 -12.765625 5.515625 -13.421875 C 5.628906 -14.078125 5.992188 -14.523438 6.609375 -14.765625 Z M 15.390625 -47.71875 C 16.566406 -47.863281 18.3125 -47.84375 20.625 -47.65625 C 22.945312 -47.46875 24.503906 -47.234375 25.296875 -46.953125 C 25.910156 -46.765625 26.273438 -46.4375 26.390625 -45.96875 C 26.503906 -45.5 26.539062 -44.375 26.5 -42.59375 L 26.359375 -38.65625 L 23.40625 -38.65625 C 21.945312 -38.601562 20.757812 -38.363281 19.84375 -37.9375 C 18.9375 -37.519531 18.578125 -37.007812 18.765625 -36.40625 C 18.898438 -35.976562 20.1875 -35.671875 22.625 -35.484375 L 26.359375 -35.203125 L 26.421875 -31.0625 C 26.515625 -28.300781 26.328125 -26.71875 25.859375 -26.3125 C 25.390625 -25.914062 24.195312 -25.671875 22.28125 -25.578125 C 21.0625 -25.484375 20.273438 -25.34375 19.921875 -25.15625 C 19.566406 -24.96875 19.296875 -24.570312 19.109375 -23.96875 C 18.878906 -22.976562 18.34375 -22.296875 17.5 -21.921875 C 16 -21.265625 16 -20.726562 17.5 -20.3125 C 18.289062 -20.070312 18.59375 -19.71875 18.40625 -19.25 C 18.269531 -18.738281 16.207031 -18.484375 12.21875 -18.484375 C 8.238281 -18.484375 6.179688 -18.71875 6.046875 -19.1875 C 5.953125 -19.414062 6.046875 -19.578125 6.328125 -19.671875 C 6.609375 -19.765625 7.226562 -19.859375 8.1875 -19.953125 C 9.144531 -20.046875 9.953125 -20.140625 10.609375 -20.234375 C 11.453125 -20.378906 12.164062 -20.390625 12.75 -20.265625 C 13.34375 -20.148438 13.71875 -20 13.875 -19.8125 C 14.039062 -19.625 14.253906 -19.503906 14.515625 -19.453125 C 14.773438 -19.410156 15.019531 -19.53125 15.25 -19.8125 C 16.09375 -20.65625 15.484375 -21.265625 13.421875 -21.640625 C 12.628906 -21.785156 11.625 -21.90625 10.40625 -22 C 8.15625 -22.132812 6.757812 -22.316406 6.21875 -22.546875 C 5.675781 -22.785156 5.335938 -23.351562 5.203125 -24.25 C 5.054688 -25 4.328125 -25.488281 3.015625 -25.71875 C 1.847656 -25.863281 1.144531 -26.320312 0.90625 -27.09375 C 0.675781 -27.863281 0.703125 -29.632812 0.984375 -32.40625 C 1.171875 -34.132812 1.359375 -35.171875 1.546875 -35.515625 C 1.734375 -35.867188 2.269531 -36.09375 3.15625 -36.1875 C 4 -36.28125 4.535156 -36.488281 4.765625 -36.8125 C 5.003906 -37.144531 5.289062 -38.109375 5.625 -39.703125 C 6.132812 -42.234375 7.128906 -44.109375 8.609375 -45.328125 C 10.085938 -46.546875 12.347656 -47.34375 15.390625 -47.71875 Z M 15.390625 -47.71875 "/></g></g></g><g fill="#f1f1f1" fill-opacity="1"><g transform="translate(325.848384, 62.722434)"><g><path d="M 4.359375 -37.25 C 4.453125 -39.351562 4.566406 -40.613281 4.703125 -41.03125 C 4.847656 -41.457031 7.191406 -41.648438 11.734375 -41.609375 L 18.546875 -41.53125 L 18.6875 -37.671875 C 18.78125 -35.566406 19.035156 -34.335938 19.453125 -33.984375 C 19.878906 -33.628906 21.242188 -33.546875 23.546875 -33.734375 C 24.765625 -33.785156 25.523438 -33.421875 25.828125 -32.640625 C 26.128906 -31.867188 26.164062 -30.195312 25.9375 -27.625 L 25.4375 -23.125 L 18.546875 -22.484375 L 18.40625 -17.359375 C 18.3125 -13.984375 18.507812 -11.882812 19 -11.0625 C 19.5 -10.25 20.78125 -9.863281 22.84375 -9.90625 L 25.796875 -10.046875 L 25.796875 -5.203125 C 25.796875 -2.804688 25.710938 -1.363281 25.546875 -0.875 C 25.378906 -0.382812 24.921875 0.0195312 24.171875 0.34375 C 22.816406 0.863281 20.707031 1.171875 17.84375 1.265625 C 14.988281 1.359375 13 1.144531 11.875 0.625 C 11.40625 0.4375 10.878906 0.226562 10.296875 0 C 9.710938 -0.226562 9.3125 -0.390625 9.09375 -0.484375 C 8.882812 -0.578125 8.613281 -0.738281 8.28125 -0.96875 C 7.957031 -1.207031 7.65625 -1.503906 7.375 -1.859375 C 7.09375 -2.210938 6.765625 -2.71875 6.390625 -3.375 C 5.640625 -4.5 5.171875 -5.597656 4.984375 -6.671875 C 4.796875 -7.753906 4.632812 -10.265625 4.5 -14.203125 L 4.140625 -22.484375 L 0.703125 -23.125 L 0.703125 -33.453125 L 2.453125 -33.734375 C 3.253906 -33.878906 3.75 -34.125 3.9375 -34.46875 C 4.125 -34.820312 4.265625 -35.75 4.359375 -37.25 Z M 4.359375 -37.25 "/></g></g></g></svg>