<svg xmlns="http://www.w3.org/2000/svg" xmlns:xlink="http://www.w3.org/1999/xlink" width="500" zoomAndPan="magnify" viewBox="0 0 375 374.999991" height="500" preserveAspectRatio="xMidYMid meet" version="1.0"><defs><clipPath id="3b75df5ea2"><path d="M 26 33.730469 L 374.953125 33.730469 L 374.953125 341.230469 L 26 341.230469 Z M 26 33.730469 " clip-rule="nonzero"/></clipPath></defs><path fill="#fcb63a" d="M 351.910156 187.503906 C 351.910156 270.644531 284.507812 338.046875 201.363281 338.046875 C 118.21875 338.046875 50.816406 270.644531 50.816406 187.503906 C 50.816406 104.359375 118.21875 36.960938 201.363281 36.960938 C 284.507812 36.960938 351.910156 104.359375 351.910156 187.503906 Z M 351.910156 187.503906 C 351.910156 270.644531 284.507812 338.046875 201.363281 338.046875 C 118.21875 338.046875 50.816406 270.644531 50.816406 187.503906 C 50.816406 104.359375 118.21875 36.960938 201.363281 36.960938 C 284.507812 36.960938 351.910156 104.359375 351.910156 187.503906 Z M 351.910156 187.503906 " fill-opacity="1" fill-rule="nonzero"/><g clip-path="url(#3b75df5ea2)"><path fill="#000000" d="M 369.730469 164.921875 C 368.644531 164.710938 362.234375 165.292969 352.5 166.390625 C 342.179688 91.554688 277.816406 33.730469 200.1875 33.730469 C 122.558594 33.730469 58.195312 91.554688 47.875 166.390625 C 38.140625 165.296875 31.730469 164.710938 30.644531 164.921875 C 26.050781 165.839844 25.675781 174.777344 26.171875 182.109375 C 26.675781 189.523438 30.15625 216.945312 54.066406 235.414062 C 74.25 296.816406 132.117188 341.277344 200.1875 341.277344 C 268.257812 341.277344 326.136719 296.8125 346.316406 235.40625 C 370.222656 216.9375 373.703125 189.519531 374.203125 182.109375 C 374.699219 174.777344 374.324219 165.839844 369.730469 164.921875 Z M 200.1875 40.191406 C 274.507812 40.191406 336.132812 95.511719 346.085938 167.132812 C 308.988281 171.492188 238.90625 180.984375 212.4375 184.59375 L 187.9375 184.59375 C 161.46875 180.984375 91.386719 171.496094 54.289062 167.132812 C 64.242188 95.511719 125.867188 40.191406 200.1875 40.191406 Z M 200.1875 334.816406 C 137.949219 334.816406 84.613281 296.019531 63.066406 241.339844 C 73.738281 247.289062 87.488281 251.554688 105.207031 252.660156 C 107.9375 252.832031 110.578125 252.914062 113.136719 252.914062 C 149.25 252.914062 168.339844 236.539062 178.109375 222.257812 C 185.535156 211.410156 188.714844 200.378906 190.039062 193.882812 L 210.335938 193.882812 C 211.660156 200.378906 214.839844 211.410156 222.265625 222.257812 C 232.039062 236.542969 251.121094 252.914062 287.238281 252.914062 C 289.796875 252.914062 292.441406 252.832031 295.171875 252.660156 C 312.886719 251.554688 326.636719 247.289062 337.304688 241.34375 C 315.761719 296.019531 262.425781 334.816406 200.1875 334.816406 Z M 200.1875 238.265625 C 201.96875 238.265625 203.417969 236.820312 203.417969 235.039062 L 203.417969 220.117188 C 203.417969 218.332031 201.96875 216.886719 200.1875 216.886719 C 198.40625 216.886719 196.957031 218.332031 196.957031 220.117188 L 196.957031 235.039062 C 196.957031 236.820312 198.40625 238.265625 200.1875 238.265625 Z M 227.144531 167.507812 C 227.488281 167.507812 227.839844 167.453125 228.183594 167.335938 L 274.875 151.449219 C 276.5625 150.875 277.46875 149.042969 276.894531 147.355469 C 276.320312 145.664062 274.484375 144.761719 272.796875 145.335938 L 226.105469 161.222656 C 224.414062 161.796875 223.511719 163.628906 224.085938 165.320312 C 224.542969 166.664062 225.800781 167.507812 227.144531 167.507812 Z M 174.269531 161.222656 L 127.578125 145.335938 C 125.890625 144.761719 124.054688 145.664062 123.480469 147.355469 C 122.90625 149.042969 123.8125 150.875 125.5 151.449219 L 172.191406 167.335938 C 172.535156 167.453125 172.886719 167.507812 173.230469 167.507812 C 174.574219 167.507812 175.832031 166.660156 176.289062 165.320312 C 176.863281 163.628906 175.960938 161.796875 174.269531 161.222656 Z M 210.316406 270.730469 C 206.363281 270.730469 201.957031 269.90625 197.113281 268.25 C 195.425781 267.675781 194.527344 265.839844 195.101562 264.152344 C 195.679688 262.464844 197.515625 261.5625 199.203125 262.140625 C 207.671875 265.035156 214.210938 264.988281 218.640625 262.003906 C 224.496094 258.0625 225.015625 249.945312 225.019531 249.863281 C 225.117188 248.089844 226.65625 246.730469 228.410156 246.8125 C 230.1875 246.90625 231.554688 248.410156 231.46875 250.1875 C 231.445312 250.648438 230.828125 261.53125 222.304688 267.324219 C 218.960938 269.59375 214.953125 270.730469 210.316406 270.730469 Z M 210.316406 270.730469 " fill-opacity="1" fill-rule="nonzero"/></g><path fill="#ffffff" d="M 284.414062 226.234375 C 283.851562 226.234375 283.28125 226.085938 282.765625 225.777344 C 281.230469 224.863281 280.730469 222.882812 281.644531 221.351562 L 295.121094 198.726562 C 296.03125 197.195312 298.015625 196.691406 299.546875 197.605469 C 301.082031 198.519531 301.582031 200.5 300.667969 202.03125 L 287.191406 224.65625 C 286.585938 225.671875 285.515625 226.234375 284.414062 226.234375 Z M 309.332031 223.691406 L 322.8125 201.070312 C 323.722656 199.539062 323.222656 197.554688 321.691406 196.644531 C 320.160156 195.726562 318.175781 196.230469 317.261719 197.765625 L 303.785156 220.386719 C 302.871094 221.921875 303.375 223.902344 304.90625 224.816406 C 305.425781 225.125 305.996094 225.269531 306.558594 225.269531 C 307.65625 225.269531 308.730469 224.707031 309.332031 223.691406 Z M 88.269531 224.65625 L 101.746094 202.03125 C 102.660156 200.5 102.15625 198.519531 100.625 197.605469 C 99.09375 196.691406 97.109375 197.195312 96.199219 198.726562 L 82.71875 221.351562 C 81.808594 222.882812 82.308594 224.863281 83.839844 225.777344 C 84.359375 226.085938 84.929688 226.234375 85.492188 226.234375 C 86.589844 226.234375 87.664062 225.671875 88.269531 224.65625 Z M 110.410156 223.691406 L 123.890625 201.070312 C 124.800781 199.539062 124.300781 197.554688 122.769531 196.644531 C 121.234375 195.730469 119.253906 196.230469 118.339844 197.765625 L 104.863281 220.386719 C 103.949219 221.921875 104.453125 223.902344 105.984375 224.816406 C 106.5 225.125 107.070312 225.269531 107.632812 225.269531 C 108.734375 225.269531 109.808594 224.707031 110.410156 223.691406 Z M 47.789062 99.496094 C 47.789062 99.496094 32.984375 92.636719 28.652344 77.472656 C 25.402344 85.234375 18.90625 97.148438 7.714844 98.59375 C 12.585938 101.664062 27.027344 110.6875 29.195312 123.144531 C 31 115.382812 37.316406 103.648438 47.789062 99.496094 Z M 47.789062 99.496094 " fill-opacity="1" fill-rule="nonzero"/><path fill="#000000" d="M 57.695312 99.53125 C 57.695312 97.746094 56.25 96.300781 54.464844 96.300781 C 42.179688 96.300781 32.183594 84.402344 32.183594 69.773438 C 32.183594 67.988281 30.738281 66.542969 28.957031 66.542969 C 28.949219 66.542969 28.941406 66.546875 28.9375 66.546875 C 28.929688 66.546875 28.921875 66.542969 28.917969 66.542969 C 27.132812 66.542969 25.6875 67.988281 25.6875 69.773438 C 25.6875 84.402344 15.707031 96.300781 3.441406 96.300781 C 1.65625 96.300781 0.210938 97.746094 0.210938 99.53125 C 0.210938 100.433594 0.582031 101.246094 1.179688 101.832031 C 1.769531 102.5 2.625 102.933594 3.589844 102.933594 C 15.835938 102.933594 25.800781 114.832031 25.800781 129.460938 C 25.800781 131.242188 27.246094 132.6875 29.027344 132.6875 C 30.8125 132.6875 32.257812 131.242188 32.257812 129.460938 C 32.257812 114.832031 42.21875 102.933594 54.464844 102.933594 C 56.25 102.933594 57.695312 101.488281 57.695312 99.703125 C 57.695312 99.671875 57.6875 99.644531 57.6875 99.617188 C 57.6875 99.585938 57.695312 99.558594 57.695312 99.53125 Z M 29.027344 114.28125 C 26.121094 107.855469 21.433594 102.664062 15.71875 99.582031 C 21.398438 96.480469 26.050781 91.296875 28.9375 84.894531 C 31.84375 91.328125 36.53125 96.527344 42.253906 99.625 C 36.578125 102.714844 31.921875 107.886719 29.027344 114.28125 Z M 29.027344 114.28125 " fill-opacity="1" fill-rule="nonzero"/></svg>